<svg width="600" height="400" viewBox="0 0 600 400" fill="none" xmlns="http://www.w3.org/2000/svg">
<g clip-path="url(#clip0)">
<rect width="600" height="400" fill="#EDFCC5"/>
<path d="M89 75.5L89.0001 306.5" stroke="black"/>
<path opacity="0.15" d="M137 76L137 306" stroke="#002414"/>
<path opacity="0.15" d="M185 76L185 306" stroke="#002414"/>
<path opacity="0.15" d="M232 76L232 306" stroke="#002414"/>
<path opacity="0.15" d="M280 76L280 306" stroke="#002414"/>
<path opacity="0.15" d="M374 76L374 306" stroke="#002414"/>
<path opacity="0.15" d="M421 76L421 306" stroke="#002414"/>
<path opacity="0.15" d="M468 76L468 306" stroke="#002414"/>
<path opacity="0.15" d="M516 76L516 306" stroke="#002414"/>
<path opacity="0.15" d="M564 76L564 306" stroke="#002414"/>
<path d="M89 306C89 306 286.661 248.673 418.435 181.612C550.21 114.551 564 94 564 94L564 306L89 306Z" fill="#FA9E00" stroke="black"/>
<path d="M328 306L564 94L564 306L328 306Z" fill="#3D946A" stroke="black"/>
<path d="M301.425 326H302.595L300.075 319H299.115L296.595 326H297.765L298.175 324.8H301.005L301.425 326ZM299.585 320.71H299.605L300.655 323.79H298.525L299.585 320.71ZM303.4 324.23C303.4 325.4 303.79 326 305.12 326H305.63V324.9H305.21C304.63 324.9 304.52 324.66 304.52 324.11V321.68H305.84V320.7H304.51V319.4H303.43V320.7H302.6V321.68H303.4V324.23ZM309.489 324.23C309.489 325.4 309.879 326 311.209 326H311.719V324.9H311.299C310.719 324.9 310.609 324.66 310.609 324.11V321.68H311.929V320.7H310.599V319.4H309.519V320.7H308.689V321.68H309.489V324.23ZM312.929 326H314.069V322.67C314.069 322.06 314.509 321.6 315.199 321.6C315.929 321.6 316.289 322.1 316.289 322.76V326H317.419V322.49C317.419 321.27 316.629 320.55 315.509 320.55C314.939 320.55 314.319 320.87 314.089 321.22H314.069V318.7H312.929V326ZM322.286 324.24C322.056 324.6 321.696 325.14 320.886 325.14C320.046 325.14 319.596 324.55 319.566 323.69H323.266V323.35C323.266 321.61 322.236 320.55 320.856 320.55C319.466 320.55 318.416 321.63 318.416 323.35C318.416 325.07 319.466 326.15 320.906 326.15C322.026 326.15 322.696 325.57 323.106 324.91L322.286 324.24ZM319.576 322.83C319.616 322.22 320.036 321.56 320.856 321.56C321.706 321.56 322.116 322.12 322.156 322.83H319.576ZM326.72 326H327.83V322.57C327.83 322.04 328.13 321.6 328.82 321.6C329.48 321.6 329.79 322.03 329.79 322.64V326H330.85V322.57C330.85 322 331.19 321.6 331.84 321.6C332.54 321.6 332.82 322.03 332.82 322.64V326H333.87V322.38C333.87 321.29 333.12 320.55 331.89 320.55C331.24 320.55 330.72 320.89 330.47 321.28H330.45C330.21 320.88 329.71 320.55 329.09 320.55C328.52 320.55 328.02 320.84 327.78 321.21H327.76V320.7H326.72V326ZM337.334 325.12C336.554 325.12 336.004 324.53 336.004 323.35C336.004 322.18 336.564 321.58 337.334 321.58C338.104 321.58 338.654 322.2 338.654 323.35C338.654 324.5 338.104 325.12 337.334 325.12ZM337.334 326.15C338.704 326.15 339.774 325.16 339.774 323.35C339.774 321.54 338.634 320.55 337.334 320.55C336.024 320.55 334.874 321.54 334.874 323.35C334.874 325.16 335.954 326.15 337.334 326.15ZM340.827 326H341.967V322.71C341.967 322.03 342.407 321.6 343.107 321.6C343.857 321.6 344.137 322.05 344.137 322.83V326H345.267V322.53C345.267 321.28 344.537 320.55 343.377 320.55C342.777 320.55 342.227 320.85 341.947 321.21H341.927V320.7H340.827V326ZM350.136 324.24C349.906 324.6 349.546 325.14 348.736 325.14C347.896 325.14 347.446 324.55 347.416 323.69H351.116V323.35C351.116 321.61 350.086 320.55 348.706 320.55C347.316 320.55 346.266 321.63 346.266 323.35C346.266 325.07 347.316 326.15 348.756 326.15C349.876 326.15 350.546 325.57 350.956 324.91L350.136 324.24ZM347.426 322.83C347.466 322.22 347.886 321.56 348.706 321.56C349.556 321.56 349.966 322.12 350.006 322.83H347.426ZM352.385 328.25H353.485L356.505 320.7H355.325L353.935 324.35H353.915L352.525 320.7H351.325L353.385 325.76L352.385 328.25Z" fill="black"/>
<path d="M92.47 325.06C91.5 325.06 90.68 324.33 90.68 322.44C90.68 320.72 91.52 319.95 92.47 319.95C93.41 319.95 94.25 320.74 94.25 322.45C94.25 324.35 93.43 325.06 92.47 325.06ZM92.47 326.15C94 326.15 95.47 325.13 95.47 322.45C95.47 320.04 93.99 318.85 92.47 318.85C90.94 318.85 89.45 320.03 89.45 322.44C89.45 325.12 90.93 326.15 92.47 326.15ZM96.5238 324.13C96.5238 325.37 97.0938 326.15 98.3338 326.15C99.1638 326.15 99.5838 325.66 99.7038 325.49H99.7238V326H100.824V320.7H99.6838V323.92C99.6838 324.72 99.2338 325.06 98.5938 325.06C97.9338 325.06 97.6638 324.79 97.6638 324V320.7H96.5238V324.13ZM102.476 324.23C102.476 325.4 102.866 326 104.196 326H104.706V324.9H104.286C103.706 324.9 103.596 324.66 103.596 324.11V321.68H104.916V320.7H103.586V319.4H102.506V320.7H101.676V321.68H102.476V324.23ZM110.425 325.12C109.645 325.12 109.095 324.53 109.095 323.35C109.095 322.18 109.655 321.58 110.425 321.58C111.195 321.58 111.745 322.2 111.745 323.35C111.745 324.5 111.195 325.12 110.425 325.12ZM110.425 326.15C111.795 326.15 112.865 325.16 112.865 323.35C112.865 321.54 111.725 320.55 110.425 320.55C109.115 320.55 107.965 321.54 107.965 323.35C107.965 325.16 109.045 326.15 110.425 326.15ZM114.168 326H115.298V321.68H116.598V320.7H115.268V320.19C115.268 319.82 115.378 319.71 115.728 319.71H116.478V318.7H115.498C114.708 318.7 114.188 318.98 114.188 319.93V320.7H113.368V321.68H114.168V326ZM119.945 324.23C119.945 325.4 120.335 326 121.665 326H122.175V324.9H121.755C121.175 324.9 121.065 324.66 121.065 324.11V321.68H122.385V320.7H121.055V319.4H119.975V320.7H119.145V321.68H119.945V324.23ZM123.384 326H124.524V322.67C124.524 322.06 124.964 321.6 125.654 321.6C126.384 321.6 126.744 322.1 126.744 322.76V326H127.874V322.49C127.874 321.27 127.084 320.55 125.964 320.55C125.394 320.55 124.774 320.87 124.544 321.22H124.524V318.7H123.384V326ZM132.741 324.24C132.511 324.6 132.151 325.14 131.341 325.14C130.501 325.14 130.051 324.55 130.021 323.69H133.721V323.35C133.721 321.61 132.691 320.55 131.311 320.55C129.921 320.55 128.871 321.63 128.871 323.35C128.871 325.07 129.921 326.15 131.361 326.15C132.481 326.15 133.151 325.57 133.561 324.91L132.741 324.24ZM130.031 322.83C130.071 322.22 130.491 321.56 131.311 321.56C132.161 321.56 132.571 322.12 132.611 322.83H130.031ZM137.175 326H138.285V322.57C138.285 322.04 138.585 321.6 139.275 321.6C139.935 321.6 140.245 322.03 140.245 322.64V326H141.305V322.57C141.305 322 141.645 321.6 142.295 321.6C142.995 321.6 143.275 322.03 143.275 322.64V326H144.325V322.38C144.325 321.29 143.575 320.55 142.345 320.55C141.695 320.55 141.175 320.89 140.925 321.28H140.905C140.665 320.88 140.165 320.55 139.545 320.55C138.975 320.55 138.475 320.84 138.235 321.21H138.215V320.7H137.175V326ZM147.789 325.12C147.009 325.12 146.459 324.53 146.459 323.35C146.459 322.18 147.019 321.58 147.789 321.58C148.559 321.58 149.109 322.2 149.109 323.35C149.109 324.5 148.559 325.12 147.789 325.12ZM147.789 326.15C149.159 326.15 150.229 325.16 150.229 323.35C150.229 321.54 149.089 320.55 147.789 320.55C146.479 320.55 145.329 321.54 145.329 323.35C145.329 325.16 146.409 326.15 147.789 326.15ZM151.282 326H152.422V322.71C152.422 322.03 152.862 321.6 153.562 321.6C154.312 321.6 154.592 322.05 154.592 322.83V326H155.722V322.53C155.722 321.28 154.992 320.55 153.832 320.55C153.232 320.55 152.682 320.85 152.402 321.21H152.382V320.7H151.282V326ZM160.591 324.24C160.361 324.6 160.001 325.14 159.191 325.14C158.351 325.14 157.901 324.55 157.871 323.69H161.571V323.35C161.571 321.61 160.541 320.55 159.161 320.55C157.771 320.55 156.721 321.63 156.721 323.35C156.721 325.07 157.771 326.15 159.211 326.15C160.331 326.15 161.001 325.57 161.411 324.91L160.591 324.24ZM157.881 322.83C157.921 322.22 158.341 321.56 159.161 321.56C160.011 321.56 160.421 322.12 160.461 322.83H157.881ZM162.84 328.25H163.94L166.96 320.7H165.78L164.39 324.35H164.37L162.98 320.7H161.78L163.84 325.76L162.84 328.25Z" fill="black"/>
<path d="M41.9922 91.64C42.1922 93.16 43.1122 94 44.5522 94.13V94.98H45.0722V94.15C46.6622 94.1 47.5922 93.28 47.5922 92.04C47.5922 91.04 47.0422 90.44 45.0722 89.85V87.97C45.7922 88.06 46.0922 88.52 46.2622 89.05L47.3722 88.75C47.1222 87.55 46.2122 86.96 45.0722 86.87V86.25H44.5622V86.86C43.1022 86.93 42.2922 87.82 42.2922 88.8C42.2922 89.7 42.8922 90.35 44.5622 90.82C44.5622 91.55 44.5522 92.29 44.5522 93.02C43.7022 92.9 43.3922 92.32 43.2322 91.37L41.9922 91.64ZM45.0722 90.97C46.1622 91.29 46.4422 91.55 46.4422 92.07C46.4422 92.69 45.9522 93.06 45.0722 93.06V90.97ZM43.4622 88.78C43.4622 88.37 43.7622 87.98 44.5622 87.95V89.69C43.7322 89.44 43.4622 89.2 43.4622 88.78ZM48.4937 91.64C48.6937 93.16 49.6137 94 51.0537 94.13V94.98H51.5737V94.15C53.1637 94.1 54.0937 93.28 54.0937 92.04C54.0937 91.04 53.5437 90.44 51.5737 89.85V87.97C52.2937 88.06 52.5937 88.52 52.7637 89.05L53.8737 88.75C53.6237 87.55 52.7137 86.96 51.5737 86.87V86.25H51.0637V86.86C49.6037 86.93 48.7937 87.82 48.7937 88.8C48.7937 89.7 49.3937 90.35 51.0637 90.82C51.0637 91.55 51.0537 92.29 51.0537 93.02C50.2037 92.9 49.8937 92.32 49.7337 91.37L48.4937 91.64ZM51.5737 90.97C52.6637 91.29 52.9437 91.55 52.9437 92.07C52.9437 92.69 52.4537 93.06 51.5737 93.06V90.97ZM49.9637 88.78C49.9637 88.37 50.2637 87.98 51.0637 87.95V89.69C50.2337 89.44 49.9637 89.2 49.9637 88.78ZM54.9953 91.64C55.1953 93.16 56.1153 94 57.5553 94.13V94.98H58.0753V94.15C59.6653 94.1 60.5953 93.28 60.5953 92.04C60.5953 91.04 60.0453 90.44 58.0753 89.85V87.97C58.7953 88.06 59.0953 88.52 59.2653 89.05L60.3753 88.75C60.1253 87.55 59.2153 86.96 58.0753 86.87V86.25H57.5653V86.86C56.1053 86.93 55.2953 87.82 55.2953 88.8C55.2953 89.7 55.8953 90.35 57.5653 90.82C57.5653 91.55 57.5553 92.29 57.5553 93.02C56.7053 92.9 56.3953 92.32 56.2353 91.37L54.9953 91.64ZM58.0753 90.97C59.1653 91.29 59.4453 91.55 59.4453 92.07C59.4453 92.69 58.9553 93.06 58.0753 93.06V90.97ZM56.4653 88.78C56.4653 88.37 56.7653 87.98 57.5653 87.95V89.69C56.7353 89.44 56.4653 89.2 56.4653 88.78ZM61.4969 91.64C61.6969 93.16 62.6169 94 64.0569 94.13V94.98H64.5769V94.15C66.1669 94.1 67.0969 93.28 67.0969 92.04C67.0969 91.04 66.5469 90.44 64.5769 89.85V87.97C65.2969 88.06 65.5969 88.52 65.7669 89.05L66.8769 88.75C66.6269 87.55 65.7169 86.96 64.5769 86.87V86.25H64.0669V86.86C62.6069 86.93 61.7969 87.82 61.7969 88.8C61.7969 89.7 62.3969 90.35 64.0669 90.82C64.0669 91.55 64.0569 92.29 64.0569 93.02C63.2069 92.9 62.8969 92.32 62.7369 91.37L61.4969 91.64ZM64.5769 90.97C65.6669 91.29 65.9469 91.55 65.9469 92.07C65.9469 92.69 65.4569 93.06 64.5769 93.06V90.97ZM62.9669 88.78C62.9669 88.37 63.2669 87.98 64.0669 87.95V89.69C63.2369 89.44 62.9669 89.2 62.9669 88.78ZM67.9984 91.64C68.1984 93.16 69.1184 94 70.5584 94.13V94.98H71.0784V94.15C72.6684 94.1 73.5984 93.28 73.5984 92.04C73.5984 91.04 73.0484 90.44 71.0784 89.85V87.97C71.7984 88.06 72.0984 88.52 72.2684 89.05L73.3784 88.75C73.1284 87.55 72.2184 86.96 71.0784 86.87V86.25H70.5684V86.86C69.1084 86.93 68.2984 87.82 68.2984 88.8C68.2984 89.7 68.8984 90.35 70.5684 90.82C70.5684 91.55 70.5584 92.29 70.5584 93.02C69.7084 92.9 69.3984 92.32 69.2384 91.37L67.9984 91.64ZM71.0784 90.97C72.1684 91.29 72.4484 91.55 72.4484 92.07C72.4484 92.69 71.9584 93.06 71.0784 93.06V90.97ZM69.4684 88.78C69.4684 88.37 69.7684 87.98 70.5684 87.95V89.69C69.7384 89.44 69.4684 89.2 69.4684 88.78ZM48.4937 139.64C48.6937 141.16 49.6137 142 51.0537 142.13V142.98H51.5737V142.15C53.1637 142.1 54.0937 141.28 54.0937 140.04C54.0937 139.04 53.5437 138.44 51.5737 137.85V135.97C52.2937 136.06 52.5937 136.52 52.7637 137.05L53.8737 136.75C53.6237 135.55 52.7137 134.96 51.5737 134.87V134.25H51.0637V134.86C49.6037 134.93 48.7937 135.82 48.7937 136.8C48.7937 137.7 49.3937 138.35 51.0637 138.82C51.0637 139.55 51.0537 140.29 51.0537 141.02C50.2037 140.9 49.8937 140.32 49.7337 139.37L48.4937 139.64ZM51.5737 138.97C52.6637 139.29 52.9437 139.55 52.9437 140.07C52.9437 140.69 52.4537 141.06 51.5737 141.06V138.97ZM49.9637 136.78C49.9637 136.37 50.2637 135.98 51.0637 135.95V137.69C50.2337 137.44 49.9637 137.2 49.9637 136.78ZM54.9953 139.64C55.1953 141.16 56.1153 142 57.5553 142.13V142.98H58.0753V142.15C59.6653 142.1 60.5953 141.28 60.5953 140.04C60.5953 139.04 60.0453 138.44 58.0753 137.85V135.97C58.7953 136.06 59.0953 136.52 59.2653 137.05L60.3753 136.75C60.1253 135.55 59.2153 134.96 58.0753 134.87V134.25H57.5653V134.86C56.1053 134.93 55.2953 135.82 55.2953 136.8C55.2953 137.7 55.8953 138.35 57.5653 138.82C57.5653 139.55 57.5553 140.29 57.5553 141.02C56.7053 140.9 56.3953 140.32 56.2353 139.37L54.9953 139.64ZM58.0753 138.97C59.1653 139.29 59.4453 139.55 59.4453 140.07C59.4453 140.69 58.9553 141.06 58.0753 141.06V138.97ZM56.4653 136.78C56.4653 136.37 56.7653 135.98 57.5653 135.95V137.69C56.7353 137.44 56.4653 137.2 56.4653 136.78ZM61.4969 139.64C61.6969 141.16 62.6169 142 64.0569 142.13V142.98H64.5769V142.15C66.1669 142.1 67.0969 141.28 67.0969 140.04C67.0969 139.04 66.5469 138.44 64.5769 137.85V135.97C65.2969 136.06 65.5969 136.52 65.7669 137.05L66.8769 136.75C66.6269 135.55 65.7169 134.96 64.5769 134.87V134.25H64.0669V134.86C62.6069 134.93 61.7969 135.82 61.7969 136.8C61.7969 137.7 62.3969 138.35 64.0669 138.82C64.0669 139.55 64.0569 140.29 64.0569 141.02C63.2069 140.9 62.8969 140.32 62.7369 139.37L61.4969 139.64ZM64.5769 138.97C65.6669 139.29 65.9469 139.55 65.9469 140.07C65.9469 140.69 65.4569 141.06 64.5769 141.06V138.97ZM62.9669 136.78C62.9669 136.37 63.2669 135.98 64.0669 135.95V137.69C63.2369 137.44 62.9669 137.2 62.9669 136.78ZM67.9984 139.64C68.1984 141.16 69.1184 142 70.5584 142.13V142.98H71.0784V142.15C72.6684 142.1 73.5984 141.28 73.5984 140.04C73.5984 139.04 73.0484 138.44 71.0784 137.85V135.97C71.7984 136.06 72.0984 136.52 72.2684 137.05L73.3784 136.75C73.1284 135.55 72.2184 134.96 71.0784 134.87V134.25H70.5684V134.86C69.1084 134.93 68.2984 135.82 68.2984 136.8C68.2984 137.7 68.8984 138.35 70.5684 138.82C70.5684 139.55 70.5584 140.29 70.5584 141.02C69.7084 140.9 69.3984 140.32 69.2384 139.37L67.9984 139.64ZM71.0784 138.97C72.1684 139.29 72.4484 139.55 72.4484 140.07C72.4484 140.69 71.9584 141.06 71.0784 141.06V138.97ZM69.4684 136.78C69.4684 136.37 69.7684 135.98 70.5684 135.95V137.69C69.7384 137.44 69.4684 137.2 69.4684 136.78ZM54.9953 187.64C55.1953 189.16 56.1153 190 57.5553 190.13V190.98H58.0753V190.15C59.6653 190.1 60.5953 189.28 60.5953 188.04C60.5953 187.04 60.0453 186.44 58.0753 185.85V183.97C58.7953 184.06 59.0953 184.52 59.2653 185.05L60.3753 184.75C60.1253 183.55 59.2153 182.96 58.0753 182.87V182.25H57.5653V182.86C56.1053 182.93 55.2953 183.82 55.2953 184.8C55.2953 185.7 55.8953 186.35 57.5653 186.82C57.5653 187.55 57.5553 188.29 57.5553 189.02C56.7053 188.9 56.3953 188.32 56.2353 187.37L54.9953 187.64ZM58.0753 186.97C59.1653 187.29 59.4453 187.55 59.4453 188.07C59.4453 188.69 58.9553 189.06 58.0753 189.06V186.97ZM56.4653 184.78C56.4653 184.37 56.7653 183.98 57.5653 183.95V185.69C56.7353 185.44 56.4653 185.2 56.4653 184.78ZM61.4969 187.64C61.6969 189.16 62.6169 190 64.0569 190.13V190.98H64.5769V190.15C66.1669 190.1 67.0969 189.28 67.0969 188.04C67.0969 187.04 66.5469 186.44 64.5769 185.85V183.97C65.2969 184.06 65.5969 184.52 65.7669 185.05L66.8769 184.75C66.6269 183.55 65.7169 182.96 64.5769 182.87V182.25H64.0669V182.86C62.6069 182.93 61.7969 183.82 61.7969 184.8C61.7969 185.7 62.3969 186.35 64.0669 186.82C64.0669 187.55 64.0569 188.29 64.0569 189.02C63.2069 188.9 62.8969 188.32 62.7369 187.37L61.4969 187.64ZM64.5769 186.97C65.6669 187.29 65.9469 187.55 65.9469 188.07C65.9469 188.69 65.4569 189.06 64.5769 189.06V186.97ZM62.9669 184.78C62.9669 184.37 63.2669 183.98 64.0669 183.95V185.69C63.2369 185.44 62.9669 185.2 62.9669 184.78ZM67.9984 187.64C68.1984 189.16 69.1184 190 70.5584 190.13V190.98H71.0784V190.15C72.6684 190.1 73.5984 189.28 73.5984 188.04C73.5984 187.04 73.0484 186.44 71.0784 185.85V183.97C71.7984 184.06 72.0984 184.52 72.2684 185.05L73.3784 184.75C73.1284 183.55 72.2184 182.96 71.0784 182.87V182.25H70.5684V182.86C69.1084 182.93 68.2984 183.82 68.2984 184.8C68.2984 185.7 68.8984 186.35 70.5684 186.82C70.5684 187.55 70.5584 188.29 70.5584 189.02C69.7084 188.9 69.3984 188.32 69.2384 187.37L67.9984 187.64ZM71.0784 186.97C72.1684 187.29 72.4484 187.55 72.4484 188.07C72.4484 188.69 71.9584 189.06 71.0784 189.06V186.97ZM69.4684 184.78C69.4684 184.37 69.7684 183.98 70.5684 183.95V185.69C69.7384 185.44 69.4684 185.2 69.4684 184.78ZM61.4969 235.64C61.6969 237.16 62.6169 238 64.0569 238.13V238.98H64.5769V238.15C66.1669 238.1 67.0969 237.28 67.0969 236.04C67.0969 235.04 66.5469 234.44 64.5769 233.85V231.97C65.2969 232.06 65.5969 232.52 65.7669 233.05L66.8769 232.75C66.6269 231.55 65.7169 230.96 64.5769 230.87V230.25H64.0669V230.86C62.6069 230.93 61.7969 231.82 61.7969 232.8C61.7969 233.7 62.3969 234.35 64.0669 234.82C64.0669 235.55 64.0569 236.29 64.0569 237.02C63.2069 236.9 62.8969 236.32 62.7369 235.37L61.4969 235.64ZM64.5769 234.97C65.6669 235.29 65.9469 235.55 65.9469 236.07C65.9469 236.69 65.4569 237.06 64.5769 237.06V234.97ZM62.9669 232.78C62.9669 232.37 63.2669 231.98 64.0669 231.95V233.69C63.2369 233.44 62.9669 233.2 62.9669 232.78ZM67.9984 235.64C68.1984 237.16 69.1184 238 70.5584 238.13V238.98H71.0784V238.15C72.6684 238.1 73.5984 237.28 73.5984 236.04C73.5984 235.04 73.0484 234.44 71.0784 233.85V231.97C71.7984 232.06 72.0984 232.52 72.2684 233.05L73.3784 232.75C73.1284 231.55 72.2184 230.96 71.0784 230.87V230.25H70.5684V230.86C69.1084 230.93 68.2984 231.82 68.2984 232.8C68.2984 233.7 68.8984 234.35 70.5684 234.82C70.5684 235.55 70.5584 236.29 70.5584 237.02C69.7084 236.9 69.3984 236.32 69.2384 235.37L67.9984 235.64ZM71.0784 234.97C72.1684 235.29 72.4484 235.55 72.4484 236.07C72.4484 236.69 71.9584 237.06 71.0784 237.06V234.97ZM69.4684 232.78C69.4684 232.37 69.7684 231.98 70.5684 231.95V233.69C69.7384 233.44 69.4684 233.2 69.4684 232.78ZM67.9984 283.64C68.1984 285.16 69.1184 286 70.5584 286.13V286.98H71.0784V286.15C72.6684 286.1 73.5984 285.28 73.5984 284.04C73.5984 283.04 73.0484 282.44 71.0784 281.85V279.97C71.7984 280.06 72.0984 280.52 72.2684 281.05L73.3784 280.75C73.1284 279.55 72.2184 278.96 71.0784 278.87V278.25H70.5684V278.86C69.1084 278.93 68.2984 279.82 68.2984 280.8C68.2984 281.7 68.8984 282.35 70.5684 282.82C70.5684 283.55 70.5584 284.29 70.5584 285.02C69.7084 284.9 69.3984 284.32 69.2384 283.37L67.9984 283.64ZM71.0784 282.97C72.1684 283.29 72.4484 283.55 72.4484 284.07C72.4484 284.69 71.9584 285.06 71.0784 285.06V282.97ZM69.4684 280.78C69.4684 280.37 69.7684 279.98 70.5684 279.95V281.69C69.7384 281.44 69.4684 281.2 69.4684 280.78Z" fill="black"/>
<path d="M505.817 326H506.997V319H505.817V326ZM508.545 326H509.685V322.71C509.685 322.03 510.125 321.6 510.825 321.6C511.575 321.6 511.855 322.05 511.855 322.83V326H512.985V322.53C512.985 321.28 512.255 320.55 511.095 320.55C510.495 320.55 509.945 320.85 509.665 321.21H509.645V320.7H508.545V326ZM516.984 324.23C516.984 325.4 517.374 326 518.704 326H519.214V324.9H518.794C518.214 324.9 518.104 324.66 518.104 324.11V321.68H519.424V320.7H518.094V319.4H517.014V320.7H516.184V321.68H516.984V324.23ZM520.423 326H521.563V322.67C521.563 322.06 522.003 321.6 522.693 321.6C523.423 321.6 523.783 322.1 523.783 322.76V326H524.913V322.49C524.913 321.27 524.123 320.55 523.003 320.55C522.433 320.55 521.813 320.87 521.583 321.22H521.563V318.7H520.423V326ZM529.781 324.24C529.551 324.6 529.191 325.14 528.381 325.14C527.541 325.14 527.091 324.55 527.061 323.69H530.761V323.35C530.761 321.61 529.731 320.55 528.351 320.55C526.961 320.55 525.911 321.63 525.911 323.35C525.911 325.07 526.961 326.15 528.401 326.15C529.521 326.15 530.191 325.57 530.601 324.91L529.781 324.24ZM527.071 322.83C527.111 322.22 527.531 321.56 528.351 321.56C529.201 321.56 529.611 322.12 529.651 322.83H527.071ZM534.215 326H535.325V322.57C535.325 322.04 535.625 321.6 536.315 321.6C536.975 321.6 537.285 322.03 537.285 322.64V326H538.345V322.57C538.345 322 538.685 321.6 539.335 321.6C540.035 321.6 540.315 322.03 540.315 322.64V326H541.365V322.38C541.365 321.29 540.615 320.55 539.385 320.55C538.735 320.55 538.215 320.89 537.965 321.28H537.945C537.705 320.88 537.205 320.55 536.585 320.55C536.015 320.55 535.515 320.84 535.275 321.21H535.255V320.7H534.215V326ZM544.828 325.12C544.048 325.12 543.498 324.53 543.498 323.35C543.498 322.18 544.058 321.58 544.828 321.58C545.598 321.58 546.148 322.2 546.148 323.35C546.148 324.5 545.598 325.12 544.828 325.12ZM544.828 326.15C546.198 326.15 547.268 325.16 547.268 323.35C547.268 321.54 546.128 320.55 544.828 320.55C543.518 320.55 542.368 321.54 542.368 323.35C542.368 325.16 543.448 326.15 544.828 326.15ZM548.321 326H549.461V322.71C549.461 322.03 549.901 321.6 550.601 321.6C551.351 321.6 551.631 322.05 551.631 322.83V326H552.761V322.53C552.761 321.28 552.031 320.55 550.871 320.55C550.271 320.55 549.721 320.85 549.441 321.21H549.421V320.7H548.321V326ZM557.63 324.24C557.4 324.6 557.04 325.14 556.23 325.14C555.39 325.14 554.94 324.55 554.91 323.69H558.61V323.35C558.61 321.61 557.58 320.55 556.2 320.55C554.81 320.55 553.76 321.63 553.76 323.35C553.76 325.07 554.81 326.15 556.25 326.15C557.37 326.15 558.04 325.57 558.45 324.91L557.63 324.24ZM554.92 322.83C554.96 322.22 555.38 321.56 556.2 321.56C557.05 321.56 557.46 322.12 557.5 322.83H554.92ZM559.879 328.25H560.979L563.999 320.7H562.819L561.429 324.35H561.409L560.019 320.7H558.819L560.879 325.76L559.879 328.25Z" fill="black"/>
<path d="M327 76L327 305.5" stroke="#797E76" stroke-dasharray="1 3"/>
<rect x="0.33" y="360.33" width="599.34" height="39.34" fill="white"/>
<rect x="0.33" y="360.33" width="599.34" height="39.34" stroke="black" stroke-width="0.66"/>
<path d="M64.24 384H65.42V378.09H67.5V377H62.15V378.09H64.24V384ZM68.2266 384H69.3666V378.7H68.2266V384ZM68.2066 377.83H69.3866V376.7H68.2066V377.83ZM70.7824 384H71.8924V380.57C71.8924 380.04 72.1924 379.6 72.8824 379.6C73.5424 379.6 73.8524 380.03 73.8524 380.64V384H74.9124V380.57C74.9124 380 75.2524 379.6 75.9024 379.6C76.6024 379.6 76.8824 380.03 76.8824 380.64V384H77.9324V380.38C77.9324 379.29 77.1824 378.55 75.9524 378.55C75.3024 378.55 74.7824 378.89 74.5324 379.28H74.5124C74.2724 378.88 73.7724 378.55 73.1524 378.55C72.5824 378.55 72.0824 378.84 71.8424 379.21H71.8224V378.7H70.7824V384ZM82.8059 382.24C82.5759 382.6 82.2159 383.14 81.4059 383.14C80.5659 383.14 80.1159 382.55 80.0859 381.69H83.7859V381.35C83.7859 379.61 82.7559 378.55 81.3759 378.55C79.9859 378.55 78.9359 379.63 78.9359 381.35C78.9359 383.07 79.9859 384.15 81.4259 384.15C82.5459 384.15 83.2159 383.57 83.6259 382.91L82.8059 382.24ZM80.0959 380.83C80.1359 380.22 80.5559 379.56 81.3759 379.56C82.2259 379.56 82.6359 380.12 82.6759 380.83H80.0959ZM89.1002 384H90.2402L92.7202 377H91.4902L89.7102 382.28H89.6702L87.8302 377H86.5902L89.1002 384ZM96.0591 384H97.0291V380.57C97.0291 379.11 96.0691 378.55 94.8891 378.55C93.6591 378.55 92.9791 379.25 92.7691 380.09L93.7391 380.46C93.8691 379.99 94.1091 379.53 94.9191 379.53C95.5991 379.53 95.8891 379.82 95.8891 380.16C95.8891 380.54 95.6191 380.66 94.4691 380.95C93.1891 381.26 92.6691 381.67 92.6691 382.6C92.6691 383.4 93.2191 384.15 94.5391 384.15C95.5691 384.15 95.9891 383.55 96.0391 383.47H96.0591V384ZM94.6991 381.76C95.7491 381.48 95.8491 381.34 95.9091 381.21H95.9291V382.27C95.9291 382.72 95.5491 383.16 94.6391 383.16C94.0691 383.16 93.7691 382.95 93.7691 382.52C93.7691 382.23 93.8891 381.96 94.6991 381.76ZM98.3293 384H99.5093V376.7H98.3293V384ZM100.855 382.13C100.855 383.37 101.425 384.15 102.665 384.15C103.495 384.15 103.915 383.66 104.035 383.49H104.055V384H105.155V378.7H104.015V381.92C104.015 382.72 103.565 383.06 102.925 383.06C102.265 383.06 101.995 382.79 101.995 382V378.7H100.855V382.13ZM110.077 382.24C109.847 382.6 109.487 383.14 108.677 383.14C107.837 383.14 107.387 382.55 107.357 381.69H111.057V381.35C111.057 379.61 110.027 378.55 108.647 378.55C107.257 378.55 106.207 379.63 106.207 381.35C106.207 383.07 107.257 384.15 108.697 384.15C109.817 384.15 110.487 383.57 110.897 382.91L110.077 382.24ZM107.367 380.83C107.407 380.22 107.827 379.56 108.647 379.56C109.497 379.56 109.907 380.12 109.947 380.83H107.367Z" fill="black"/>
<path d="M165.85 384H167.03V381.31H168.25L169.67 384H170.98L169.47 381.21C170.4 380.97 171.03 380.27 171.03 379.18C171.03 377.79 170.06 377 168.64 377H165.85V384ZM167.03 380.29V378.07H168.55C169.32 378.07 169.84 378.39 169.84 379.18C169.84 379.97 169.31 380.29 168.55 380.29H167.03ZM175.547 382.24C175.317 382.6 174.957 383.14 174.147 383.14C173.307 383.14 172.857 382.55 172.827 381.69H176.527V381.35C176.527 379.61 175.497 378.55 174.117 378.55C172.727 378.55 171.677 379.63 171.677 381.35C171.677 383.07 172.727 384.15 174.167 384.15C175.287 384.15 175.957 383.57 176.367 382.91L175.547 382.24ZM172.837 380.83C172.877 380.22 173.297 379.56 174.117 379.56C174.967 379.56 175.377 380.12 175.417 380.83H172.837ZM180.621 384H181.591V380.57C181.591 379.11 180.631 378.55 179.451 378.55C178.221 378.55 177.541 379.25 177.331 380.09L178.301 380.46C178.431 379.99 178.671 379.53 179.481 379.53C180.161 379.53 180.451 379.82 180.451 380.16C180.451 380.54 180.181 380.66 179.031 380.95C177.751 381.26 177.231 381.67 177.231 382.6C177.231 383.4 177.781 384.15 179.101 384.15C180.131 384.15 180.551 383.55 180.601 383.47H180.621V384ZM179.261 381.76C180.311 381.48 180.411 381.34 180.471 381.21H180.491V382.27C180.491 382.72 180.111 383.16 179.201 383.16C178.631 383.16 178.331 382.95 178.331 382.52C178.331 382.23 178.451 381.96 179.261 381.76ZM182.891 384H184.071V376.7H182.891V384ZM189.727 384H190.867L193.347 377H192.117L190.337 382.28H190.297L188.457 377H187.217L189.727 384ZM196.686 384H197.656V380.57C197.656 379.11 196.696 378.55 195.516 378.55C194.286 378.55 193.606 379.25 193.396 380.09L194.366 380.46C194.496 379.99 194.736 379.53 195.546 379.53C196.226 379.53 196.516 379.82 196.516 380.16C196.516 380.54 196.246 380.66 195.096 380.95C193.816 381.26 193.296 381.67 193.296 382.6C193.296 383.4 193.846 384.15 195.166 384.15C196.196 384.15 196.616 383.55 196.666 383.47H196.686V384ZM195.326 381.76C196.376 381.48 196.476 381.34 196.536 381.21H196.556V382.27C196.556 382.72 196.176 383.16 195.266 383.16C194.696 383.16 194.396 382.95 194.396 382.52C194.396 382.23 194.516 381.96 195.326 381.76ZM198.956 384H200.136V376.7H198.956V384ZM201.482 382.13C201.482 383.37 202.052 384.15 203.292 384.15C204.122 384.15 204.542 383.66 204.662 383.49H204.682V384H205.782V378.7H204.642V381.92C204.642 382.72 204.192 383.06 203.552 383.06C202.892 383.06 202.622 382.79 202.622 382V378.7H201.482V382.13ZM210.704 382.24C210.474 382.6 210.114 383.14 209.304 383.14C208.464 383.14 208.014 382.55 207.984 381.69H211.684V381.35C211.684 379.61 210.654 378.55 209.274 378.55C207.884 378.55 206.834 379.63 206.834 381.35C206.834 383.07 207.884 384.15 209.324 384.15C210.444 384.15 211.114 383.57 211.524 382.91L210.704 382.24ZM207.994 380.83C208.034 380.22 208.454 379.56 209.274 379.56C210.124 379.56 210.534 380.12 210.574 380.83H207.994Z" fill="black"/>
<rect x="38.25" y="373.25" width="14.5" height="14.5" fill="#FFAA05" stroke="black" stroke-width="0.5"/>
<rect x="139.25" y="373.25" width="14.5" height="14.5" fill="#3D946A" stroke="black" stroke-width="0.5"/>
<path d="M0 0H600V40H0V0Z" fill="white"/>
<path d="M29.16 23.365C27.855 23.365 26.7 22.405 26.7 19.66C26.7 17.245 27.87 16.15 29.16 16.15C30.45 16.15 31.62 17.26 31.62 19.66C31.62 22.435 30.465 23.365 29.16 23.365ZM29.16 25.225C31.485 25.225 33.72 23.68 33.72 19.66C33.72 16.045 31.47 14.275 29.16 14.275C26.85 14.275 24.6 16.045 24.6 19.66C24.6 23.68 26.835 25.225 29.16 25.225ZM37.2271 20.2C37.2271 19.33 37.8721 18.58 38.9371 18.58C40.0321 18.58 40.8871 19.375 40.8871 21.025C40.8871 22.66 40.0321 23.47 38.9371 23.47C37.8721 23.47 37.2271 22.72 37.2271 21.835V20.2ZM35.2771 28.375H37.2271V24.235H37.2571C37.2571 24.235 37.8121 25.225 39.3421 25.225C41.1871 25.225 42.8371 23.74 42.8371 21.025C42.8371 18.31 41.0671 16.825 39.3121 16.825C37.7521 16.825 37.1671 17.815 37.1671 17.815H37.1371V17.05H35.2771V28.375ZM44.7228 22.165C44.7228 24.055 45.3078 25 47.5278 25H48.3528V23.125H47.7078C46.8078 23.125 46.6428 22.78 46.6428 21.985V18.7H48.6228V17.05H46.6128V15.1H44.7678V17.05H43.4928V18.7H44.7228V22.165ZM50.0186 25H51.9686V17.05H50.0186V25ZM50.0186 15.895H51.9686V14.05H50.0186V15.895ZM57.1565 23.47C56.0615 23.47 55.3565 22.645 55.3565 21.025C55.3565 19.405 56.0915 18.58 57.1565 18.58C58.2215 18.58 58.9565 19.435 58.9565 21.025C58.9565 22.615 58.2515 23.47 57.1565 23.47ZM57.1565 25.225C59.2415 25.225 60.8765 23.74 60.8765 21.025C60.8765 18.31 59.1365 16.825 57.1565 16.825C55.1765 16.825 53.4365 18.31 53.4365 21.025C53.4365 23.74 55.0715 25.225 57.1565 25.225ZM62.3576 25H64.3076V20.14C64.3076 19.225 64.8776 18.625 65.8376 18.625C66.9026 18.625 67.2326 19.24 67.2326 20.275V25H69.1826V19.795C69.1826 17.92 68.1176 16.825 66.3626 16.825C65.4776 16.825 64.6676 17.29 64.2626 17.815H64.2326V17.05H62.3576V25ZM77.5753 25H79.4203L83.1703 14.5H81.0703L78.5503 21.955H78.5053L75.9103 14.5H73.7803L77.5753 25ZM88.0476 25H89.6826V19.96C89.6826 17.68 88.1526 16.825 86.3676 16.825C84.4626 16.825 83.4426 17.89 83.0976 19.105L84.7176 19.78C84.9126 19.165 85.2126 18.475 86.3976 18.475C87.3426 18.475 87.7476 18.865 87.7476 19.315C87.7476 19.765 87.5826 19.93 85.6926 20.395C83.7876 20.86 82.9926 21.445 82.9926 22.87C82.9926 24.07 83.8026 25.225 85.8576 25.225C87.4626 25.225 88.0176 24.235 88.0176 24.235H88.0476V25ZM86.0826 21.745C87.6276 21.355 87.6876 21.16 87.7776 20.995H87.8076V22.375C87.8076 22.96 87.3126 23.545 86.0376 23.545C85.3476 23.545 84.8676 23.335 84.8676 22.735C84.8676 22.405 84.9726 22.015 86.0826 21.745ZM91.5328 25H93.5578V14.05H91.5328V25ZM95.4887 22.18C95.4887 23.935 96.2687 25.225 98.2037 25.225C99.3437 25.225 100.019 24.58 100.274 24.235H100.304V25H102.164V17.05H100.214V21.82C100.214 22.96 99.4937 23.35 98.6387 23.35C97.8287 23.35 97.4387 23.005 97.4387 21.97V17.05H95.4887V22.18ZM109.325 22.255C108.935 22.81 108.395 23.5 107.375 23.5C106.31 23.5 105.68 22.84 105.62 21.61H110.96V21.025C110.96 18.445 109.385 16.825 107.315 16.825C105.245 16.825 103.64 18.445 103.64 21.025C103.64 23.605 105.215 25.225 107.405 25.225C109.055 25.225 110.03 24.415 110.69 23.455L109.325 22.255ZM105.62 20.155C105.695 19.27 106.325 18.535 107.315 18.535C108.365 18.535 108.98 19.15 109.07 20.155H105.62ZM116.229 25H120.234C121.854 25 122.664 24.685 123.249 24.13C123.879 23.515 124.164 22.69 124.164 21.73C124.164 20.515 123.489 19.69 122.634 19.33V19.315C123.294 18.925 123.774 18.28 123.774 17.32C123.774 15.79 122.589 14.5 120.684 14.5H116.229V25ZM118.254 23.125V20.38H120.714C121.584 20.38 122.139 20.86 122.139 21.73C122.139 22.855 121.494 23.125 120.699 23.125H118.254ZM118.254 18.73V16.375H120.429C121.239 16.375 121.749 16.765 121.749 17.575C121.749 18.34 121.239 18.73 120.429 18.73H118.254ZM125.72 25H127.67V20.635C127.67 19.36 128.195 18.82 129.035 18.82C129.23 18.82 129.44 18.865 129.65 18.94L129.95 17.05C129.71 16.945 129.47 16.9 129.23 16.9C128.525 16.9 127.895 17.305 127.595 17.89H127.565V17.05H125.72V25ZM136.288 22.255C135.898 22.81 135.358 23.5 134.338 23.5C133.273 23.5 132.643 22.84 132.583 21.61H137.923V21.025C137.923 18.445 136.348 16.825 134.278 16.825C132.208 16.825 130.603 18.445 130.603 21.025C130.603 23.605 132.178 25.225 134.368 25.225C136.018 25.225 136.993 24.415 137.653 23.455L136.288 22.255ZM132.583 20.155C132.658 19.27 133.288 18.535 134.278 18.535C135.328 18.535 135.943 19.15 136.033 20.155H132.583ZM143.922 25H145.557V19.96C145.557 17.68 144.027 16.825 142.242 16.825C140.337 16.825 139.317 17.89 138.972 19.105L140.592 19.78C140.787 19.165 141.087 18.475 142.272 18.475C143.217 18.475 143.622 18.865 143.622 19.315C143.622 19.765 143.457 19.93 141.567 20.395C139.662 20.86 138.867 21.445 138.867 22.87C138.867 24.07 139.677 25.225 141.732 25.225C143.337 25.225 143.892 24.235 143.892 24.235H143.922V25ZM141.957 21.745C143.502 21.355 143.562 21.16 143.652 20.995H143.682V22.375C143.682 22.96 143.187 23.545 141.912 23.545C141.222 23.545 140.742 23.335 140.742 22.735C140.742 22.405 140.847 22.015 141.957 21.745ZM147.408 25H149.358V22.51L150.363 21.37H150.393L152.823 25H154.983L151.863 20.275L154.728 17.05H152.283L149.388 20.335H149.358V14.05H147.408V25ZM160.871 21.745C160.871 22.66 160.256 23.47 159.161 23.47C158.051 23.47 157.361 22.66 157.361 21.025C157.361 19.375 158.051 18.58 159.161 18.58C160.256 18.58 160.871 19.375 160.871 20.29V21.745ZM160.991 25H162.821V14.05H160.871V17.815H160.841C160.841 17.815 160.256 16.825 158.831 16.825C157.121 16.825 155.411 18.31 155.411 21.025C155.411 23.575 156.761 25.225 158.861 25.225C160.316 25.225 160.961 24.235 160.961 24.235H160.991V25ZM168.01 23.47C166.915 23.47 166.21 22.645 166.21 21.025C166.21 19.405 166.945 18.58 168.01 18.58C169.075 18.58 169.81 19.435 169.81 21.025C169.81 22.615 169.105 23.47 168.01 23.47ZM168.01 25.225C170.095 25.225 171.73 23.74 171.73 21.025C171.73 18.31 169.99 16.825 168.01 16.825C166.03 16.825 164.29 18.31 164.29 21.025C164.29 23.74 165.925 25.225 168.01 25.225ZM174.366 25H176.256L178.221 19.285H178.251L180.066 25H181.986L183.891 17.05H182.016L180.816 22.345H180.786L179.151 17.05H177.381L175.611 22.36H175.566L174.516 17.05H172.611L174.366 25ZM185.284 25H187.234V20.14C187.234 19.225 187.804 18.625 188.764 18.625C189.829 18.625 190.159 19.24 190.159 20.275V25H192.109V19.795C192.109 17.92 191.044 16.825 189.289 16.825C188.404 16.825 187.594 17.29 187.189 17.815H187.159V17.05H185.284V25Z" fill="black"/>
<path d="M0 0V-0.66H-0.66V0H0ZM600 0H600.66V-0.66H600V0ZM600 40V40.66H600.66V40H600ZM0 40H-0.66V40.66H0V40ZM0 0.66H600V-0.66H0V0.66ZM599.34 0V40H600.66V0H599.34ZM600 39.34H0V40.66H600V39.34ZM0.66 40V0H-0.66V40H0.66Z" fill="black"/>
<rect x="0.5" y="0.5" width="599" height="399" stroke="black"/>
</g>
<defs>
<clipPath id="clip0">
<rect width="600" height="400" fill="white"/>
</clipPath>
</defs>
</svg>
