<svg width="600" height="400" viewBox="0 0 600 400" fill="none" xmlns="http://www.w3.org/2000/svg">
<rect width="600" height="400" fill="#F5F8FA"/>
<path d="M0 0H600V40H0V0Z" fill="white"/>
<path d="M25.2 25H31.56V23.125H27.225V14.5H25.2V25ZM35.9233 23.47C34.8283 23.47 34.1233 22.645 34.1233 21.025C34.1233 19.405 34.8583 18.58 35.9233 18.58C36.9883 18.58 37.7233 19.435 37.7233 21.025C37.7233 22.615 37.0183 23.47 35.9233 23.47ZM35.9233 25.225C38.0083 25.225 39.6433 23.74 39.6433 21.025C39.6433 18.31 37.9033 16.825 35.9233 16.825C33.9433 16.825 32.2033 18.31 32.2033 21.025C32.2033 23.74 33.8383 25.225 35.9233 25.225ZM41.1244 25H43.0744V20.14C43.0744 19.225 43.6444 18.625 44.6044 18.625C45.6694 18.625 45.9994 19.24 45.9994 20.275V25H47.9494V19.795C47.9494 17.92 46.8844 16.825 45.1294 16.825C44.2444 16.825 43.4344 17.29 43.0294 17.815H42.9994V17.05H41.1244V25ZM54.9571 21.835C54.9571 22.72 54.3121 23.47 53.2471 23.47C52.1521 23.47 51.2971 22.66 51.2971 21.025C51.2971 19.375 52.1521 18.58 53.2471 18.58C54.3121 18.58 54.9571 19.33 54.9571 20.2V21.835ZM49.9171 26.62C50.4121 27.745 51.5371 28.6 53.2771 28.6C55.3171 28.6 56.9071 27.415 56.9071 25V17.05H55.0471V17.815H55.0171C54.6721 17.35 54.0121 16.825 52.9171 16.825C51.1171 16.825 49.3471 18.31 49.3471 21.025C49.3471 23.74 50.9971 25.225 52.9471 25.225C53.8621 25.225 54.6421 24.73 54.9271 24.235H54.9571V25.24C54.9571 26.455 54.2221 26.905 53.2771 26.905C52.3321 26.905 51.8221 26.47 51.3721 25.615L49.9171 26.62ZM68.6398 20.83C68.4748 22.255 67.9498 23.35 66.5848 23.35C65.2798 23.35 64.1098 22.315 64.1098 19.585C64.1098 17.305 65.2798 16.15 66.5848 16.15C67.9048 16.15 68.4598 17.2 68.6248 18.325L70.6348 18.01C70.3948 15.685 68.6998 14.275 66.5698 14.275C64.2598 14.275 62.0248 16.09 62.0248 19.585C62.0248 23.575 64.0648 25.225 66.5848 25.225C68.9248 25.225 70.4098 23.71 70.7398 21.295L68.6398 20.83ZM76.7486 25H78.3836V19.96C78.3836 17.68 76.8536 16.825 75.0686 16.825C73.1636 16.825 72.1436 17.89 71.7986 19.105L73.4186 19.78C73.6136 19.165 73.9136 18.475 75.0986 18.475C76.0436 18.475 76.4486 18.865 76.4486 19.315C76.4486 19.765 76.2836 19.93 74.3936 20.395C72.4886 20.86 71.6936 21.445 71.6936 22.87C71.6936 24.07 72.5036 25.225 74.5586 25.225C76.1636 25.225 76.7186 24.235 76.7186 24.235H76.7486V25ZM74.7836 21.745C76.3286 21.355 76.3886 21.16 76.4786 20.995H76.5086V22.375C76.5086 22.96 76.0136 23.545 74.7386 23.545C74.0486 23.545 73.5686 23.335 73.5686 22.735C73.5686 22.405 73.6736 22.015 74.7836 21.745ZM80.2338 25H82.2588V14.05H80.2338V25ZM84.2646 25H86.2896V14.05H84.2646V25Z" fill="black"/>
<path d="M0 0V-0.66H-0.66V0H0ZM600 0H600.66V-0.66H600V0ZM600 40V40.66H600.66V40H600ZM0 40H-0.66V40.66H0V40ZM0 0.66H600V-0.66H0V0.66ZM599.34 0V40H600.66V0H599.34ZM600 39.34H0V40.66H600V39.34ZM0.66 40V0H-0.66V40H0.66Z" fill="black"/>
<path d="M65.0688 222.195C67.1618 222.195 68.4488 220.479 68.4488 217.333C68.4488 214.265 67.0188 212.705 65.0688 212.705C63.1058 212.705 61.6758 214.265 61.6758 217.333C61.6758 220.479 62.9628 222.195 65.0688 222.195ZM65.0688 221.207C63.5478 221.207 62.7808 219.751 62.7808 217.32C62.7808 214.98 63.6128 213.693 65.0688 213.693C66.5118 213.693 67.3568 214.98 67.3568 217.32C67.3568 219.751 66.5768 221.207 65.0688 221.207Z" fill="black"/>
<path d="M510 223L515 218L510 213" stroke="black"/>
<path d="M253.516 363H256.792C259.041 363 260.003 361.947 260.003 360.309C260.003 359.074 259.262 358.346 258.534 358.112V358.073C259.158 357.8 259.665 357.228 259.665 356.253C259.665 354.914 258.651 353.9 257.013 353.9H253.516V363ZM254.595 357.748V354.888H256.805C257.923 354.888 258.599 355.382 258.599 356.318C258.599 357.228 258.04 357.748 256.818 357.748H254.595ZM254.595 362.012V358.71H256.675C258.183 358.71 258.937 359.126 258.937 360.309C258.937 361.544 258.118 362.012 256.649 362.012H254.595ZM261.729 363H262.795V358.905C262.795 357.618 263.172 357.072 264.056 357.072C264.407 357.072 264.602 357.176 264.602 357.176L264.797 356.123C264.797 356.123 264.55 355.993 264.199 355.993C263.679 355.993 263.068 356.266 262.769 356.851H262.743V356.11H261.729V363ZM270.957 360.881C270.71 361.336 270.294 362.233 268.903 362.233C267.473 362.233 266.81 361.089 266.797 359.867H271.971V359.555C271.971 357.254 270.684 355.915 268.877 355.915C267.057 355.915 265.731 357.319 265.731 359.555C265.731 361.791 267.083 363.195 268.929 363.195C270.437 363.195 271.36 362.337 271.815 361.44L270.957 360.881ZM266.823 359.022C266.836 358.177 267.395 356.877 268.877 356.877C270.372 356.877 270.892 358.021 270.918 359.022H266.823ZM277.631 363H278.567V358.359C278.567 356.604 277.488 355.915 275.98 355.915C274.485 355.915 273.588 356.799 273.38 357.956L274.342 358.229C274.511 357.462 274.94 356.864 276.019 356.864C277.059 356.864 277.462 357.345 277.462 357.891C277.462 358.567 276.721 358.762 275.486 359.074C273.809 359.503 273.172 360.088 273.172 361.232C273.172 362.285 273.887 363.195 275.499 363.195C276.734 363.195 277.41 362.584 277.605 362.246H277.631V363ZM275.733 359.893C277.15 359.503 277.41 359.269 277.501 359.074H277.527V360.79C277.527 361.557 276.89 362.246 275.577 362.246C274.55 362.246 274.212 361.791 274.212 361.167C274.212 360.595 274.498 360.231 275.733 359.893ZM280.548 363H281.614V360.608L282.641 359.503H282.667L285.033 363H286.268L283.434 358.84L285.956 356.11H284.539L281.64 359.269H281.614V353.51H280.548V363ZM290.748 363H296.221V362.012H291.827V358.801H295.857V357.839H291.827V354.888H296.221V353.9H290.748V363ZM300.137 363H300.995L303.777 356.11H302.685L300.579 361.505H300.553L298.447 356.11H297.355L300.137 363ZM309.624 360.881C309.377 361.336 308.961 362.233 307.57 362.233C306.14 362.233 305.477 361.089 305.464 359.867H310.638V359.555C310.638 357.254 309.351 355.915 307.544 355.915C305.724 355.915 304.398 357.319 304.398 359.555C304.398 361.791 305.75 363.195 307.596 363.195C309.104 363.195 310.027 362.337 310.482 361.44L309.624 360.881ZM305.49 359.022C305.503 358.177 306.062 356.877 307.544 356.877C309.039 356.877 309.559 358.021 309.585 359.022H305.49ZM312.294 363H313.36V358.606C313.36 357.514 314.088 356.89 315.141 356.89C316.22 356.89 316.727 357.566 316.727 358.814V363H317.78V358.476C317.78 356.877 316.779 355.915 315.297 355.915C314.491 355.915 313.724 356.292 313.36 356.773H313.334V356.11H312.294V363Z" fill="black"/>
<path d="M285 218L485 98L485 218L285 218Z" fill="#00C707" fill-opacity="0.1"/>
<path d="M285 218L485 98" stroke="#00C707" stroke-width="2"/>
<rect x="85" y="217.5" width="430" height="1" fill="black"/>
<path d="M285 218L285 338" stroke="black" stroke-dasharray="3 3"/>
<path d="M525.65 209.867C525.923 212.025 527.106 213.195 529.303 213.195C531.37 213.195 532.475 211.973 532.475 210.556C532.475 209.204 531.89 208.541 529.42 207.735C527.431 207.085 527.158 206.76 527.158 206.097C527.158 205.369 527.717 204.732 528.926 204.732C530.317 204.732 530.811 205.447 531.006 206.448L532.098 206.214C531.864 204.511 530.564 203.705 528.926 203.705C527.106 203.705 526.066 204.836 526.066 206.097C526.066 207.397 526.937 208.06 528.887 208.684C531.071 209.399 531.396 209.789 531.396 210.608C531.396 211.414 530.772 212.181 529.342 212.181C527.587 212.181 527.028 211.31 526.781 209.646L525.65 209.867ZM534.25 210.998C534.25 212.285 534.757 213 536.096 213H536.668V211.973H536.148C535.446 211.973 535.303 211.635 535.303 210.868V207.059H536.993V206.11H535.29V204.42H534.276V206.11H533.288V207.059H534.25V210.998ZM541.012 212.233C539.855 212.233 538.932 211.336 538.932 209.555C538.932 207.787 539.842 206.877 541.012 206.877C542.156 206.877 543.04 207.813 543.04 209.555C543.04 211.297 542.13 212.233 541.012 212.233ZM541.012 213.195C542.741 213.195 544.093 211.908 544.093 209.555C544.093 207.202 542.65 205.915 541.012 205.915C539.348 205.915 537.879 207.202 537.879 209.555C537.879 211.908 539.257 213.195 541.012 213.195ZM550.273 210.361C550.143 211.271 549.545 212.233 548.44 212.233C547.153 212.233 546.347 211.232 546.347 209.555C546.347 207.826 547.218 206.877 548.427 206.877C549.545 206.877 550.065 207.735 550.247 208.645L551.248 208.437C551.027 206.955 549.922 205.915 548.427 205.915C546.698 205.915 545.294 207.254 545.294 209.555C545.294 211.869 546.62 213.195 548.427 213.195C549.948 213.195 551.079 212.168 551.3 210.569L550.273 210.361ZM552.886 213H553.952V210.608L554.979 209.503H555.005L557.371 213H558.606L555.772 208.84L558.294 206.11H556.877L553.978 209.269H553.952V203.51H552.886V213ZM526.235 233H527.314V229.49H529.758C531.565 229.49 532.774 228.515 532.774 226.708C532.774 224.875 531.513 223.9 529.732 223.9H526.235V233ZM527.314 228.502V224.888H529.667C530.72 224.888 531.682 225.395 531.682 226.708C531.682 227.956 530.746 228.502 529.693 228.502H527.314ZM534.041 233H535.107V228.905C535.107 227.618 535.484 227.072 536.368 227.072C536.719 227.072 536.914 227.176 536.914 227.176L537.109 226.123C537.109 226.123 536.862 225.993 536.511 225.993C535.991 225.993 535.38 226.266 535.081 226.851H535.055V226.11H534.041V233ZM538.577 233H539.643V226.11H538.577V233ZM538.499 224.719H539.721V223.51H538.499V224.719ZM546.35 230.361C546.22 231.271 545.622 232.233 544.517 232.233C543.23 232.233 542.424 231.232 542.424 229.555C542.424 227.826 543.295 226.877 544.504 226.877C545.622 226.877 546.142 227.735 546.324 228.645L547.325 228.437C547.104 226.955 545.999 225.915 544.504 225.915C542.775 225.915 541.371 227.254 541.371 229.555C541.371 231.869 542.697 233.195 544.504 233.195C546.025 233.195 547.156 232.168 547.377 230.569L546.35 230.361ZM553.734 230.881C553.487 231.336 553.071 232.233 551.68 232.233C550.25 232.233 549.587 231.089 549.574 229.867H554.748V229.555C554.748 227.254 553.461 225.915 551.654 225.915C549.834 225.915 548.508 227.319 548.508 229.555C548.508 231.791 549.86 233.195 551.706 233.195C553.214 233.195 554.137 232.337 554.592 231.44L553.734 230.881ZM549.6 229.022C549.613 228.177 550.172 226.877 551.654 226.877C553.149 226.877 553.669 228.021 553.695 229.022H549.6Z" fill="black"/>
<path d="M286 218L140.5 304H84.9998V218H286Z" fill="#FF5100" fill-opacity="0.1"/>
<path d="M122.962 357.867C123.235 360.025 124.418 361.195 126.615 361.195C128.682 361.195 129.787 359.973 129.787 358.556C129.787 357.204 129.202 356.541 126.732 355.735C124.743 355.085 124.47 354.76 124.47 354.097C124.47 353.369 125.029 352.732 126.238 352.732C127.629 352.732 128.123 353.447 128.318 354.448L129.41 354.214C129.176 352.511 127.876 351.705 126.238 351.705C124.418 351.705 123.378 352.836 123.378 354.097C123.378 355.397 124.249 356.06 126.199 356.684C128.383 357.399 128.708 357.789 128.708 358.608C128.708 359.414 128.084 360.181 126.654 360.181C124.899 360.181 124.34 359.31 124.093 357.646L122.962 357.867ZM131.562 358.998C131.562 360.285 132.069 361 133.408 361H133.98V359.973H133.46C132.758 359.973 132.615 359.635 132.615 358.868V355.059H134.305V354.11H132.602V352.42H131.588V354.11H130.6V355.059H131.562V358.998ZM135.9 361H136.966V356.905C136.966 355.618 137.343 355.072 138.227 355.072C138.578 355.072 138.773 355.176 138.773 355.176L138.968 354.123C138.968 354.123 138.721 353.993 138.37 353.993C137.85 353.993 137.239 354.266 136.94 354.851H136.914V354.11H135.9V361ZM140.435 361H141.501V354.11H140.435V361ZM140.357 352.719H141.579V351.51H140.357V352.719ZM143.685 361H144.751V358.608L145.778 357.503H145.804L148.17 361H149.405L146.571 356.84L149.093 354.11H147.676L144.777 357.269H144.751V351.51H143.685V361ZM155.123 358.881C154.876 359.336 154.46 360.233 153.069 360.233C151.639 360.233 150.976 359.089 150.963 357.867H156.137V357.555C156.137 355.254 154.85 353.915 153.043 353.915C151.223 353.915 149.897 355.319 149.897 357.555C149.897 359.791 151.249 361.195 153.095 361.195C154.603 361.195 155.526 360.337 155.981 359.44L155.123 358.881ZM150.989 357.022C151.002 356.177 151.561 354.877 153.043 354.877C154.538 354.877 155.058 356.021 155.084 357.022H150.989Z" fill="#797E76"/>
<path opacity="0.5" d="M140 336L140 303" stroke="#797E76"/>
<path d="M140 216L140 304.5" stroke="#797E76" stroke-dasharray="1 3"/>
<path d="M285 218L140.5 304H84.9998" stroke="#FF5100" stroke-width="2"/>
<circle cx="140" cy="304" r="5" fill="#FF5100"/>
<circle cx="285" cy="218" r="5" fill="black"/>
<path d="M70.5778 83H71.6568V79.49H74.1008C75.9078 79.49 77.1168 78.515 77.1168 76.708C77.1168 74.875 75.8558 73.9 74.0748 73.9H70.5778V83ZM71.6568 78.502V74.888H74.0098C75.0628 74.888 76.0248 75.395 76.0248 76.708C76.0248 77.956 75.0888 78.502 74.0358 78.502H71.6568ZM78.3839 83H79.4499V78.905C79.4499 77.618 79.8269 77.072 80.7109 77.072C81.0619 77.072 81.2569 77.176 81.2569 77.176L81.4519 76.123C81.4519 76.123 81.2049 75.993 80.8539 75.993C80.3339 75.993 79.7229 76.266 79.4239 76.851H79.3979V76.11H78.3839V83ZM85.2656 82.233C84.1086 82.233 83.1856 81.336 83.1856 79.555C83.1856 77.787 84.0956 76.877 85.2656 76.877C86.4096 76.877 87.2936 77.813 87.2936 79.555C87.2936 81.297 86.3836 82.233 85.2656 82.233ZM85.2656 83.195C86.9946 83.195 88.3466 81.908 88.3466 79.555C88.3466 77.202 86.9036 75.915 85.2656 75.915C83.6016 75.915 82.1326 77.202 82.1326 79.555C82.1326 81.908 83.5106 83.195 85.2656 83.195ZM90.2502 83H91.3162V77.059H93.9422V83H94.9952V76.11H91.3032V75.265C91.3032 74.602 91.4462 74.459 91.9662 74.459H92.7202V73.51H91.7712C90.8872 73.51 90.2632 73.822 90.2632 75.057V76.11H89.2882V77.059H90.2502V83ZM93.8642 74.719H95.0732V73.51H93.8642V74.719ZM97.4247 80.998C97.4247 82.285 97.9317 83 99.2707 83H99.8427V81.973H99.3227C98.6207 81.973 98.4777 81.635 98.4777 80.868V77.059H100.168V76.11H98.4647V74.42H97.4507V76.11H96.4627V77.059H97.4247V80.998Z" fill="black"/>
<path d="M72.235 363H77.266V362.012H73.314V353.9H72.235V363ZM81.3353 362.233C80.1783 362.233 79.2553 361.336 79.2553 359.555C79.2553 357.787 80.1653 356.877 81.3353 356.877C82.4793 356.877 83.3633 357.813 83.3633 359.555C83.3633 361.297 82.4533 362.233 81.3353 362.233ZM81.3353 363.195C83.0643 363.195 84.4163 361.908 84.4163 359.555C84.4163 357.202 82.9733 355.915 81.3353 355.915C79.6713 355.915 78.2023 357.202 78.2023 359.555C78.2023 361.908 79.5803 363.195 81.3353 363.195ZM85.553 360.66C85.696 362.025 86.554 363.195 88.478 363.195C90.376 363.195 91.104 362.142 91.104 361.18C91.091 360.101 90.571 359.516 88.751 358.996C87.113 358.528 86.788 358.372 86.788 357.787C86.788 357.319 87.23 356.825 88.192 356.825C89.193 356.825 89.7 357.345 89.947 358.138L90.87 357.891C90.597 356.786 89.791 355.915 88.192 355.915C86.632 355.915 85.8 356.851 85.8 357.813C85.8 358.827 86.437 359.334 88.114 359.802C89.726 360.244 90.103 360.491 90.103 361.18C90.103 361.804 89.596 362.272 88.465 362.272C87.308 362.272 86.684 361.661 86.554 360.465L85.553 360.66ZM92.1688 360.66C92.3118 362.025 93.1698 363.195 95.0938 363.195C96.9918 363.195 97.7198 362.142 97.7198 361.18C97.7068 360.101 97.1868 359.516 95.3668 358.996C93.7288 358.528 93.4038 358.372 93.4038 357.787C93.4038 357.319 93.8458 356.825 94.8078 356.825C95.8088 356.825 96.3158 357.345 96.5628 358.138L97.4858 357.891C97.2128 356.786 96.4068 355.915 94.8078 355.915C93.2478 355.915 92.4158 356.851 92.4158 357.813C92.4158 358.827 93.0528 359.334 94.7298 359.802C96.3418 360.244 96.7188 360.491 96.7188 361.18C96.7188 361.804 96.2118 362.272 95.0808 362.272C93.9238 362.272 93.2998 361.661 93.1698 360.465L92.1688 360.66Z" fill="black"/>
<rect x="84.5" y="98" width="1" height="240" fill="black"/>
<path d="M417.812 182H419.112V175.084H419.138L422.089 182H422.401L425.352 175.084H425.378V182H426.678V172.9H425.04L422.258 179.53H422.232L419.463 172.9H417.812V182ZM432.757 182H433.862V177.45C433.862 175.617 432.692 174.915 431.184 174.915C429.624 174.915 428.74 175.812 428.506 176.93L429.611 177.32C429.78 176.618 430.157 176.02 431.21 176.02C432.172 176.02 432.562 176.462 432.562 176.956C432.562 177.528 432.029 177.71 430.651 178.061C428.987 178.477 428.337 179.036 428.337 180.206C428.337 181.259 429.039 182.195 430.703 182.195C431.99 182.195 432.614 181.506 432.731 181.272H432.757V182ZM430.937 178.984C432.328 178.62 432.51 178.412 432.601 178.23H432.627V179.777C432.627 180.453 432.055 181.077 430.82 181.077C429.936 181.077 429.572 180.713 429.572 180.128C429.572 179.647 429.78 179.296 430.937 178.984ZM434.932 182H436.31L438.065 179.296H438.091L439.846 182H441.237L438.884 178.451L441.081 175.11H439.729L438.091 177.658H438.065L436.44 175.11H435.075L437.272 178.451L434.932 182ZM445.644 183.3C446.021 184.34 446.957 185.12 448.426 185.12C450.155 185.12 451.325 184.106 451.325 182.065V175.11H450.103V175.773H450.077C449.687 175.292 449.063 174.915 448.179 174.915C446.528 174.915 445.137 176.28 445.137 178.555C445.137 180.843 446.437 182.195 448.192 182.195C449.128 182.195 449.752 181.766 450.038 181.389H450.064V182.286C450.064 183.404 449.427 184.002 448.413 184.002C447.412 184.002 446.97 183.43 446.658 182.715L445.644 183.3ZM450.064 179.582C450.064 180.362 449.388 181.051 448.387 181.051C447.152 181.051 446.398 180.141 446.398 178.555C446.398 176.969 447.152 176.072 448.387 176.072C449.453 176.072 450.064 176.878 450.064 177.658V179.582ZM457.201 182H458.306V177.45C458.306 175.617 457.136 174.915 455.628 174.915C454.068 174.915 453.184 175.812 452.95 176.93L454.055 177.32C454.224 176.618 454.601 176.02 455.654 176.02C456.616 176.02 457.006 176.462 457.006 176.956C457.006 177.528 456.473 177.71 455.095 178.061C453.431 178.477 452.781 179.036 452.781 180.206C452.781 181.259 453.483 182.195 455.147 182.195C456.434 182.195 457.058 181.506 457.175 181.272H457.201V182ZM455.381 178.984C456.772 178.62 456.954 178.412 457.045 178.23H457.071V179.777C457.071 180.453 456.499 181.077 455.264 181.077C454.38 181.077 454.016 180.713 454.016 180.128C454.016 179.647 454.224 179.296 455.381 178.984ZM460.209 182H461.47V175.11H460.209V182ZM460.157 173.849H461.522V172.51H460.157V173.849ZM463.497 182H464.758V177.671C464.758 176.683 465.408 176.085 466.396 176.085C467.423 176.085 467.852 176.709 467.852 177.853V182H469.126V177.489C469.126 175.877 468.138 174.915 466.643 174.915C465.863 174.915 465.109 175.305 464.758 175.773H464.732V175.11H463.497V182ZM415.635 199.582C415.635 201.272 416.467 202.195 418.001 202.195C419.171 202.195 419.743 201.493 419.86 201.337H419.886V202H421.108V195.11H419.847V199.348C419.847 200.427 419.223 200.999 418.287 200.999C417.286 200.999 416.896 200.583 416.896 199.413V195.11H415.635V199.582ZM423.09 202H424.351V197.671C424.351 196.683 425.001 196.085 425.989 196.085C427.016 196.085 427.445 196.709 427.445 197.853V202H428.719V197.489C428.719 195.877 427.731 194.915 426.236 194.915C425.456 194.915 424.702 195.305 424.351 195.773H424.325V195.11H423.09V202ZM430.633 202H431.933V192.51H430.633V202ZM433.962 202H435.223V195.11H433.962V202ZM433.91 193.849H435.275V192.51H433.91V193.849ZM437.25 202H438.485V197.541C438.485 196.761 438.901 196.085 439.876 196.085C440.786 196.085 441.215 196.657 441.215 197.632V202H442.411V197.541C442.411 196.644 442.905 196.085 443.802 196.085C444.738 196.085 445.141 196.657 445.141 197.632V202H446.337V197.307C446.337 195.851 445.388 194.915 443.867 194.915C442.983 194.915 442.281 195.396 441.956 195.89H441.93C441.631 195.383 441.02 194.915 440.149 194.915C439.408 194.915 438.745 195.292 438.42 195.773H438.394V195.11H437.25V202ZM448.298 202H449.559V195.11H448.298V202ZM448.246 193.849H449.611V192.51H448.246V193.849ZM451.885 199.842C451.885 201.246 452.392 202 453.926 202H454.537V200.778H454.017C453.276 200.778 453.133 200.453 453.133 199.712V196.215H454.836V195.11H453.12V193.42H451.911V195.11H450.871V196.215H451.885V199.842ZM460.724 199.803C460.451 200.258 459.996 201.064 458.787 201.064C457.526 201.064 456.902 200.102 456.876 198.932H461.868V198.555C461.868 196.28 460.555 194.915 458.748 194.915C456.941 194.915 455.589 196.319 455.589 198.555C455.589 200.791 456.941 202.195 458.813 202.195C460.282 202.195 461.192 201.389 461.673 200.518L460.724 199.803ZM456.889 197.944C456.915 197.138 457.474 196.046 458.748 196.046C460.048 196.046 460.568 196.995 460.607 197.944H456.889ZM467.803 199.543C467.803 200.336 467.14 201.051 466.126 201.051C464.878 201.051 464.202 200.141 464.202 198.555C464.202 196.969 464.891 196.072 466.126 196.072C467.205 196.072 467.803 196.904 467.803 197.697V199.543ZM467.907 202H469.064V192.51H467.803V195.773H467.777C467.543 195.5 466.945 194.915 465.918 194.915C464.306 194.915 462.941 196.28 462.941 198.555C462.941 200.765 464.111 202.195 465.931 202.195C467.036 202.195 467.686 201.558 467.881 201.337H467.907V202Z" fill="#00C707"/>
<path d="M483.694 104.742L485.457 97.9045L478.611 96.1326" stroke="#00C805" stroke-width="1.5"/>
<rect x="0.5" y="0.5" width="599" height="399" stroke="black"/>
</svg>
