<svg width="600" height="400" viewBox="0 0 600 400" fill="none" xmlns="http://www.w3.org/2000/svg">
<rect width="600" height="400" fill="#F5F8FA"/>
<path d="M65.0688 222.195C67.1618 222.195 68.4488 220.479 68.4488 217.333C68.4488 214.265 67.0188 212.705 65.0688 212.705C63.1058 212.705 61.6758 214.265 61.6758 217.333C61.6758 220.479 62.9628 222.195 65.0688 222.195ZM65.0688 221.207C63.5478 221.207 62.7808 219.751 62.7808 217.32C62.7808 214.98 63.6128 213.693 65.0688 213.693C66.5118 213.693 67.3568 214.98 67.3568 217.32C67.3568 219.751 66.5768 221.207 65.0688 221.207Z" fill="black"/>
<path d="M253.516 363H256.792C259.041 363 260.003 361.947 260.003 360.309C260.003 359.074 259.262 358.346 258.534 358.112V358.073C259.158 357.8 259.665 357.228 259.665 356.253C259.665 354.914 258.651 353.9 257.013 353.9H253.516V363ZM254.595 357.748V354.888H256.805C257.923 354.888 258.599 355.382 258.599 356.318C258.599 357.228 258.04 357.748 256.818 357.748H254.595ZM254.595 362.012V358.71H256.675C258.183 358.71 258.937 359.126 258.937 360.309C258.937 361.544 258.118 362.012 256.649 362.012H254.595ZM261.729 363H262.795V358.905C262.795 357.618 263.172 357.072 264.056 357.072C264.407 357.072 264.602 357.176 264.602 357.176L264.797 356.123C264.797 356.123 264.55 355.993 264.199 355.993C263.679 355.993 263.068 356.266 262.769 356.851H262.743V356.11H261.729V363ZM270.957 360.881C270.71 361.336 270.294 362.233 268.903 362.233C267.473 362.233 266.81 361.089 266.797 359.867H271.971V359.555C271.971 357.254 270.684 355.915 268.877 355.915C267.057 355.915 265.731 357.319 265.731 359.555C265.731 361.791 267.083 363.195 268.929 363.195C270.437 363.195 271.36 362.337 271.815 361.44L270.957 360.881ZM266.823 359.022C266.836 358.177 267.395 356.877 268.877 356.877C270.372 356.877 270.892 358.021 270.918 359.022H266.823ZM277.631 363H278.567V358.359C278.567 356.604 277.488 355.915 275.98 355.915C274.485 355.915 273.588 356.799 273.38 357.956L274.342 358.229C274.511 357.462 274.94 356.864 276.019 356.864C277.059 356.864 277.462 357.345 277.462 357.891C277.462 358.567 276.721 358.762 275.486 359.074C273.809 359.503 273.172 360.088 273.172 361.232C273.172 362.285 273.887 363.195 275.499 363.195C276.734 363.195 277.41 362.584 277.605 362.246H277.631V363ZM275.733 359.893C277.15 359.503 277.41 359.269 277.501 359.074H277.527V360.79C277.527 361.557 276.89 362.246 275.577 362.246C274.55 362.246 274.212 361.791 274.212 361.167C274.212 360.595 274.498 360.231 275.733 359.893ZM280.548 363H281.614V360.608L282.641 359.503H282.667L285.033 363H286.268L283.434 358.84L285.956 356.11H284.539L281.64 359.269H281.614V353.51H280.548V363ZM290.748 363H296.221V362.012H291.827V358.801H295.857V357.839H291.827V354.888H296.221V353.9H290.748V363ZM300.137 363H300.995L303.777 356.11H302.685L300.579 361.505H300.553L298.447 356.11H297.355L300.137 363ZM309.624 360.881C309.377 361.336 308.961 362.233 307.57 362.233C306.14 362.233 305.477 361.089 305.464 359.867H310.638V359.555C310.638 357.254 309.351 355.915 307.544 355.915C305.724 355.915 304.398 357.319 304.398 359.555C304.398 361.791 305.75 363.195 307.596 363.195C309.104 363.195 310.027 362.337 310.482 361.44L309.624 360.881ZM305.49 359.022C305.503 358.177 306.062 356.877 307.544 356.877C309.039 356.877 309.559 358.021 309.585 359.022H305.49ZM312.294 363H313.36V358.606C313.36 357.514 314.088 356.89 315.141 356.89C316.22 356.89 316.727 357.566 316.727 358.814V363H317.78V358.476C317.78 356.877 316.779 355.915 315.297 355.915C314.491 355.915 313.724 356.292 313.36 356.773H313.334V356.11H312.294V363Z" fill="black"/>
<path d="M285 218L85 98L85 218L285 218Z" fill="#00C707" fill-opacity="0.1"/>
<path d="M285 218L85 99" stroke="#00C707" stroke-width="2"/>
<path d="M285 218L285 338" stroke="black" stroke-dasharray="3 3"/>
<path d="M70.5778 83H71.6568V79.49H74.1008C75.9078 79.49 77.1168 78.515 77.1168 76.708C77.1168 74.875 75.8558 73.9 74.0748 73.9H70.5778V83ZM71.6568 78.502V74.888H74.0098C75.0628 74.888 76.0248 75.395 76.0248 76.708C76.0248 77.956 75.0888 78.502 74.0358 78.502H71.6568ZM78.3839 83H79.4499V78.905C79.4499 77.618 79.8269 77.072 80.7109 77.072C81.0619 77.072 81.2569 77.176 81.2569 77.176L81.4519 76.123C81.4519 76.123 81.2049 75.993 80.8539 75.993C80.3339 75.993 79.7229 76.266 79.4239 76.851H79.3979V76.11H78.3839V83ZM85.2656 82.233C84.1086 82.233 83.1856 81.336 83.1856 79.555C83.1856 77.787 84.0956 76.877 85.2656 76.877C86.4096 76.877 87.2936 77.813 87.2936 79.555C87.2936 81.297 86.3836 82.233 85.2656 82.233ZM85.2656 83.195C86.9946 83.195 88.3466 81.908 88.3466 79.555C88.3466 77.202 86.9036 75.915 85.2656 75.915C83.6016 75.915 82.1326 77.202 82.1326 79.555C82.1326 81.908 83.5106 83.195 85.2656 83.195ZM90.2502 83H91.3162V77.059H93.9422V83H94.9952V76.11H91.3032V75.265C91.3032 74.602 91.4462 74.459 91.9662 74.459H92.7202V73.51H91.7712C90.8872 73.51 90.2632 73.822 90.2632 75.057V76.11H89.2882V77.059H90.2502V83ZM93.8642 74.719H95.0732V73.51H93.8642V74.719ZM97.4247 80.998C97.4247 82.285 97.9317 83 99.2707 83H99.8427V81.973H99.3227C98.6207 81.973 98.4777 81.635 98.4777 80.868V77.059H100.168V76.11H98.4647V74.42H97.4507V76.11H96.4627V77.059H97.4247V80.998Z" fill="black"/>
<path d="M72.235 363H77.266V362.012H73.314V353.9H72.235V363ZM81.3353 362.233C80.1783 362.233 79.2553 361.336 79.2553 359.555C79.2553 357.787 80.1653 356.877 81.3353 356.877C82.4793 356.877 83.3633 357.813 83.3633 359.555C83.3633 361.297 82.4533 362.233 81.3353 362.233ZM81.3353 363.195C83.0643 363.195 84.4163 361.908 84.4163 359.555C84.4163 357.202 82.9733 355.915 81.3353 355.915C79.6713 355.915 78.2023 357.202 78.2023 359.555C78.2023 361.908 79.5803 363.195 81.3353 363.195ZM85.553 360.66C85.696 362.025 86.554 363.195 88.478 363.195C90.376 363.195 91.104 362.142 91.104 361.18C91.091 360.101 90.571 359.516 88.751 358.996C87.113 358.528 86.788 358.372 86.788 357.787C86.788 357.319 87.23 356.825 88.192 356.825C89.193 356.825 89.7 357.345 89.947 358.138L90.87 357.891C90.597 356.786 89.791 355.915 88.192 355.915C86.632 355.915 85.8 356.851 85.8 357.813C85.8 358.827 86.437 359.334 88.114 359.802C89.726 360.244 90.103 360.491 90.103 361.18C90.103 361.804 89.596 362.272 88.465 362.272C87.308 362.272 86.684 361.661 86.554 360.465L85.553 360.66ZM92.1688 360.66C92.3118 362.025 93.1698 363.195 95.0938 363.195C96.9918 363.195 97.7198 362.142 97.7198 361.18C97.7068 360.101 97.1868 359.516 95.3668 358.996C93.7288 358.528 93.4038 358.372 93.4038 357.787C93.4038 357.319 93.8458 356.825 94.8078 356.825C95.8088 356.825 96.3158 357.345 96.5628 358.138L97.4858 357.891C97.2128 356.786 96.4068 355.915 94.8078 355.915C93.2478 355.915 92.4158 356.851 92.4158 357.813C92.4158 358.827 93.0528 359.334 94.7298 359.802C96.3418 360.244 96.7188 360.491 96.7188 361.18C96.7188 361.804 96.2118 362.272 95.0808 362.272C93.9238 362.272 93.2998 361.661 93.1698 360.465L92.1688 360.66Z" fill="black"/>
<rect x="84.5" y="98" width="1" height="240" fill="black"/>
<path d="M525.65 209.867C525.923 212.025 527.106 213.195 529.303 213.195C531.37 213.195 532.475 211.973 532.475 210.556C532.475 209.204 531.89 208.541 529.42 207.735C527.431 207.085 527.158 206.76 527.158 206.097C527.158 205.369 527.717 204.732 528.926 204.732C530.317 204.732 530.811 205.447 531.006 206.448L532.098 206.214C531.864 204.511 530.564 203.705 528.926 203.705C527.106 203.705 526.066 204.836 526.066 206.097C526.066 207.397 526.937 208.06 528.887 208.684C531.071 209.399 531.396 209.789 531.396 210.608C531.396 211.414 530.772 212.181 529.342 212.181C527.587 212.181 527.028 211.31 526.781 209.646L525.65 209.867ZM534.25 210.998C534.25 212.285 534.757 213 536.096 213H536.668V211.973H536.148C535.446 211.973 535.303 211.635 535.303 210.868V207.059H536.993V206.11H535.29V204.42H534.276V206.11H533.288V207.059H534.25V210.998ZM541.012 212.233C539.855 212.233 538.932 211.336 538.932 209.555C538.932 207.787 539.842 206.877 541.012 206.877C542.156 206.877 543.04 207.813 543.04 209.555C543.04 211.297 542.13 212.233 541.012 212.233ZM541.012 213.195C542.741 213.195 544.093 211.908 544.093 209.555C544.093 207.202 542.65 205.915 541.012 205.915C539.348 205.915 537.879 207.202 537.879 209.555C537.879 211.908 539.257 213.195 541.012 213.195ZM550.273 210.361C550.143 211.271 549.545 212.233 548.44 212.233C547.153 212.233 546.347 211.232 546.347 209.555C546.347 207.826 547.218 206.877 548.427 206.877C549.545 206.877 550.065 207.735 550.247 208.645L551.248 208.437C551.027 206.955 549.922 205.915 548.427 205.915C546.698 205.915 545.294 207.254 545.294 209.555C545.294 211.869 546.62 213.195 548.427 213.195C549.948 213.195 551.079 212.168 551.3 210.569L550.273 210.361ZM552.886 213H553.952V210.608L554.979 209.503H555.005L557.371 213H558.606L555.772 208.84L558.294 206.11H556.877L553.978 209.269H553.952V203.51H552.886V213ZM526.235 233H527.314V229.49H529.758C531.565 229.49 532.774 228.515 532.774 226.708C532.774 224.875 531.513 223.9 529.732 223.9H526.235V233ZM527.314 228.502V224.888H529.667C530.72 224.888 531.682 225.395 531.682 226.708C531.682 227.956 530.746 228.502 529.693 228.502H527.314ZM534.041 233H535.107V228.905C535.107 227.618 535.484 227.072 536.368 227.072C536.719 227.072 536.914 227.176 536.914 227.176L537.109 226.123C537.109 226.123 536.862 225.993 536.511 225.993C535.991 225.993 535.38 226.266 535.081 226.851H535.055V226.11H534.041V233ZM538.577 233H539.643V226.11H538.577V233ZM538.499 224.719H539.721V223.51H538.499V224.719ZM546.35 230.361C546.22 231.271 545.622 232.233 544.517 232.233C543.23 232.233 542.424 231.232 542.424 229.555C542.424 227.826 543.295 226.877 544.504 226.877C545.622 226.877 546.142 227.735 546.324 228.645L547.325 228.437C547.104 226.955 545.999 225.915 544.504 225.915C542.775 225.915 541.371 227.254 541.371 229.555C541.371 231.869 542.697 233.195 544.504 233.195C546.025 233.195 547.156 232.168 547.377 230.569L546.35 230.361ZM553.734 230.881C553.487 231.336 553.071 232.233 551.68 232.233C550.25 232.233 549.587 231.089 549.574 229.867H554.748V229.555C554.748 227.254 553.461 225.915 551.654 225.915C549.834 225.915 548.508 227.319 548.508 229.555C548.508 231.791 549.86 233.195 551.706 233.195C553.214 233.195 554.137 232.337 554.592 231.44L553.734 230.881ZM549.6 229.022C549.613 228.177 550.172 226.877 551.654 226.877C553.149 226.877 553.669 228.021 553.695 229.022H549.6Z" fill="black"/>
<path d="M284 218L429.5 304H485V218H284Z" fill="#FF5100" fill-opacity="0.1"/>
<path d="M430 218L430 303.5" stroke="#797E76" stroke-dasharray="1 3"/>
<path d="M413.962 357.867C414.235 360.025 415.418 361.195 417.615 361.195C419.682 361.195 420.787 359.973 420.787 358.556C420.787 357.204 420.202 356.541 417.732 355.735C415.743 355.085 415.47 354.76 415.47 354.097C415.47 353.369 416.029 352.732 417.238 352.732C418.629 352.732 419.123 353.447 419.318 354.448L420.41 354.214C420.176 352.511 418.876 351.705 417.238 351.705C415.418 351.705 414.378 352.836 414.378 354.097C414.378 355.397 415.249 356.06 417.199 356.684C419.383 357.399 419.708 357.789 419.708 358.608C419.708 359.414 419.084 360.181 417.654 360.181C415.899 360.181 415.34 359.31 415.093 357.646L413.962 357.867ZM422.562 358.998C422.562 360.285 423.069 361 424.408 361H424.98V359.973H424.46C423.758 359.973 423.615 359.635 423.615 358.868V355.059H425.305V354.11H423.602V352.42H422.588V354.11H421.6V355.059H422.562V358.998ZM426.9 361H427.966V356.905C427.966 355.618 428.343 355.072 429.227 355.072C429.578 355.072 429.773 355.176 429.773 355.176L429.968 354.123C429.968 354.123 429.721 353.993 429.37 353.993C428.85 353.993 428.239 354.266 427.94 354.851H427.914V354.11H426.9V361ZM431.435 361H432.501V354.11H431.435V361ZM431.357 352.719H432.579V351.51H431.357V352.719ZM434.685 361H435.751V358.608L436.778 357.503H436.804L439.17 361H440.405L437.571 356.84L440.093 354.11H438.676L435.777 357.269H435.751V351.51H434.685V361ZM446.123 358.881C445.876 359.336 445.46 360.233 444.069 360.233C442.639 360.233 441.976 359.089 441.963 357.867H447.137V357.555C447.137 355.254 445.85 353.915 444.043 353.915C442.223 353.915 440.897 355.319 440.897 357.555C440.897 359.791 442.249 361.195 444.095 361.195C445.603 361.195 446.526 360.337 446.981 359.44L446.123 358.881ZM441.989 357.022C442.002 356.177 442.561 354.877 444.043 354.877C445.538 354.877 446.058 356.021 446.084 357.022H441.989Z" fill="#797E76"/>
<path opacity="0.5" d="M430 336L430 303" stroke="#797E76"/>
<path d="M285 218L429.5 304H485" stroke="#FF5100" stroke-width="2"/>
<circle r="5" transform="matrix(-1 0 0 1 430 304)" fill="#FF5100"/>
<circle cx="285" cy="218" r="5" fill="black"/>
<path d="M510 223L515 218L510 213" stroke="black"/>
<rect x="85" y="217.5" width="430" height="1" fill="black"/>
<path d="M0 0H600V40H0V0Z" fill="white"/>
<path d="M25.2 25H31.56V23.125H27.225V14.5H25.2V25ZM35.9233 23.47C34.8283 23.47 34.1233 22.645 34.1233 21.025C34.1233 19.405 34.8583 18.58 35.9233 18.58C36.9883 18.58 37.7233 19.435 37.7233 21.025C37.7233 22.615 37.0183 23.47 35.9233 23.47ZM35.9233 25.225C38.0083 25.225 39.6433 23.74 39.6433 21.025C39.6433 18.31 37.9033 16.825 35.9233 16.825C33.9433 16.825 32.2033 18.31 32.2033 21.025C32.2033 23.74 33.8383 25.225 35.9233 25.225ZM41.1244 25H43.0744V20.14C43.0744 19.225 43.6444 18.625 44.6044 18.625C45.6694 18.625 45.9994 19.24 45.9994 20.275V25H47.9494V19.795C47.9494 17.92 46.8844 16.825 45.1294 16.825C44.2444 16.825 43.4344 17.29 43.0294 17.815H42.9994V17.05H41.1244V25ZM54.9571 21.835C54.9571 22.72 54.3121 23.47 53.2471 23.47C52.1521 23.47 51.2971 22.66 51.2971 21.025C51.2971 19.375 52.1521 18.58 53.2471 18.58C54.3121 18.58 54.9571 19.33 54.9571 20.2V21.835ZM49.9171 26.62C50.4121 27.745 51.5371 28.6 53.2771 28.6C55.3171 28.6 56.9071 27.415 56.9071 25V17.05H55.0471V17.815H55.0171C54.6721 17.35 54.0121 16.825 52.9171 16.825C51.1171 16.825 49.3471 18.31 49.3471 21.025C49.3471 23.74 50.9971 25.225 52.9471 25.225C53.8621 25.225 54.6421 24.73 54.9271 24.235H54.9571V25.24C54.9571 26.455 54.2221 26.905 53.2771 26.905C52.3321 26.905 51.8221 26.47 51.3721 25.615L49.9171 26.62ZM62.6248 25H64.6498V21.175H66.8848C69.1498 21.175 70.4998 19.87 70.4998 17.845C70.4998 15.775 68.9998 14.5 66.8848 14.5H62.6248V25ZM64.6498 19.3V16.375H66.8548C67.6198 16.375 68.3998 16.735 68.3998 17.845C68.3998 18.73 67.7398 19.3 66.8548 19.3H64.6498ZM71.4551 22.18C71.4551 23.935 72.2351 25.225 74.1701 25.225C75.3101 25.225 75.9851 24.58 76.2401 24.235H76.2701V25H78.1301V17.05H76.1801V21.82C76.1801 22.96 75.4601 23.35 74.6051 23.35C73.7951 23.35 73.4051 23.005 73.4051 21.97V17.05H71.4551V22.18ZM80.5362 22.165C80.5362 24.055 81.1212 25 83.3412 25H84.1662V23.125H83.5212C82.6212 23.125 82.4562 22.78 82.4562 21.985V18.7H84.4362V17.05H82.4262V15.1H80.5812V17.05H79.3062V18.7H80.5362V22.165Z" fill="black"/>
<path d="M0 0V-0.66H-0.66V0H0ZM600 0H600.66V-0.66H600V0ZM600 40V40.66H600.66V40H600ZM0 40H-0.66V40.66H0V40ZM0 0.66H600V-0.66H0V0.66ZM599.34 0V40H600.66V0H599.34ZM600 39.34H0V40.66H600V39.34ZM0.66 40V0H-0.66V40H0.66Z" fill="black"/>
<rect x="0.5" y="0.5" width="599" height="399" stroke="black"/>
</svg>
