<svg xmlns="http://www.w3.org/2000/svg" xmlns:xlink="http://www.w3.org/1999/xlink" version="1.1" id="Слой_1" x="0px" y="0px" viewBox="0 0 148.6 130" style="enable-background:new 0 0 148.6 130;" xml:space="preserve" width="148.6"  height="130" >
<style type="text/css">
	.st0{fill:none;stroke:#8264FF;stroke-width:2.0343;stroke-linecap:round;stroke-linejoin:round;stroke-miterlimit:10;}
	.st1{fill:none;stroke:#C1B1FF;stroke-width:2.0343;stroke-linecap:round;stroke-linejoin:round;stroke-miterlimit:10;}
	.st2{fill:none;stroke:#8264FF;stroke-width:3.0163;stroke-linecap:round;stroke-linejoin:round;stroke-miterlimit:10;}
	.st3{fill:none;stroke:#8264FF;stroke-width:2.0343;stroke-linejoin:round;stroke-miterlimit:10;}
	.st4{fill:none;stroke:#C1B1FF;stroke-width:2.8503;stroke-miterlimit:10;}
	.st5{fill:none;stroke:#C1B1FF;stroke-width:2.8503;stroke-linecap:round;stroke-linejoin:round;stroke-miterlimit:10;}
	.st6{fill:#C1B1FF;}
</style>
<g>
	<line class="st0" x1="46.5" y1="91.1" x2="46.5" y2="64.8"/>
	<path class="st1" d="M35.2,95.6c5.7-4.6,9.3-4.9,11.6-4.3c2.5,0.6,4.6,2.7,7.6,2.1c1.3-0.3,2.7-1.4,3.3-1.9"/>
	<path class="st2" d="M34.8,90.4v3v18.8c0,7.9,5.2,14.4,11.6,14.4h0c4.9,0,9.1-3.8,10.8-9.2c0.5-1.6,0.8-3.4,0.8-5.2V110v-3.1v-3.1   V64.7"/>
	<line class="st2" x1="34.8" y1="83.4" x2="34.8" y2="83.4"/>
	<line class="st2" x1="34.8" y1="64.7" x2="34.8" y2="74.2"/>
	<line class="st0" x1="46.5" y1="54.5" x2="46.5" y2="38.2"/>
	<path class="st0" d="M56.6,28.1c-5.6,0-10.1,4.5-10.1,10.1l0,0c0-5.6-4.5-10.1-10.1-10.1"/>
	<g>
		<line class="st3" x1="56.8" y1="28.1" x2="83.1" y2="2.2"/>
		<line class="st0" x1="67.2" y1="17.9" x2="71.4" y2="4.4"/>
		<line class="st0" x1="63.3" y1="21.7" x2="77.4" y2="18.7"/>
		<path class="st0" d="M56.8,28.1c0,0,11.7-0.3,19.1-7.6c7.4-7.4,7.6-19,7.6-19S71.8,1.7,64.4,9.1C57,16.4,56.8,28.1,56.8,28.1z"/>
	</g>
	<g>
		<line class="st3" x1="36.9" y1="28.1" x2="11.7" y2="3"/>
		<path class="st0" d="M25.6,16.9c-0.3-0.5-1.4-11.1-1.4-11.1"/>
		<line class="st0" x1="29.7" y1="20.9" x2="17.5" y2="20.1"/>
		<path class="st0" d="M36.9,28.1c0,0-11.3,0.1-18.3-6.9S11.7,3,11.7,3S23,2.9,30,9.8S36.9,28.1,36.9,28.1z"/>
	</g>
	<path class="st0" d="M65.6,64.2H27.4c-2.3,0-4.2-1.9-4.2-4.2v-1.3c0-2.3,1.9-4.2,4.2-4.2h38.2c2.3,0,4.2,1.9,4.2,4.2v1.3   C69.8,62.3,67.9,64.2,65.6,64.2z"/>
	<g>
		<ellipse class="st4" cx="118.1" cy="96.4" rx="5.1" ry="5.1"/>
		<ellipse class="st4" cx="131.2" cy="61.5" rx="5.7" ry="5.7"/>
		<ellipse class="st4" cx="113.7" cy="20.1" rx="5.7" ry="5.7"/>
		<polyline class="st5" points="118.1,91.3 118.1,69.7 94.6,56.9 94.6,29.7 107.7,23   "/>
		<line class="st5" x1="94.6" y1="56.9" x2="81.7" y2="64.5"/>
		<line class="st5" x1="94.6" y1="29.7" x2="86.4" y2="24.6"/>
		<polyline class="st5" points="71.4,81.8 71.4,96.4 94.6,109.9 113.7,98.9   "/>
		<line class="st4" x1="118.1" y1="69.7" x2="126.5" y2="64.5"/>
		<ellipse class="st6" cx="81.5" cy="21.6" rx="1.4" ry="1.4"/>
	</g>
</g>
</svg>