<svg xmlns="http://www.w3.org/2000/svg" xmlns:xlink="http://www.w3.org/1999/xlink" version="1.1" id="Слой_1" x="0px" y="0px" viewBox="0 0 148.6 130" style="enable-background:new 0 0 148.6 130;" xml:space="preserve" width="148.6"  height="130" >
<style type="text/css">
	.st0{fill:none;stroke:#8264FF;stroke-width:3;stroke-linecap:round;stroke-linejoin:round;stroke-miterlimit:10;}
	.st1{fill:#8264FF;}
	.st2{fill:none;stroke:#C1B1FF;stroke-width:3;stroke-linecap:round;stroke-linejoin:round;stroke-miterlimit:10;}
	.st3{fill:none;stroke:#C1B1FF;stroke-width:2;stroke-linecap:round;stroke-linejoin:round;stroke-miterlimit:10;}
	.st4{fill:none;stroke:#8264FF;stroke-width:2;stroke-linecap:round;stroke-linejoin:round;stroke-miterlimit:10;}
</style>
<g>
	<path class="st0" d="M67.3,13v27.5l-34.9,60.2c-6.6,11.4,1.7,25.7,14.9,25.7h69.7c13.2,0,21.5-14.3,14.9-25.7L97.1,40.5V13"/>
	<path class="st0" d="M97.6,12.3H66.9c-2.4,0-4.4-2-4.4-4.4v0c0-2.4,2-4.4,4.4-4.4h30.7c2.4,0,4.4,2,4.4,4.4v0   C102,10.4,100,12.3,97.6,12.3z"/>
	<path class="st1" d="M107.5,85.5H56.9c-3.6,0-6.9,1.9-8.7,5l-5,8.7c-5.2,9,1.3,20.2,11.7,20.2h54.7c10.4,0,16.9-11.2,11.7-20.2   l-5-8.7C114.4,87.4,111.1,85.5,107.5,85.5z"/>
	<path class="st0" d="M43.8,19.7c8.8,10.2,4,28.7,4,28.7s-19,1.8-27.8-8.4s-4-28.7-4-28.7S35,9.4,43.8,19.7z"/>
	<path class="st2" d="M22.4,55.1c9.8-2.9,21.2,6,21.2,6S39,74.9,29.2,77.8S8,71.8,8,71.8S12.5,58.1,22.4,55.1z"/>
	<line class="st0" x1="16" y1="11.2" x2="47.8" y2="48.3"/>
	<line class="st0" x1="28.8" y1="12" x2="28.8" y2="26.1"/>
	<line class="st0" x1="16.9" y1="34.7" x2="34" y2="32.3"/>
	<line class="st2" x1="8.7" y1="72.3" x2="43.6" y2="61.2"/>
	<line class="st2" x1="15.5" y1="59.5" x2="31.9" y2="64.9"/>
	<line class="st2" x1="20.3" y1="77.8" x2="24.6" y2="67.2"/>
	<ellipse class="st3" cx="70.2" cy="69.5" rx="3" ry="3"/>
	<ellipse class="st4" cx="86.5" cy="56.2" rx="4.3" ry="4.3"/>
	<ellipse class="st3" cx="95.1" cy="76.1" rx="3.4" ry="3.4"/>
</g>
</svg>