<svg xmlns="http://www.w3.org/2000/svg" xmlns:xlink="http://www.w3.org/1999/xlink" version="1.1" id="Слой_1" x="0px" y="0px" viewBox="0 0 148.6 130" style="enable-background:new 0 0 148.6 130;" xml:space="preserve" width="148.6"  height="130" >
<style type="text/css">
	.st0{fill:none;stroke:#8264FF;stroke-width:3;stroke-linecap:round;stroke-linejoin:round;stroke-miterlimit:10;}
	.st1{fill:none;stroke:#8264FF;stroke-width:2.5;stroke-linecap:round;stroke-linejoin:round;stroke-miterlimit:10;}
	.st2{fill:none;stroke:#8264FF;stroke-width:3;stroke-miterlimit:10;}
	.st3{fill:#8264FF;}
	.st4{fill:none;stroke:#8264FF;stroke-width:2;stroke-linecap:round;stroke-linejoin:round;stroke-miterlimit:10;}
	.st5{fill:none;stroke:#C1B1FF;stroke-width:3;stroke-linecap:round;stroke-linejoin:round;stroke-miterlimit:10;}
	.st6{fill:none;stroke:#C1B1FF;stroke-width:3;stroke-miterlimit:10;}
	.st7{fill:#C1B1FF;}
</style>
<g>
	<path class="st0" d="M98.7,90.1c-1.2,0-2-0.1-3.2-0.2c-16.3-1.8-29.1-15.6-29.1-32.4c0-17.5,10.7-31.7,30.8-32.6c0.6,0,3.2,0,3.9,0   "/>
	<path class="st1" d="M114.9,50.6v8.3c0,1.4-0.8,2.6-1.7,2.6H107c-0.9,0-1.7-1.1-1.7-2.6v-8.3c1.4,1.1,3,1.8,4.8,1.8   S113.6,51.8,114.9,50.6z"/>
	<g>
		<path class="st2" d="M118.6,16.4v27.5c0,2.9-1.5,5.4-3.7,7c-1.4,1-3,1.5-4.8,1.5s-3.5-0.6-4.8-1.5c-2.2-1.5-3.7-4.1-3.7-7V16.4    c0-2.8,1.3-5.2,3.4-6.8c1.4-1.1,3.2-1.7,5.1-1.7c1.9,0,3.7,0.6,5.1,1.7c0.3,0.2,0.6,0.5,0.9,0.7C117.7,12,118.6,14.1,118.6,16.4z"/>
		<path class="st3" d="M115.2,4.5v4.1c-1.4-1.3-3.2-2.1-5.1-2.1c-1.9,0-3.7,0.8-5.1,2.1V4.5c0-1.2,0.8-2.2,1.8-2.2h6.6    C114.4,2.4,115.2,3.3,115.2,4.5z"/>
	</g>
	<line class="st4" x1="91.8" y1="72.7" x2="130.4" y2="72.7"/>
	<g>
		<path class="st2" d="M123.4,89.7v14.4c0,1.5-0.3,2.9-0.7,4.2c-1.7,4.7-6.3,8.2-11.6,8.2c-5.3,0-9.9-3.4-11.6-8.2    c-0.5-1.3-0.7-2.7-0.7-4.2l0-14.4c0-6.8,5.5-12.3,12.3-12.3c3.4,0,6.5,1.4,8.7,3.6C122.1,83.2,123.4,86.3,123.4,89.7z"/>
		<path class="st0" d="M145.3,127.1L145.3,127.1l-68.4,0v0c0-5.9,4.8-10.7,10.8-10.7h2.6c0-2.2,0.9-4.3,2.4-5.8    c1.5-1.5,3.5-2.4,5.8-2.4h1c1.7,4.7,6.3,8.2,11.6,8.2c5.3,0,9.9-3.4,11.6-8.2h1c4.5,0,8.2,3.7,8.2,8.2h2.7    C140.5,116.4,145.3,121.2,145.3,127.1z"/>
		<path class="st5" d="M105.7,90.1c0-3,2.4-5.3,5.4-5.3c3,0,5.4,2.4,5.4,5.3"/>
	</g>
	<ellipse class="st6" cx="23.9" cy="102.2" rx="5.4" ry="5.3"/>
	<ellipse class="st6" cx="10.2" cy="65.5" rx="6" ry="6"/>
	<ellipse class="st6" cx="28.6" cy="21.9" rx="6" ry="6"/>
	<polyline class="st5" points="23.9,96.9 23.9,74.1 48.6,60.6 48.6,32.1 34.8,24.9  "/>
	<line class="st5" x1="48.6" y1="60.6" x2="62.2" y2="68.6"/>
	<polyline class="st5" points="66.6,20.8 71.5,17.8 81,23.2  "/>
	<line class="st5" x1="48.6" y1="32.1" x2="57.3" y2="26.6"/>
	<polyline class="st5" points="73.1,86.8 73.1,102.2 48.6,116.4 28.6,104.9  "/>
	<line class="st6" x1="23.9" y1="74.1" x2="15.1" y2="68.6"/>
	<ellipse class="st7" cx="62.4" cy="23.5" rx="1.5" ry="1.5"/>
</g>
</svg>