<svg xmlns="http://www.w3.org/2000/svg" xmlns:xlink="http://www.w3.org/1999/xlink" version="1.1" id="Слой_1" x="0px" y="0px" viewBox="0 0 130 130" style="enable-background:new 0 0 130 130;" xml:space="preserve" width="130"  height="130" >
<style type="text/css">
	.st0{fill:none;stroke:#8264FF;stroke-width:2.9577;stroke-linecap:round;stroke-linejoin:round;stroke-miterlimit:10;}
	.st1{fill:none;stroke:#8264FF;stroke-width:2.9577;stroke-linecap:round;stroke-miterlimit:10;}
	.st2{fill:none;stroke:#C1B1FF;stroke-width:2.9577;stroke-linecap:round;stroke-miterlimit:10;}
	.st3{fill:none;stroke:#C1B1FF;stroke-width:1.9718;stroke-linecap:round;stroke-miterlimit:10;}
</style>
<g>
	<g>
		<polyline class="st0" points="94,40.8 109,40.8 113.6,35.5   "/>
		<circle class="st0" cx="116.6" cy="32.3" r="4"/>
	</g>
	<g>
		<polyline class="st0" points="30.4,54.7 15.4,54.7 10.8,49.4   "/>
		<circle class="st0" cx="7.7" cy="46.2" r="4"/>
	</g>
	<g>
		<polyline class="st0" points="38.8,79.4 23.8,79.4 19.2,84.8   "/>
		<circle class="st0" cx="16.2" cy="87.9" r="4"/>
	</g>
	<g>
		<line class="st0" x1="51.3" y1="90.4" x2="45.9" y2="95"/>
		<circle class="st0" cx="42.8" cy="98.1" r="4"/>
	</g>
	<g>
		<line class="st0" x1="84.1" y1="81.2" x2="96.4" y2="92.5"/>
		<circle class="st0" cx="99.5" cy="95.6" r="4"/>
	</g>
	<g>
		<line class="st0" x1="36.5" y1="35.9" x2="24.2" y2="24.5"/>
		<circle class="st0" cx="21.1" cy="21.4" r="4"/>
	</g>
	<g>
		<line class="st0" x1="32.5" y1="48.3" x2="23.3" y2="40"/>
	</g>
	<g>
		<line class="st0" x1="96.9" y1="69.7" x2="119.6" y2="69.7"/>
		<circle class="st0" cx="124" cy="69.8" r="4"/>
	</g>
	<g>
		<line class="st0" x1="85.9" y1="27.1" x2="92.6" y2="19.8"/>
		<circle class="st0" cx="95.7" cy="16.7" r="4"/>
	</g>
	<path class="st1" d="M49.1,27.6C43.7,26.6,37,32,37,37.2c0,3,1.4,5.8,3.7,7.5"/>
	<path class="st2" d="M46.1,47.1"/>
	<path class="st1" d="M39.2,64c-4.7-0.6-8.4-4.6-8.4-9.4c0-4.9,3.8-9,8.6-9.5c0.3,0,0.6,0,0.9,0c2.2,0,4.2,0.7,5.8,2"/>
	<path class="st1" d="M39.2,64c-2.4,1.7-3.9,4.5-3.9,7.7c0,5.2,4.2,9.5,9.5,9.5c1.8,0,3.6-0.5,5-1.4"/>
	<path class="st1" d="M65.7,90c-1.7,2.1-4.4,3.5-7.3,3.5c-5.2,0-9.5-4.2-9.5-9.5c0-1.5,0.4-2.9,1-4.2l0,0"/>
	<path class="st1" d="M90.7,44.7c2.2-1.7,3.7-4.4,3.7-7.5c0-5.2-6.7-10.6-12.2-9.7"/>
	<path class="st2" d="M85.2,47.1"/>
	<path class="st1" d="M85.2,47.1c1.6-1.2,3.6-2,5.8-2c0.3,0,0.6,0,0.9,0c4.8,0.4,8.6,4.5,8.6,9.5c0,4.9-3.7,8.9-8.4,9.4"/>
	<path class="st1" d="M81.5,79.7c1.5,0.9,3.2,1.4,5,1.4c5.2,0,9.5-4.2,9.5-9.5c0-3.2-1.5-6-3.9-7.7"/>
	<path class="st1" d="M81.5,79.7L81.5,79.7c0.6,1.3,1,2.7,1,4.2c0,5.2-4.2,9.5-9.5,9.5c-3,0-5.6-1.4-7.3-3.5"/>
	<path class="st3" d="M59.6,49.7c4-0.2,7.1-6.7,6.9-10.7"/>
	<g>
		<path class="st3" d="M60.4,84.6c2.7-0.3,5.5-3.2,5.3-5.9"/>
		<path class="st3" d="M70.9,84.6c-2.7-0.3-5.5-3.2-5.3-5.9"/>
	</g>
	<g>
		<path class="st3" d="M78.1,60.1c0.2,2,2.4,4.1,4.3,3.9"/>
		<path class="st3" d="M78.1,67.9c0.2-2,2.4-4.1,4.3-3.9"/>
	</g>
	<g>
		<path class="st3" d="M70,22.3c-2,0.2-4.1,2.4-3.9,4.3"/>
		<path class="st3" d="M62.2,22.3c2,0.2,4.1,2.4,3.9,4.3"/>
	</g>
	<path class="st3" d="M66.1,42.4c0.2,3.9,2.6,6,4.4,6"/>
	<path class="st3" d="M68.7,59.4c-2.5,2.6-2.5,6.6,0.1,9.1"/>
	<path class="st3" d="M51.3,68.3c2.5-2.6,2.5-6.6-0.1-9.1"/>
	<path class="st1" d="M59,34.7c-5.2,0-9.5-4.2-9.5-9.5s4.2-9.5,9.5-9.5l0.7,0c0.8,0,1.6,0.3,2.3,0.8c2.2,1.5,5.1,1.5,7.2,0   c0.7-0.5,1.6-0.8,2.5-0.8h0.2c5.1,0,9.5,3.8,9.8,8.9c0.4,5.5-4,10.1-9.5,10.1"/>
	<polyline class="st0" points="32.2,59.8 16.6,59.8 2,74.4  "/>
	<line class="st0" x1="75.6" y1="93" x2="75.6" y2="107.2"/>
	<polyline class="st0" points="94,64.2 108.9,64.2 117.1,56  "/>
	<polyline class="st0" points="70.5,93.4 70.5,111.7 76.2,117.3  "/>
</g>
</svg>