<svg xmlns="http://www.w3.org/2000/svg" xmlns:xlink="http://www.w3.org/1999/xlink" version="1.1" id="Слой_1" x="0px" y="0px" viewBox="0 0 148.6 130" style="enable-background:new 0 0 148.6 130;" xml:space="preserve" width="148.6"  height="130" >
<style type="text/css">
	.st0{fill:none;stroke:#8264FF;stroke-width:2;stroke-linecap:round;stroke-linejoin:round;stroke-miterlimit:10;}
	.st1{fill:none;stroke:#C1B1FF;stroke-width:2;stroke-linecap:round;stroke-linejoin:round;stroke-miterlimit:10;}
	.st2{fill:none;stroke:#8264FF;stroke-width:2;stroke-miterlimit:10;}
	.st3{fill:#C1B1FF;}
	
		.st4{fill-rule:evenodd;clip-rule:evenodd;fill:none;stroke:#8264FF;stroke-width:3;stroke-linecap:round;stroke-linejoin:round;stroke-miterlimit:10;}
	
		.st5{fill-rule:evenodd;clip-rule:evenodd;fill:none;stroke:#8264FF;stroke-width:2;stroke-linecap:round;stroke-linejoin:round;stroke-miterlimit:10;}
	.st6{fill:none;stroke:#C1B1FF;stroke-width:2;stroke-miterlimit:10;}
</style>
<g>
	<g>
		<path class="st0" d="M74.7,41.5v-6.8c0-1,0.8-1.8,1.8-1.8H90c1,0,1.8,0.8,1.8,1.8v15.3h-7"/>
		<line class="st1" x1="58.9" y1="57.7" x2="51.4" y2="57.7"/>
		<line class="st1" x1="60.2" y1="64.4" x2="40.9" y2="64.4"/>
		<line class="st1" x1="45.5" y1="57.7" x2="28.9" y2="57.7"/>
		<polyline class="st0" points="42.6,40.4 55.5,40.4 57.2,48.9 63.2,79.2 97.3,79.2   "/>
		<ellipse class="st2" cx="94.5" cy="87.4" rx="2.7" ry="2.7"/>
		<ellipse class="st2" cx="65.2" cy="87.4" rx="2.7" ry="2.7"/>
		<path class="st1" d="M84.8,43.5v6.6H64.6v-6.6c0-1,0.8-1.8,1.8-1.8H83C84,41.7,84.8,42.5,84.8,43.5z"/>
		<polyline class="st0" points="57.4,50.1 64.6,50.1 74.7,50.1 84.8,50.1 91.8,50.1 97.3,50.1 97.3,64.1 61.9,72.8   "/>
		<line class="st1" x1="68.4" y1="45.9" x2="72.1" y2="45.9"/>
		<ellipse class="st3" cx="65.4" cy="55" rx="1" ry="1"/>
		<ellipse class="st3" cx="73.4" cy="55" rx="1" ry="1"/>
		<ellipse class="st3" cx="81.3" cy="55" rx="1" ry="1"/>
		<ellipse class="st3" cx="89.3" cy="55" rx="1" ry="1"/>
	</g>
	<g>
		<path class="st4" d="M42.1,84.7v31c0,6.1,4.9,11,11,11h19.8h10.6"/>
		<path class="st4" d="M82.7,126.7h19.8c6.1,0,11-4.9,11-11V75.2"/>
		<path class="st4" d="M42.1,28.6V14c0-6.1,4.9-11,11-11h49.4c6.1,0,11,4.9,11,11v84.6"/>
		<line class="st5" x1="42.1" y1="15.9" x2="113.5" y2="15.9"/>
		<line class="st5" x1="42.1" y1="111.1" x2="113.5" y2="111.1"/>
		<line class="st5" x1="74.2" y1="10.1" x2="83.4" y2="10.1"/>
		<line class="st5" x1="67" y1="10.1" x2="63.1" y2="10.1"/>
		<ellipse class="st6" cx="77.8" cy="118.5" rx="3.4" ry="3.3"/>
	</g>
</g>
</svg>