<svg xmlns="http://www.w3.org/2000/svg" xmlns:xlink="http://www.w3.org/1999/xlink" version="1.1" id="Слой_1" x="0px" y="0px" viewBox="0 0 130 130" style="enable-background:new 0 0 130 130;" xml:space="preserve" width="130"  height="130" >
<style type="text/css">
	.st0{fill:none;stroke:#8264FF;stroke-width:3;stroke-miterlimit:10;}
	.st1{fill:none;stroke:#8264FF;stroke-width:2.9202;stroke-miterlimit:10;}
	.st2{fill:none;stroke:#C1B1FF;stroke-width:3.4736;stroke-linecap:round;stroke-linejoin:round;stroke-miterlimit:10;}
	.st3{fill:none;stroke:#8264FF;stroke-width:5;stroke-linecap:round;stroke-linejoin:round;stroke-miterlimit:10;}
	.st4{fill:none;stroke:#8264FF;stroke-width:3;stroke-linecap:round;stroke-linejoin:round;stroke-miterlimit:10;}
	.st5{fill:#C1B1FF;}
</style>
<g>
	<ellipse class="st0" cx="121" cy="40.4" rx="7" ry="7"/>
	<ellipse class="st0" cx="87.3" cy="10.2" rx="7" ry="7"/>
	<ellipse class="st0" cx="41.5" cy="10.2" rx="7" ry="7"/>
	<ellipse class="st0" cx="9" cy="40.4" rx="7" ry="7"/>
	<ellipse class="st0" cx="11.5" cy="87.3" rx="7" ry="7"/>
	<ellipse class="st0" cx="41.5" cy="119.8" rx="7" ry="7"/>
	<ellipse class="st0" cx="88.7" cy="119.8" rx="7" ry="7"/>
	<ellipse class="st0" cx="118" cy="87.3" rx="7" ry="7"/>
	<ellipse class="st1" cx="64.8" cy="62.9" rx="38.1" ry="38"/>
	<path class="st2" d="M28.7,90.3c-0.8-1-1.5-2-2.1-3c-4.6-7.1-7.2-15.4-7.2-24.5c0-10.8,3.9-20.8,10.3-28.6c0.6-0.7,1.2-1.4,1.8-2   c0.9-1,1.9-1.9,2.8-2.8"/>
	<path class="st2" d="M93,98.2c-7.8,6.2-17.6,9.9-28.2,9.9c-11.6,0-22.2-4.4-30.2-11.5"/>
	<path class="st2" d="M99.8,34.3c0.4,0.5,0.7,0.9,1.1,1.4c5.7,7.6,9.2,17,9.2,27.2c0,9.3-2.9,18-7.7,25.2c-0.6,0.9-1.3,1.8-1.9,2.6"/>
	<path class="st2" d="M64.7,17.7c7.8,0,15.2,2,21.6,5.5"/>
	<g>
		<path class="st3" d="M49.4,73c0,5.6,4.6,10.2,10.2,10.2h10.2C75.4,83.2,80,78.6,80,73v0c0-5.6-4.6-10.2-10.2-10.2H59.6    c-5.6,0-10.2-4.6-10.2-10.2v0c0-5.6,4.6-10.2,10.2-10.2h10.2c4.6,0,8.5,3,9.8,7.2c0.3,1,0.5,2,0.5,3.1"/>
		<line class="st3" x1="64.7" y1="35.9" x2="64.7" y2="89.9"/>
	</g>
	<line class="st0" x1="50.3" y1="26.7" x2="44.8" y2="16.3"/>
	<line class="st4" x1="78.8" y1="26.7" x2="84.9" y2="16.7"/>
	<line class="st0" x1="29.1" y1="46.3" x2="15.4" y2="43.3"/>
	<line class="st0" x1="18.3" y1="85.8" x2="29.7" y2="80.4"/>
	<line class="st0" x1="111.1" y1="85.6" x2="99.6" y2="80.6"/>
	<line class="st0" x1="100.3" y1="46.3" x2="114.6" y2="43.3"/>
	<line class="st0" x1="44.7" y1="113.6" x2="51.2" y2="99.4"/>
	<line class="st0" x1="86.6" y1="113.2" x2="80.1" y2="99.4"/>
	<circle class="st5" cx="91.1" cy="26.1" r="1.7"/>
	<circle class="st5" cx="96.4" cy="30.4" r="1.7"/>
</g>
</svg>