<svg xmlns="http://www.w3.org/2000/svg" xmlns:xlink="http://www.w3.org/1999/xlink" version="1.1" id="Слой_1" x="0px" y="0px" viewBox="0 0 148.6 130" style="enable-background:new 0 0 148.6 130;" xml:space="preserve" width="148.6"  height="130" >
<style type="text/css">
	.st0{fill:none;stroke:#C1B1FF;stroke-width:3;stroke-linecap:round;stroke-linejoin:round;stroke-miterlimit:10;}
	.st1{fill:none;stroke:#8264FF;stroke-width:3;stroke-linecap:round;stroke-linejoin:round;stroke-miterlimit:10;}
	.st2{fill:none;stroke:#C1B1FF;stroke-width:2;stroke-linecap:round;stroke-linejoin:round;stroke-miterlimit:10;}
	.st3{fill:none;stroke:#8264FF;stroke-width:2;stroke-linecap:round;stroke-linejoin:round;stroke-miterlimit:10;}
</style>
<g>
	<line class="st0" x1="38.5" y1="55.8" x2="49.9" y2="49.2"/>
	<g>
		<path class="st1" d="M96.5,81.4l20.2,12.9c1.8,1.1,1.8,3.8,0,4.9l-42.9,26.2c-1,0.6-2.2,0.6-3.1-0.1l-27.5-18.2"/>
		<path class="st1" d="M35,101.7L27.8,97c-1.8-1.2-1.7-3.8,0.1-4.9l20.2-11.8"/>
	</g>
	<path class="st0" d="M105.2,76.1L73.8,95.2c-1,0.6-2.2,0.6-3.1-0.1l-43-28.3c-1.8-1.2-1.7-3.8,0.1-4.9l3.4-2"/>
	<path class="st0" d="M94.8,50.2l22,14c1.8,1.1,1.8,3.8,0,4.9l-4,2.5"/>
	<path class="st2" d="M120.6,66.7"/>
	<path class="st2" d="M23.9,64.3"/>
	<path class="st2" d="M72.3,96.2"/>
	<g>
		<path class="st1" d="M27.9,29.7L71,4.6c0.9-0.5,2.1-0.5,3,0.1l42.8,27.3c1.8,1.1,1.8,3.8,0,4.9L73.8,63c-1,0.6-2.2,0.6-3.1-0.1    l-43-28.3C26,33.4,26.1,30.8,27.9,29.7z"/>
		<path class="st2" d="M72.5,35.9"/>
		<polyline class="st3" points="83.6,30.1 89.3,33.7 105.2,43.9   "/>
		<polyline class="st3" points="56.7,12.9 72.7,23.1 72.7,23.1 83.6,30.1   "/>
		<polyline class="st3" points="43.4,26 55.4,33.7 72,44.2 87.9,54.4   "/>
		<line class="st3" x1="39.1" y1="23.2" x2="43.4" y2="26"/>
		<polyline class="st3" points="56.6,53.6 72,44.2 89.3,33.7 104.7,24.3   "/>
		<polyline class="st3" points="40.3,42.9 55.4,33.7 72.7,23.1 72.7,23.1 88.1,13.7   "/>
	</g>
	<g>
		<line class="st2" x1="85.4" y1="109.6" x2="96.9" y2="102.6"/>
		<line class="st2" x1="71.3" y1="118.2" x2="76.3" y2="115.1"/>
		<line class="st2" x1="89" y1="100.8" x2="91.3" y2="99.4"/>
		<line class="st2" x1="65.7" y1="115" x2="84.9" y2="103.3"/>
		<line class="st2" x1="60.2" y1="111.8" x2="85.8" y2="96.2"/>
	</g>
	<polyline class="st0" points="47.7,64 72.5,79.1 96.3,64.5  "/>
	<polyline class="st0" points="122.3,4.2 134.3,4.2 134.3,15.4  "/>
	<polyline class="st0" points="21.9,124.8 9.9,124.8 9.9,113.6  "/>
</g>
</svg>