<svg xmlns="http://www.w3.org/2000/svg" xmlns:xlink="http://www.w3.org/1999/xlink" version="1.1" id="Слой_1" x="0px" y="0px" viewBox="0 0 148.6 130" style="enable-background:new 0 0 148.6 130;" xml:space="preserve" width="148.6"  height="130" >
<style type="text/css">
	.st0{fill:#8264FF;}
	.st1{fill:none;stroke:#8264FF;stroke-width:3;stroke-miterlimit:10;}
	.st2{fill:none;stroke:#8264FF;stroke-width:3;stroke-linecap:round;stroke-linejoin:round;stroke-miterlimit:10;}
	.st3{fill:none;stroke:#C1B1FF;stroke-width:3;stroke-linecap:round;stroke-linejoin:round;stroke-miterlimit:10;}
	.st4{fill:none;stroke:#C1B1FF;stroke-width:3;stroke-linejoin:round;stroke-miterlimit:10;}
	.st5{fill:none;stroke:#8264FF;stroke-width:3;stroke-linejoin:round;stroke-miterlimit:10;}
	.st6{fill:none;stroke:#C1B1FF;stroke-width:3;stroke-miterlimit:10;}
	.st7{fill:#C1B1FF;}
</style>
<g>
	<g>
		<ellipse class="st0" cx="82.6" cy="91" rx="2.2" ry="2.2"/>
		<ellipse class="st0" cx="97.9" cy="75.7" rx="2.2" ry="2.2"/>
		<ellipse class="st0" cx="90.2" cy="83.4" rx="2.2" ry="2.2"/>
	</g>
	<g>
		<ellipse class="st0" cx="46" cy="54.6" rx="2.2" ry="2.2"/>
		<ellipse class="st0" cx="61.4" cy="39.3" rx="2.2" ry="2.2"/>
		<ellipse class="st0" cx="53.7" cy="47" rx="2.2" ry="2.2"/>
	</g>
	<line class="st1" x1="91.8" y1="16.1" x2="81.7" y2="26.1"/>
	<line class="st2" x1="33.4" y1="55.3" x2="21.1" y2="43"/>
	<polyline class="st3" points="112,75.8 121.1,84.9 135.2,70.9  "/>
	<g>
		<line class="st2" x1="103.1" y1="45.5" x2="110.4" y2="38.3"/>
	</g>
	<polyline class="st4" points="40.2,81.6 21.4,100.3 30.1,109  "/>
	<line class="st3" x1="35" y1="26.7" x2="48.3" y2="39.9"/>
	<line class="st5" x1="96.9" y1="88.4" x2="106.3" y2="97.7"/>
	<g>
		<path class="st2" d="M59,56.3"/>
	</g>
	<path class="st2" d="M67.2,108.7L28.2,69.8c-2.6-2.6-2.6-6.7,0-9.3l39.1-38.9c2.6-2.6,6.7-2.6,9.3,0l39.1,38.9   c2.6,2.6,2.6,6.7,0,9.3l-39.1,38.9C74,111.3,69.8,111.3,67.2,108.7z"/>
	<g>
		<path class="st3" d="M85.8,54.6l8.2,8.2c1.3,1.3,1.3,3.4,0,4.7L83.3,78.2"/>
		<path class="st3" d="M77.5,84l-3.2,3.2c-1.3,1.3-3.4,1.3-4.7,0L49.8,67.5c-1.3-1.3-1.3-3.4,0-4.7L69.5,43c1.3-1.3,3.4-1.3,4.7,0    l3.9,3.8"/>
	</g>
	
		<ellipse transform="matrix(0.4305 -0.9026 0.9026 0.4305 -29.2834 158.6137)" class="st1" cx="111.1" cy="102.5" rx="5.3" ry="5.3"/>
	<ellipse transform="matrix(0.4305 -0.9026 0.9026 0.4305 -82.5237 94.8285)" class="st6" cx="33.9" cy="112.8" rx="5.3" ry="5.3"/>
	<ellipse transform="matrix(0.4305 -0.9026 0.9026 0.4305 43.3219 93.2528)" class="st1" cx="95.6" cy="12.3" rx="5.3" ry="5.3"/>
	<ellipse transform="matrix(0.4305 -0.9026 0.9026 0.4305 33.927 135.0247)" class="st1" cx="124" cy="40.6" rx="5.3" ry="5.3"/>
	<ellipse transform="matrix(0.4305 -0.9026 0.9026 0.4305 -2.8853 41.242)" class="st6" cx="31.2" cy="22.9" rx="5.3" ry="5.3"/>
	<line class="st2" x1="52.6" y1="15.7" x2="62.9" y2="25.9"/>
	<polyline class="st2" points="31.8,74.2 20.1,85.8 12.8,78.6  "/>
	<polyline class="st2" points="60.7,102.2 50.5,112.3 61.3,123  "/>
	<line class="st1" x1="120.2" y1="44.4" x2="109.8" y2="54.7"/>
	<g>
		<line class="st2" x1="90.9" y1="33.4" x2="96.1" y2="28.2"/>
	</g>
	<line class="st2" x1="84.2" y1="103.8" x2="92.2" y2="111.8"/>
	<ellipse class="st0" cx="15.3" cy="36.9" rx="2.2" ry="2.2"/>
	<ellipse class="st0" cx="6.3" cy="71.7" rx="2.2" ry="2.2"/>
	<ellipse class="st0" cx="98.3" cy="117.6" rx="2.2" ry="2.2"/>
	<ellipse class="st7" cx="141" cy="65.1" rx="2.2" ry="2.2"/>
</g>
</svg>