<svg xmlns="http://www.w3.org/2000/svg" xmlns:xlink="http://www.w3.org/1999/xlink" version="1.1" id="Слой_1" x="0px" y="0px" viewBox="0 0 148.6 130" style="enable-background:new 0 0 148.6 130;" xml:space="preserve" width="148.6"  height="130" >
<style type="text/css">
	.st0{fill:none;stroke:#C1B1FF;stroke-width:3;stroke-linecap:round;stroke-linejoin:round;stroke-miterlimit:10;}
	.st1{fill:none;stroke:#8264FF;stroke-width:3;stroke-linecap:round;stroke-linejoin:round;stroke-miterlimit:10;}
	.st2{fill:#C1B1FF;}
	.st3{fill:none;stroke:#8264FF;stroke-width:3.2507;stroke-linecap:round;stroke-linejoin:round;stroke-miterlimit:10;}
</style>
<g>
	<path class="st0" d="M99.4,21.9c5.7,0,10.3,3.1,10.3,8.4"/>
	<path class="st0" d="M124.8,44.2c1.8,1.3,3.3,3,4.4,4.9c1.3,2.2,2,4.7,2,7.4"/>
	<path class="st0" d="M115,41.1c1.5,0,2.9,0.2,4.2,0.5"/>
	<polyline class="st1" points="77.9,102.8 77.9,60 77.9,55.5  "/>
	<ellipse class="st1" cx="77.9" cy="109.6" rx="5.7" ry="5.7"/>
	<ellipse class="st1" cx="49" cy="121.5" rx="5.7" ry="5.7"/>
	<polyline class="st1" points="51.8,115.4 59.7,102.6 59.7,72.3 59.7,61.4  "/>
	<ellipse class="st1" cx="27.8" cy="106.5" rx="5.7" ry="5.7"/>
	<polyline class="st1" points="41.5,61.4 41.5,72.3 41.5,92.7 32.7,102.8  "/>
	<ellipse class="st1" cx="128" cy="106.5" rx="5.7" ry="5.7"/>
	<polyline class="st1" points="114.3,61.4 114.3,72.3 114.3,92.7 123.1,102.8  "/>
	<ellipse class="st1" cx="106.2" cy="121.5" rx="5.7" ry="5.7"/>
	<polyline class="st1" points="104,115.4 96.1,102.6 96.1,72.3 96.1,61.4  "/>
	<ellipse class="st2" cx="77.9" cy="109.6" rx="1.8" ry="1.8"/>
	<ellipse class="st2" cx="49" cy="121.5" rx="1.8" ry="1.8"/>
	<ellipse class="st2" cx="27.8" cy="106.5" rx="1.8" ry="1.8"/>
	<ellipse class="st2" cx="106.2" cy="121.5" rx="1.8" ry="1.8"/>
	<ellipse class="st2" cx="128" cy="106.5" rx="1.8" ry="1.8"/>
	<path class="st3" d="M137.6,52.5v1c0,10.8-9.6,19.7-21.3,19.7H39.5c-11.7,0-21.3-8.9-21.3-19.7v-1c0-10.8,9.6-19.7,21.3-19.7h0.7   C40.1,31.9,40,30.9,40,30c0-15,13.5-27.2,30-27.2c10.9,0,20.4,5.2,25.7,13.1c2-0.9,4.3-1.5,6.7-1.5c7.9,0,14.2,5.5,14.2,12.3   c0,2.2-0.7,4.3-1.8,6h1.4C128,32.8,137.6,41.6,137.6,52.5z"/>
</g>
</svg>