<svg xmlns="http://www.w3.org/2000/svg" xmlns:xlink="http://www.w3.org/1999/xlink" version="1.1" id="Слой_1" x="0px" y="0px" viewBox="0 0 148.6 130" style="enable-background:new 0 0 148.6 130;" xml:space="preserve" width="148.6"  height="130" >
<style type="text/css">
	.st0{fill:none;stroke:#C1B1FF;stroke-width:2;stroke-linecap:round;stroke-linejoin:round;stroke-miterlimit:10;}
	.st1{fill:none;stroke:#8264FF;stroke-width:3;stroke-linecap:round;stroke-linejoin:round;stroke-miterlimit:10;}
	.st2{fill:none;stroke:#8264FF;stroke-linecap:round;stroke-linejoin:round;stroke-miterlimit:10;}
	.st3{fill:none;stroke:#8264FF;stroke-width:2;stroke-linecap:round;stroke-linejoin:round;stroke-miterlimit:10;}
</style>
<g>
	<line class="st0" x1="75.4" y1="110.7" x2="75.4" y2="83.9"/>
	<line class="st0" x1="75.4" y1="40.9" x2="75.4" y2="19.1"/>
	<polyline class="st0" points="104.8,81.5 114.4,86.9 114.4,86.9  "/>
	<polyline class="st0" points="54.2,52.6 35.1,41.7 35.1,41.7  "/>
	<polyline class="st0" points="34.7,87.3 34.7,87.3 45.6,81.2  "/>
	<polyline class="st0" points="114.4,42.7 114.4,42.7 97.1,52.3  "/>
	<path class="st1" d="M109.7,71.1v0.6c0,6.7-5.5,12.2-12.2,12.2H53.2c-6.7,0-12.2-5.5-12.2-12.2v-0.6c0-6.7,5.5-12.2,12.2-12.2h0.4   c-0.1-0.6-0.1-1.1-0.1-1.7c0-9.3,7.7-16.9,17.3-16.9c6.3,0,11.8,3.3,14.8,8.1c1.2-0.6,2.5-0.9,3.9-0.9c4.5,0,8.2,3.4,8.2,7.6   c0,1.4-0.4,2.6-1.1,3.7h0.8C104.2,58.9,109.7,64.4,109.7,71.1z"/>
	<line class="st0" x1="28" y1="83.9" x2="28" y2="45.7"/>
	<line class="st0" x1="113.7" y1="96.2" x2="82.4" y2="114.7"/>
	<line class="st0" x1="120.8" y1="51.6" x2="120.8" y2="45.7"/>
	<line class="st0" x1="120.8" y1="64" x2="120.8" y2="60.1"/>
	<line class="st0" x1="120.8" y1="83.9" x2="120.8" y2="71.9"/>
	<line class="st0" x1="44" y1="101.1" x2="35.1" y2="96.1"/>
	<line class="st0" x1="54.5" y1="107" x2="50.7" y2="104.9"/>
	<line class="st0" x1="68.2" y1="114.8" x2="60.3" y2="110.3"/>
	<line class="st0" x1="68.2" y1="15" x2="35.2" y2="33.6"/>
	<line class="st0" x1="113.7" y1="33.5" x2="82.4" y2="15.1"/>
	<ellipse class="st1" cx="120.8" cy="37.6" rx="8.2" ry="8.2"/>
	<ellipse class="st1" cx="75.4" cy="11" rx="8.2" ry="8.2"/>
	<ellipse class="st1" cx="28" cy="37.6" rx="8.2" ry="8.2"/>
	<ellipse class="st1" cx="28" cy="92" rx="8.2" ry="8.2"/>
	<ellipse class="st1" cx="75.4" cy="118.8" rx="8.2" ry="8.2"/>
	<ellipse class="st1" cx="120.8" cy="92" rx="8.2" ry="8.2"/>
	<g>
		<rect x="73.4" y="62.4" class="st2" width="4.5" height="4.4"/>
		<line class="st0" x1="86.6" y1="61.3" x2="82.9" y2="61.3"/>
		<line class="st0" x1="86.6" y1="64.6" x2="82.9" y2="64.6"/>
		<line class="st0" x1="67.9" y1="66.1" x2="64.2" y2="66.1"/>
		<line class="st0" x1="67.9" y1="69.4" x2="64.2" y2="69.4"/>
		<line class="st0" x1="73.9" y1="71.6" x2="73.9" y2="75.3"/>
		<line class="st0" x1="77.2" y1="71.6" x2="77.2" y2="75.3"/>
		<line class="st0" x1="73.9" y1="53.4" x2="73.9" y2="57.1"/>
		<line class="st0" x1="77.2" y1="53.4" x2="77.2" y2="57.1"/>
		<rect x="68.6" y="57.6" class="st3" width="14" height="14"/>
	</g>
</g>
</svg>