<svg xmlns="http://www.w3.org/2000/svg" xmlns:xlink="http://www.w3.org/1999/xlink" version="1.1" x="0px" y="0px" viewBox="0 0 300 300" style="enable-background:new 0 0 300 300;" xml:space="preserve" width="300"  height="300" >
<style type="text/css">
	.st0{display:none;}
	.st1{display:inline;}
	.st2{fill:#C1B1FF;}
	.st3{fill:none;stroke:#C1B1FF;stroke-width:1.9767;stroke-linecap:round;stroke-linejoin:round;stroke-miterlimit:10;}
	.st4{fill:none;stroke:#8264FF;stroke-width:3.3212;stroke-miterlimit:10;}
	.st5{fill:none;stroke:#8264FF;stroke-width:2.9651;stroke-miterlimit:10;}
	.st6{fill:none;stroke:#8264FF;stroke-width:1.9767;stroke-linecap:round;stroke-linejoin:round;stroke-miterlimit:10;}
	.st7{fill:none;stroke:#8264FF;stroke-width:2.9651;stroke-linecap:round;stroke-linejoin:round;stroke-miterlimit:10;}
	.st8{fill:#8264FF;}
	.st9{fill:none;stroke:#C1B1FF;stroke-width:2.1911;stroke-linecap:round;stroke-linejoin:round;stroke-miterlimit:10;}
	.st10{fill:none;stroke:#C1B1FF;stroke-width:3;stroke-linecap:round;stroke-miterlimit:10;}
	.st11{fill:none;stroke:#8264FF;stroke-width:3;stroke-linecap:round;stroke-linejoin:round;stroke-miterlimit:10;}
	.st12{fill:none;stroke:#C1B1FF;stroke-width:3;stroke-miterlimit:10;}
	.st13{fill:none;stroke:#8264FF;stroke-width:3;stroke-miterlimit:10;}
	.st14{fill:none;stroke:#8264FF;stroke-width:2.3453;stroke-linecap:round;stroke-linejoin:round;stroke-miterlimit:10;}
	.st15{fill:none;stroke:#8264FF;stroke-width:0.25;stroke-linecap:round;stroke-linejoin:round;stroke-miterlimit:10;}
	.st16{fill:none;stroke:#C1B1FF;stroke-width:3.0291;stroke-linecap:round;stroke-linejoin:round;stroke-miterlimit:10;}
	.st17{fill:none;stroke:#C1B1FF;stroke-width:3.0654;stroke-linecap:round;stroke-linejoin:round;stroke-miterlimit:10;}
	.st18{fill:none;stroke:#C1B1FF;stroke-width:3;stroke-linecap:round;stroke-linejoin:round;stroke-miterlimit:10;}
	.st19{fill:none;stroke:#8264FF;stroke-width:4;stroke-linecap:round;stroke-linejoin:round;stroke-miterlimit:10;}
	.st20{fill:#C1B1FF;stroke:#8264FF;stroke-width:3;stroke-miterlimit:10;}
	.st21{fill:none;stroke:#C1B1FF;stroke-width:3.0522;stroke-linecap:round;stroke-miterlimit:10;}
	.st22{fill:none;stroke:#8264FF;stroke-width:2.6001;stroke-linecap:round;stroke-linejoin:round;stroke-miterlimit:10;}
	.st23{fill:none;stroke:#8264FF;stroke-width:2.9029;stroke-linecap:round;stroke-linejoin:round;stroke-miterlimit:10;}
	.st24{fill:#FFFFFF;stroke:#8264FF;stroke-width:3;stroke-miterlimit:10;}
	.st25{fill:none;stroke:#8264FF;stroke-width:3;stroke-linecap:round;stroke-miterlimit:10;}
	.st26{fill:none;}
	.st27{fill:none;stroke:#C1B1FF;stroke-width:2;stroke-linecap:round;stroke-miterlimit:10;}
	.st28{fill:none;stroke:#C1B1FF;stroke-width:2;stroke-linecap:round;stroke-linejoin:round;stroke-miterlimit:10;}
	.st29{fill:none;stroke:#8264FF;stroke-width:2;stroke-linecap:round;stroke-miterlimit:10;}
	.st30{fill:none;stroke:#8264FF;stroke-width:2;stroke-linecap:round;stroke-linejoin:round;stroke-miterlimit:10;}
	.st31{fill:none;stroke:#8264FF;stroke-width:2.9202;stroke-miterlimit:10;}
	.st32{fill:none;stroke:#C1B1FF;stroke-width:3.4736;stroke-linecap:round;stroke-linejoin:round;stroke-miterlimit:10;}
	.st33{fill:none;stroke:#8264FF;stroke-width:5;stroke-linecap:round;stroke-linejoin:round;stroke-miterlimit:10;}
	.st34{fill:none;stroke:#C1B1FF;stroke-width:2.9926;stroke-linecap:round;stroke-linejoin:round;stroke-miterlimit:10;}
	.st35{fill:none;stroke:#8264FF;stroke-width:2.9926;stroke-linecap:round;stroke-linejoin:round;stroke-miterlimit:10;}
	
		.st36{fill-rule:evenodd;clip-rule:evenodd;fill:none;stroke:#8264FF;stroke-width:3;stroke-linecap:round;stroke-linejoin:round;stroke-miterlimit:10;}
	
		.st37{fill-rule:evenodd;clip-rule:evenodd;fill:none;stroke:#8264FF;stroke-width:2;stroke-linecap:round;stroke-linejoin:round;stroke-miterlimit:10;}
	.st38{fill:none;stroke:#C1B1FF;stroke-width:2;stroke-miterlimit:10;}
	.st39{fill:#EAEBEF;stroke:#8264FF;stroke-width:3;stroke-linecap:round;stroke-linejoin:round;stroke-miterlimit:10;}
	.st40{fill:none;stroke:#8264FF;stroke-width:3.1977;stroke-linecap:round;stroke-linejoin:round;stroke-miterlimit:10;}
	.st41{fill:none;stroke:#8264FF;stroke-width:3.0804;stroke-linecap:round;stroke-linejoin:round;stroke-miterlimit:10;}
	.st42{fill:none;stroke:#8264FF;stroke-width:3.387;stroke-linecap:round;stroke-linejoin:round;stroke-miterlimit:10;}
	.st43{fill:none;stroke:#8264FF;stroke-width:3.387;stroke-linecap:round;stroke-miterlimit:10;}
	.st44{fill:none;stroke:#C1B1FF;stroke-width:3.387;stroke-linecap:round;stroke-miterlimit:10;}
	.st45{fill:none;stroke:#C1B1FF;stroke-width:2.258;stroke-linecap:round;stroke-miterlimit:10;}
</style>
<g id="Layer_1" class="st0">
	<g class="st1">
		<path class="st2" d="M146.4,110.3V86.5h-1.6c-1.1,0-2.1,0.8-2.3,1.9l-0.9,4.7c-0.4,2-1.9,3.4-3.9,3.8c-1.6,0.3-3.2,0.7-4.8,1.2    c-1.9,0.6-4,0.2-5.3-1.3l-3.1-3.6c-0.8-0.9-2-1.1-3-0.5l-2.8,1.6c-1,0.6-1.4,1.8-1,2.9l1.6,4.5c0.7,1.9,0,3.9-1.5,5.2    c-1.2,1.1-2.4,2.3-3.5,3.5c-1.3,1.5-3.4,2.1-5.2,1.4l-4.5-1.6c-1.1-0.4-2.3,0.1-2.8,1.1l-1.6,2.7c-0.6,1-0.4,2.2,0.5,3l3.6,3.1    c1.5,1.3,2,3.4,1.4,5.3c-0.5,1.6-0.9,3.2-1.2,4.8c-0.4,1.9-1.8,3.5-3.8,3.9l-4.7,0.9c-1.1,0.2-1.9,1.2-1.9,2.3v3.2    c0,1.1,0.8,2.1,1.9,2.3l4.7,0.9c2,0.4,3.4,1.9,3.8,3.9c0.3,1.6,0.7,3.2,1.2,4.8c0.6,1.9,0.2,4-1.4,5.3l-3.6,3.1    c-0.9,0.8-1.1,2-0.5,3l1.6,2.7c0.6,1,1.8,1.5,2.9,1.1l4.5-1.6c1.9-0.7,3.9,0,5.2,1.5c1.1,1.2,2.3,2.4,3.5,3.5    c1.5,1.3,2.1,3.3,1.5,5.2l-1.6,4.5c-0.4,1.1,0.1,2.3,1,2.8l2.8,1.6c1,0.6,2.3,0.4,3-0.5l3.1-3.6c1.3-1.5,3.4-2,5.3-1.3    c1.5,0.5,3.1,0.9,4.8,1.2c1.9,0.4,3.5,1.8,3.9,3.8l0.9,4.7c0.2,1.1,1.2,1.9,2.3,1.9h1.6v-23.8c-15.8,0-28.6-12.8-28.6-28.6    S130.6,110.3,146.4,110.3z"/>
		<line class="st3" x1="107.6" y1="247.5" x2="165.9" y2="247.5"/>
		<path class="st4" d="M176.3,284h-52.6c-1.5,0-2.7-1.5-2.7-3.4v-11.9c0-1.9,1.2-3.4,2.7-3.4h52.6c1.5,0,2.7,1.5,2.7,3.4v11.9    C179,282.5,177.8,284,176.3,284z"/>
		<polyline class="st5" points="149.2,231.6 149.2,196.5 149.2,171.9 149.2,112.8 149.2,88.3 149.2,53.6   "/>
		<path class="st5" d="M181.7,159.9h-31.5c-0.5,0-0.9-0.4-0.9-0.9v-40.1c0-0.5,0.4-0.9,0.9-0.9h31.5c0.5,0,0.9,0.4,0.9,0.9v40.1    C182.6,159.5,182.2,159.9,181.7,159.9z"/>
		<path class="st5" d="M191,263.3h-81.8c-1.6,0-2.8-1.3-2.8-2.8v-26.1c0-1.6,1.3-2.8,2.8-2.8H191c1.6,0,2.8,1.3,2.8,2.8v26.1    C193.9,262.1,192.6,263.3,191,263.3z"/>
		<circle class="st6" cx="169.8" cy="87.4" r="6.6"/>
		<circle class="st6" cx="216.4" cy="147.1" r="6.6"/>
		<line class="st6" x1="209.2" y1="147.1" x2="183.3" y2="147.1"/>
		<polyline class="st6" points="183,128.2 197.7,128.2 197.7,112.5   "/>
		<line class="st6" x1="169.8" y1="94" x2="169.8" y2="117.9"/>
		<polyline class="st6" points="163.2,159.9 163.2,171.1 176.4,171.1 176.4,183.1   "/>
		<path class="st7" d="M230.4,158.3c0.4-1.5,0.7-3,1-4.6c0.9-5,1.4-10.2,1.4-15.5c0-18-5.7-34.7-15.5-48.3c-1.7-2.3-3.4-4.5-5.3-6.7    c-2-2.3-4.1-4.4-6.4-6.4c-1.1-1-2.3-2-3.5-3c-2.5-2-5.1-3.9-7.8-5.6c-1.7-1.1-3.4-2.1-5.2-3c-2.6-1.4-5.2-2.6-7.9-3.7    c-1.9-0.8-3.8-1.5-5.7-2.1c-2.8-0.9-5.6-1.7-8.4-2.3c-2-0.4-4-0.8-6.1-1.1c-3.7-0.5-7.4-0.7-11.2-0.7c-45.8,0-83,37.2-83,83    c0,32.2,18.3,60.1,45,73.8l-0.6-0.3c0,0,10.4,4.5,10.4,11.7v8.2"/>
		<circle class="st8" cx="226.1" cy="170.8" r="3.1"/>
		<circle class="st8" cx="219.1" cy="183.8" r="3.1"/>
		<circle class="st8" cx="209.4" cy="196" r="3.1"/>
		<circle class="st8" cx="198.3" cy="205.6" r="3.1"/>
		<circle class="st8" cx="186.3" cy="212.8" r="3.1"/>
		<circle class="st3" cx="197.7" cy="105.1" r="6.6"/>
		<circle class="st3" cx="176.4" cy="190.4" r="6.6"/>
		<line class="st9" x1="149.8" y1="36.2" x2="149.8" y2="16"/>
		<line class="st9" x1="174" y1="39" x2="178.5" y2="19.3"/>
		<line class="st9" x1="201" y1="49.4" x2="210.7" y2="31.7"/>
		<line class="st9" x1="224.3" y1="66.8" x2="238.4" y2="52.4"/>
		<line class="st9" x1="241.9" y1="89.8" x2="259.3" y2="79.8"/>
		<line class="st9" x1="252.5" y1="116.8" x2="272.1" y2="111.9"/>
		<line class="st9" x1="255.5" y1="145.6" x2="275.6" y2="146.2"/>
		<line class="st9" x1="250.4" y1="174.2" x2="269.6" y2="180.3"/>
		<line class="st9" x1="237.8" y1="200.3" x2="254.7" y2="211.4"/>
		<line class="st9" x1="218.6" y1="222" x2="231.8" y2="237.2"/>
		<line class="st9" x1="84.4" y1="224.5" x2="72" y2="240.4"/>
		<line class="st9" x1="64.3" y1="203.6" x2="48.1" y2="215.5"/>
		<line class="st9" x1="50.7" y1="178" x2="31.9" y2="185"/>
		<line class="st9" x1="44.6" y1="149.6" x2="24.6" y2="151.2"/>
		<line class="st9" x1="46.5" y1="120.7" x2="26.7" y2="116.8"/>
		<line class="st9" x1="56.1" y1="93.3" x2="38.1" y2="84.2"/>
		<line class="st9" x1="72.8" y1="69.6" x2="58" y2="56"/>
		<line class="st9" x1="95.3" y1="51.4" x2="84.8" y2="34.2"/>
		<line class="st9" x1="122" y1="39.9" x2="116.5" y2="20.5"/>
		<line class="st9" x1="150.7" y1="36.2" x2="150.8" y2="16"/>
	</g>
</g>
<g id="Layer_2" class="st0">
	<g class="st1">
		<path class="st10" d="M108.5,140.5c-1.9-8.7-10.5-14.2-19.2-12.3"/>
		<path class="st10" d="M196.3,71.2c-1.9-8.7-10.5-14.2-19.2-12.3"/>
		<line class="st11" x1="103.3" y1="266.2" x2="138.4" y2="266.2"/>
		<g>
			<polyline class="st11" points="117.9,48.9 95.8,23.9 80,24    "/>
			<circle class="st11" cx="70.3" cy="23.6" r="9"/>
		</g>
		<ellipse class="st12" cx="103.3" cy="176" rx="16.1" ry="16.1"/>
		<path class="st10" d="M159.9,108c-7-1.5-11.5-8.5-9.9-15.6c1.5-7.1,8.5-11.5,15.5-10"/>
		<path class="st10" d="M101.5,91.1c3.4,6,10.9,7.1,17,3.7c6-3.4,4.4-9.2,4.9-16.1c1.3-15.9,22.1-12.1,22.1-12.1"/>
		<ellipse class="st13" cx="103.3" cy="176" rx="31.8" ry="31.7"/>
		<g>
			<line class="st11" x1="76.1" y1="71.4" x2="38.8" y2="71.6"/>
			<circle class="st11" cx="29.1" cy="71.2" r="9"/>
		</g>
		<g>
			<line class="st11" x1="68" y1="122.6" x2="46" y2="122.7"/>
			<circle class="st11" cx="36.3" cy="122.3" r="9"/>
		</g>
		<line class="st11" x1="129.2" y1="138.9" x2="120.1" y2="147.5"/>
		<path class="st11" d="M73.6,156.4c0,0-27.5-34.2,15.2-47.7c0,0-10.1-9.2-12-22c-2.2-14.8,4-40.5,45.8-34.9c0,0,3.3-10.5,10.3-15.4    c4.9-3.4,10.5-5.4,14.6-5.9c2.9-0.3,8.4-0.2,12.2,1.2c4.6,1.8,8.7,4.6,15,10.2c0,0,25.1-17.5,45.8,11.6l-78.9,73.8"/>
		<polyline class="st11" points="103.3,207.6 103.3,285.6 193.4,286 193.4,268.8   "/>
		<path class="st11" d="M132.3,163.1c0,0,36.7-13.8,36.7,57.8c0,0,69.7,23.7,80.1,23.7c10.3,0,11.5-7.3,11.5-7.3v-35.2v-4.9    c0,0,18.2-4.2,19.4-9.1c1.2-4.9-30.3-41.2-27.3-51.6c2.8-9.4,8-55.2-32-83.1"/>
		<path class="st11" d="M250.1,137h-15.6l-4.9-12.1c0,0-43.5,7.1-58.3,24.2h-47.8"/>
		<circle class="st14" cx="224.3" cy="149" r="7"/>
		<path class="st11" d="M105.2,229.9h24.3c4.8,0,8.7,4.3,8.7,9.5c0,5.3-3.9,9.5-8.7,9.5h-24"/>
		<path class="st15" d="M140.3,283.7"/>
		<path class="st15" d="M140.3,240.6"/>
	</g>
</g>
<g id="Layer_3" class="st0">
	<g class="st1">
		<line class="st16" x1="134" y1="263.3" x2="56.7" y2="263.3"/>
		<g>
			<g>
				<path class="st2" d="M122.1,192.1c-7.3,9.6-16,17.8-25.4,25.3c-9,7.2-18.7,13.4-27,21.5c-7.4,7.2-14.5,15.8-19.1,25.1      c-3.8,7.6-3.9,15.6-3.9,24c0,2.5,3.8,2.5,3.8,0c0-9.3,0.4-17.4,5.3-25.6c5.7-9.5,13-18,21.4-25.2c8.3-7.2,17.6-13.1,26-20.2      c8.2-6.8,15.6-14.4,22.1-22.9C126.9,192.1,123.6,190.2,122.1,192.1L122.1,192.1z"/>
			</g>
		</g>
		<g>
			<g>
				<path class="st2" d="M94.8,79.7c9.2,8,18.5,15.9,26.6,25c1.6,1.8,4.4-0.9,2.7-2.7c-8.1-9.1-17.4-17-26.6-25      C95.6,75.3,92.9,78,94.8,79.7L94.8,79.7z"/>
			</g>
		</g>
		<line class="st17" x1="132.2" y1="35.5" x2="56.5" y2="35.5"/>
		<line class="st18" x1="112.7" y1="121.4" x2="58.1" y2="121.4"/>
		<line class="st18" x1="113" y1="178.6" x2="60" y2="178.6"/>
		<line class="st18" x1="103.7" y1="150" x2="50.6" y2="150"/>
		<path class="st8" d="M217.9,195.5l33.3,54c3.7,5.9,1.8,13.8-4.1,17.5h0c-5.9,3.7-13.8,1.8-17.4-4.1l-32.6-52.9    c0,0,8.3-3.8,10.8-5.5C210.7,202.5,217.9,195.5,217.9,195.5z"/>
		<path class="st8" d="M208.4,123.4l-17.6-10.2c-0.9-0.5-2.1-0.5-3.1,0l-16.1,9.3l-16.1-9.3c-0.9-0.5-2.1-0.5-3.1,0l-17.6,10.2    c-0.9,0.5-1.5,1.6-1.5,2.6v20.3c0,1.1,0.6,2.1,1.5,2.6l16.1,9.3v18.6c0,1.1,0.6,2.1,1.5,2.6l17.6,10.2c0.5,0.3,1,0.4,1.5,0.4    c0.5,0,1.1-0.1,1.5-0.4l17.6-10.2c0.9-0.5,1.5-1.6,1.5-2.6v-18.6l16.1-9.3c0.9-0.5,1.5-1.6,1.5-2.6V126    C209.9,124.9,209.3,123.9,208.4,123.4z M139.4,144.6v-16.8h0l14.6-8.4l14.6,8.4v16.8l-7.3,4.2L154,153L139.4,144.6z M171.6,183.5    l-14.6-8.4v-16.8l7.3-4.2l7.3-4.2l7.3,4.2l7.3,4.2v16.8h0L171.6,183.5z M203.8,144.6l-14.6,8.4l-7.3-4.2l-7.3-4.2v-16.8l14.6-8.4    l14.6,8.4V144.6z"/>
		<circle class="st19" cx="171.6" cy="149.2" r="63.2"/>
		<g>
			<g>
				<path class="st8" d="M136.7,12.6c0.9,8.1,0,17.6-4.1,24.8c-4.7,8-12.2,14.2-19,20.4c-6.7,6.1-13.2,12.5-20.1,18.5      c-6.8,5.8-13.6,11.6-19.9,17.9C60.9,106.9,50.3,123,47.5,141c-2.8,18.3,4.6,35.7,15.2,50.3c12.1,16.7,28.2,29,44.5,41.3      c2,1.5,3.9-1.8,1.9-3.3c-27.7-20.9-66.3-51.6-57.2-91.2c4.2-18.7,16.3-33.9,30.1-46.6c12.7-11.7,25.8-23,38.5-34.7      c6.2-5.8,13.3-12.1,16.8-20c3.3-7.3,4.2-16.3,3.3-24.1C140.3,10.1,136.5,10.1,136.7,12.6L136.7,12.6z"/>
			</g>
		</g>
		<g>
			<g>
				<path class="st8" d="M121.3,245.2c5.9,6.5,11.8,13.7,15.5,21.8c3,6.6,2.8,13.8,2.8,21c0,2.5,3.8,2.5,3.8,0      c0-7.4,0.1-14.9-2.9-21.8c-3.7-8.8-10.1-16.7-16.6-23.7C122.3,240.7,119.6,243.4,121.3,245.2L121.3,245.2z"/>
			</g>
		</g>
		<g>
			<g>
				<path class="st2" d="M49.6,12.6c-1,7.8,0.1,16.8,3.3,24c4,9.2,12.7,16.4,19.9,22.9c1.8,1.7,4.5-1,2.7-2.7      c-6.9-6.3-15.3-13.1-19.1-21.8c-3-6.7-3.9-15.2-2.9-22.5C53.7,10.1,49.9,10.2,49.6,12.6L49.6,12.6z"/>
			</g>
		</g>
	</g>
</g>
<g id="Layer_4" class="st0">
	<g class="st1">
		<circle class="st2" cx="193.9" cy="195.1" r="4.8"/>
		<line class="st18" x1="55.6" y1="61" x2="62.1" y2="61"/>
		<line class="st18" x1="29.9" y1="61" x2="37.1" y2="61"/>
		<polyline class="st18" points="78.5,61 94.4,61 121.6,61   "/>
		<line class="st11" x1="12.8" y1="45.3" x2="123.1" y2="45.3"/>
		<line class="st11" x1="185" y1="40.3" x2="229.9" y2="40.3"/>
		<line class="st11" x1="242.5" y1="210.6" x2="287.3" y2="210.6"/>
		<line class="st18" x1="242.5" y1="229.2" x2="287.3" y2="229.2"/>
		<line class="st11" x1="242.5" y1="247.8" x2="287.3" y2="247.8"/>
		<path class="st11" d="M177.1,72.2h-50.5c-1.6,0-2.9-1.3-2.9-2.9V23.2c0-1.6,1.3-2.9,2.9-2.9h50.5c1.6,0,2.9,1.3,2.9,2.9v46.1    C180,70.9,178.7,72.2,177.1,72.2z"/>
		<ellipse transform="matrix(0.916 -0.4011 0.4011 0.916 4.1074 73.2692)" class="st20" cx="177.1" cy="26.8" rx="16.2" ry="16.2"/>
		<path class="st8" d="M173.9,71.4h-44c0,9.9,6.6,18.3,15.5,21.1l0,5c0,1.7,0.7,3.3,1.9,4.5c1.2,1.2,2.9,1.9,4.6,1.9    c1.7,0,3.4-0.7,4.6-1.9c1.2-1.2,1.8-2.8,1.9-4.5c0,0,0-5.1,0-5.1C167.3,89.7,173.9,81.3,173.9,71.4z"/>
		<circle class="st8" cx="116.9" cy="271" r="4.8"/>
		<g>
			<polyline class="st11" points="101.5,262.3 87.2,254.3 87.2,183.2 151.7,218.9 151.7,290 132.3,279.3    "/>
			<polyline class="st11" points="181.8,202.3 151.7,218.9 87.2,183.2 151.7,147.1 216.5,182.9    "/>
			<polyline class="st11" points="151.7,290 216.5,255.6 216.5,182.9    "/>
			<line class="st11" x1="151.7" y1="147.1" x2="151.7" y2="124.6"/>
			<polyline class="st11" points="87.1,183 56.3,152.2 43.4,152.3    "/>
			<circle class="st11" cx="29.4" cy="151.7" r="13"/>
			<circle class="st11" cx="274.4" cy="151.7" r="13"/>
			<polyline class="st11" points="216.6,183 247.4,152.2 259.1,152.2    "/>
		</g>
	</g>
</g>
<g id="Layer_5" class="st0">
	<g class="st1">
		<g>
			<circle class="st8" cx="225.2" cy="77.7" r="13.3"/>
			<path class="st21" d="M288.8,72.3c0-32.2-26.1-58.3-58.3-58.3"/>
			<path class="st21" d="M270.7,74.4c0-23.4-19-42.4-42.4-42.4"/>
			<path class="st21" d="M253.2,76.6c0-14.9-12.1-27-27-27"/>
		</g>
		<path class="st2" d="M150.7,157.1c-1.9,0-3.4,1.5-3.4,3.4v10.2v8.1V189c0,1.9,1.5,3.4,3.4,3.4c1.9,0,3.4-1.5,3.4-3.4v-10.2v-8.1    v-10.2C154.1,158.6,152.6,157.1,150.7,157.1z"/>
		<path class="st2" d="M129.1,158.1c-1.4-0.6-3-1-4.6-1c-6.4,0-11.5,5.2-11.5,11.5v2.1v8.1v2.1c0,6.4,5.2,11.5,11.5,11.5    c1.6,0,3.2-0.3,4.6-1c4.1-1.8,6.9-5.8,6.9-10.6v-12.2C136,163.9,133.2,159.9,129.1,158.1z M129.3,180.8c0,0.4-0.1,0.7-0.1,1.1    c-0.1,0.5-0.3,1-0.6,1.5s-0.6,0.8-1,1.2c-0.8,0.7-1.8,1-3,1c-2.6,0-4.7-2.1-4.7-4.7v-2.1v-8.1v-2.1c0-2.6,2.1-4.7,4.7-4.7    c1.1,0,2.2,0.4,3,1c0.4,0.3,0.8,0.7,1,1.2s0.5,0.9,0.6,1.5c0.1,0.3,0.1,0.7,0.1,1.1V180.8z"/>
		<path class="st2" d="M181.7,170.7v8.1v2.1c0,1.2-0.5,2.3-1.2,3.2c-0.2,0.2-0.4,0.4-0.6,0.6c-0.7,0.5-1.5,0.9-2.4,1    c-0.2,0-0.3,0.1-0.5,0.1c-0.7,0-1.3-0.1-1.8-0.4c-0.6-0.2-1.1-0.6-1.5-1c-0.4-0.4-0.8-0.9-1-1.5c-0.2-0.6-0.4-1.2-0.4-1.8v-12.2    c0-0.7,0.1-1.3,0.4-1.8c0.2-0.6,0.6-1.1,1-1.5c0.4-0.4,0.9-0.8,1.5-1c0.6-0.2,1.2-0.4,1.8-0.4c0.2,0,0.4,0,0.5,0.1    c0.9,0.1,1.7,0.4,2.4,1c0.2,0.2,0.4,0.4,0.6,0.6c0.8,0.8,1.2,1.9,1.2,3.2V170.7z M188.4,172.4v-1.7v-2.1c0-6.2-4.9-11.2-11-11.5    c-0.2,0-0.3,0-0.5,0c-2.9,0-5.5,1.1-7.6,2.8c-2.4,2.1-4,5.2-4,8.7v2.1v8.1v2.1c0,3.5,1.5,6.6,4,8.7c2,1.8,4.7,2.9,7.6,2.9    c0.2,0,0.4,0,0.5,0c2-0.1,3.9-0.7,5.5-1.7L188.4,172.4z"/>
		<path class="st2" d="M98.3,157.1c-0.1,0-0.2,0-0.3,0c-1.8,0.1-3.1,1.6-3.1,3.4V189c0,1.8,1.4,3.2,3.1,3.4c0.1,0,0.2,0,0.3,0    c1.9,0,3.4-1.5,3.4-3.4v-10.2v-8.1v-10.2C101.7,158.6,100.2,157.1,98.3,157.1z"/>
		<path class="st2" d="M72.1,157.1c-0.1,0-0.2,0-0.2,0c-0.6,2.3-1.2,4.7-1.5,7.1c0.5-0.2,1.1-0.3,1.7-0.3c1.3,0,2.5,0.5,3.4,1.4    c0.4,0.4,0.8,0.9,1,1.5c0.2,0.6,0.4,1.2,0.4,1.8v12.2c0,0.7-0.2,1.3-0.4,1.9c-0.2,0.6-0.6,1.1-1,1.5c-0.9,0.9-2,1.4-3.4,1.4    c-0.3,0-0.6,0-0.8-0.1c0.5,2.3,1.2,4.6,2,6.8c5.8-0.6,10.4-5.5,10.4-11.5v-12.2C83.7,162.3,78.5,157.1,72.1,157.1z M60.6,168.6    v12.2c0,0.3,0,0.7,0,1h6.8c-0.1-0.3-0.1-0.6-0.1-1v-12.2c0-0.6,0.2-1.3,0.4-1.8c0.1-0.2,0.1-0.3,0.3-0.5h-7.2    C60.7,167.1,60.6,167.8,60.6,168.6z"/>
		<g>
			<g>
				<path class="st22" d="M150.4,119c16.8,7.1,29.5,21.9,33.9,39.9"/>
				<path class="st22" d="M132.3,84.7v29.7l-4,0.4c-26.7,0-49.6,17.8-56.3,42.3c-0.6,2.3-1.2,4.7-1.5,7.1c-0.1,0.7-0.2,1.4-0.3,2.1      H68h-7.2H38.7"/>
				<path class="st22" d="M38.7,181.8h22h6.8h3.1c0.2,1.2,0.4,2.5,0.7,3.7c0.5,2.3,1.2,4.6,2,6.8c6.3,17.3,20.7,30.8,38.5,35.9"/>
			</g>
			<path class="st22" d="M110.3,245.5c-24.4-5.9-44.2-23.7-52.8-47"/>
			<path class="st22" d="M200.9,190.9c-6.8,27-28.2,48.1-55.3,54.6"/>
			<path class="st22" d="M154.4,102c23.5,8.8,41.3,29,46.9,53.9"/>
			<path class="st22" d="M56.9,147.9c8.4-24.5,29.2-43.3,54.9-48.9"/>
			<path class="st22" d="M153.2,87.1c11.2,3.3,21.5,8.7,30.5,15.8"/>
			<path class="st22" d="M50,223.1c-8.8-14-13.9-30.6-13.9-48.4c0-2.8,0.1-5.6,0.4-8.4c2.5-27.6,17.3-51.6,38.8-66.6"/>
			<path class="st23" d="M219.7,121.1c9.2,15.7,14.4,34,14.4,53.5c0,14.1-2.8,27.6-7.8,40c-6.1,15.1-15.7,28.5-27.7,39.2l-8.8-11.5"/>
			<path class="st22" d="M217.2,190.9c-3.6,19.9-13.6,37.6-27.9,50.8"/>
			<path class="st22" d="M99.2,72.2c9.1-2.5,18.7-3.9,28.6-3.9c32.8,0,62.1,14.8,81.6,38.1l-11.6,10.1     c12.6,15.2,20.3,34.6,20.8,55.8h-2.6h-30.2c0,32-26,58-58,58v34.2v1.3c16.7-0.1,32.3-4.6,45.7-12.5"/>
			<path class="st23" d="M82.6,78.4"/>
			<path class="st22" d="M67.4,87.2c-27.7,19.2-45.8,51.2-45.8,87.4c0,29.1,11.7,55.4,30.6,74.6l10.1-10.4     c12.8,13,29.4,22.1,48,25.6"/>
			<path class="st23" d="M65.8,260.9c17.4,12.6,38.9,20,62,20c19.8,0,38.3-5.4,54.2-14.8l-7.9-12.2"/>
			<path class="st22" d="M82.6,78.4L90.8,91c11.2-4.9,23.5-7.6,36.5-7.6c1.7,0,3.3,0,4.9,0.1"/>
		</g>
	</g>
</g>
<g id="Layer_6" class="st0">
	<g class="st1">
		<g>
			<line class="st24" x1="258.4" y1="201.2" x2="258.4" y2="255.3"/>
			<line class="st24" x1="231.6" y1="221.2" x2="231.6" y2="255.1"/>
			<path class="st25" d="M154.5,211.5c0.2,0.2,5.1,3.7,7,4.6c9,4.8,24.8,10.3,39.3,10.3c40.7,0,73.7-30,73.7-67.1     c0-20.8-10.1-38-25.7-51.2c-0.1-0.1-2.5-1.6-3.4-2.1"/>
			<polygon class="st26" points="160.2,124.5 175.7,150.9 187.8,137.1    "/>
			<path class="st13" d="M174.6,152.1c-20.3,25.7-29.2,51-20.1,59.2c10.3,9.2,39.4-6.6,65.1-35.3s38.2-59.4,28-68.6     c-9.4-8.4-35,4.4-58.8,28.4"/>
			<polyline class="st18" points="187.9,171.8 160.2,124.5 209.9,147.3    "/>
			<circle class="st12" cx="152.7" cy="118.7" r="8.1"/>
			<path class="st11" d="M146.9,280.4V267c0-5.4,4.4-9.8,9.8-9.8h127.6l0,15.1l0.1,8.4"/>
			<line class="st11" x1="146.9" y1="280.6" x2="284.4" y2="280.6"/>
		</g>
		<line class="st27" x1="42.8" y1="86.1" x2="75.2" y2="86.1"/>
		<line class="st28" x1="42.1" y1="72.6" x2="76" y2="72.6"/>
		<line class="st28" x1="42.1" y1="51.6" x2="66" y2="51.6"/>
		<path class="st11" d="M42.1,51l11.6-37c2.5-3.7,8.2-3.7,10.7,0L76,51v173.1H42.1V51z"/>
		<line class="st29" x1="59" y1="142.5" x2="59" y2="238.7"/>
		<polyline class="st30" points="39.9,156.7 22.7,176.3 22.7,225.2 42.1,225.2   "/>
		<polyline class="st30" points="76.8,156.7 94,176.3 94,225.2 73,225.2   "/>
		<path class="st10" d="M43.1,237.7c0.5,1.7,4.8,16.2-5.3,28.7c-7.6,9.4-18.4,11.6-21.2,12.1"/>
		<path class="st10" d="M75.4,237.7c-0.5,1.7-4.8,16.2,5.3,28.7c7.6,9.4,18.4,11.6,21.2,12.1"/>
		<circle class="st8" cx="59" cy="126.5" r="2.5"/>
		<circle class="st8" cx="165.9" cy="28.2" r="10.4"/>
		<circle class="st12" cx="234.4" cy="51.7" r="21.1"/>
	</g>
</g>
<g id="Layer_7" class="st0">
	<g class="st1">
		<path class="st12" d="M284,53.8c-19.2,13.9-48.2,29.8-82.7,27.8c-28.9-1.7-41.6-18.1-69.5-21.8C79.7,53,38.1,67.7,17,77.1"/>
		<path class="st18" d="M17,232.8c21.1-9.4,62.7-24,114.7-17.3c27.9,3.6,40.7,20.1,69.5,21.8c34.5,2,63.5-13.9,82.7-27.8"/>
		<path class="st11" d="M284,83.4V58.8V35.5c-19.2,13.9-48.2,29.8-82.7,27.8c-28.9-1.7-41.6-18.1-69.5-21.8    c-52-6.8-93.6,7.9-114.7,17.3v193"/>
		<line class="st11" x1="284" y1="117.5" x2="284" y2="104.2"/>
		<line class="st11" x1="284" y1="151.2" x2="284" y2="138.4"/>
		<line class="st11" x1="284" y1="228.4" x2="284" y2="171.2"/>
		<path class="st11" d="M284,228.4c-18.9,13.9-43,29.8-82.7,27.8c-28.9-1.5-41.6-18.1-69.5-21.8c-52-6.8-93.6,7.9-114.7,17.3"/>
		<g>
			<line class="st3" x1="127.4" y1="187.2" x2="159.3" y2="187.2"/>
			<path class="st4" d="M165.1,207.2h-28.8c-0.8,0-1.5-0.8-1.5-1.8v-6.5c0-1,0.7-1.8,1.5-1.8h28.8c0.8,0,1.5,0.8,1.5,1.8v6.5     C166.5,206.4,165.9,207.2,165.1,207.2z"/>
			<path class="st5" d="M171.8,195.9h-42.3c-1.6,0-2.8-1.3-2.8-2.8v-11.7c0-1.6,1.3-2.8,2.8-2.8h42.3c1.6,0,2.8,1.3,2.8,2.8v11.7     C174.7,194.7,173.4,195.9,171.8,195.9z"/>
			<path class="st7" d="M194.7,138.4c0.2-0.8,0.4-1.7,0.5-2.5c0.5-2.8,0.8-5.6,0.8-8.5c0-9.9-3.2-19-8.5-26.5     c-0.9-1.3-1.9-2.5-2.9-3.6c-1.1-1.2-2.3-2.4-3.5-3.5c-0.6-0.6-1.3-1.1-1.9-1.7c-1.4-1.1-2.8-2.1-4.3-3.1     c-0.9-0.6-1.9-1.1-2.8-1.7c-1.4-0.8-2.8-1.4-4.3-2c-1-0.4-2.1-0.8-3.1-1.1c-1.5-0.5-3.1-0.9-4.6-1.2c-1.1-0.2-2.2-0.4-3.3-0.6     c-2-0.3-4.1-0.4-6.1-0.4c-25.1,0-45.5,20.4-45.5,45.5c0,17.6,10,32.9,24.7,40.5l-0.3-0.2c0,0,5.7,2.5,5.7,6.4v4.5"/>
			<circle class="st8" cx="192.4" cy="145.2" r="1.7"/>
			<circle class="st8" cx="188.5" cy="152.3" r="1.7"/>
			<circle class="st8" cx="183.2" cy="159" r="1.7"/>
			<circle class="st8" cx="177.1" cy="164.3" r="1.7"/>
			<circle class="st8" cx="170.5" cy="168.2" r="1.7"/>
			<path class="st9" d="M183.9,69"/>
			<path class="st9" d="M178.6,78.7"/>
		</g>
		<g>
			<polygon class="st11" points="150.7,96 122.7,144.3 178.6,144.3    "/>
			<polygon class="st11" points="150.7,160.4 178.6,112.1 122.7,112.1    "/>
		</g>
	</g>
</g>
<g id="Layer_8" class="st0">
	<g class="st1">
		<ellipse class="st13" cx="259" cy="97" rx="13.9" ry="13.9"/>
		<ellipse class="st13" cx="192" cy="36.7" rx="13.9" ry="13.9"/>
		<ellipse class="st13" cx="100.8" cy="36.7" rx="13.9" ry="13.9"/>
		<ellipse class="st13" cx="36" cy="97" rx="13.9" ry="13.9"/>
		<ellipse class="st13" cx="41" cy="190.4" rx="13.9" ry="13.9"/>
		<ellipse class="st13" cx="100.6" cy="255.1" rx="13.9" ry="13.9"/>
		<ellipse class="st13" cx="194.7" cy="255.1" rx="13.9" ry="13.9"/>
		<ellipse class="st13" cx="253.1" cy="190.4" rx="13.9" ry="13.9"/>
		<ellipse class="st31" cx="147" cy="141.7" rx="76" ry="75.7"/>
		<path class="st32" d="M75.2,196.5c-1.5-1.9-2.9-3.9-4.2-6c-9.1-14.1-14.4-30.8-14.4-48.7c0-21.6,7.7-41.5,20.5-57    c1.1-1.4,2.3-2.8,3.6-4.1c1.8-1.9,3.7-3.8,5.7-5.6"/>
		<path class="st32" d="M203.2,212.1c-15.5,12.3-35,19.7-56.3,19.7c-23.1,0-44.2-8.7-60.2-22.9"/>
		<path class="st32" d="M216.9,84.7c0.7,0.9,1.5,1.8,2.2,2.7c11.5,15.1,18.3,33.9,18.3,54.2c0,18.6-5.7,35.9-15.4,50.3    c-1.2,1.8-2.5,3.6-3.9,5.3"/>
		<path class="st32" d="M146.9,51.6c15.6,0,30.2,3.9,43,10.9"/>
		<g>
			<path class="st33" d="M116.4,161.8c0,11.2,9.2,20.4,20.4,20.4h20.3c11.2,0,20.4-9.2,20.4-20.4v0c0-11.2-9.2-20.4-20.4-20.4h-20.3     c-11.2,0-20.4-9.2-20.4-20.4v0c0-11.2,9.2-20.4,20.4-20.4h20.3c9.1,0,16.8,6,19.5,14.3c0.6,1.9,0.9,4,0.9,6.1"/>
			<line class="st33" x1="146.9" y1="87.9" x2="146.9" y2="195.5"/>
		</g>
		<line class="st13" x1="118.2" y1="69.6" x2="107.3" y2="49"/>
		<line class="st11" x1="175.1" y1="69.6" x2="187.1" y2="49.7"/>
		<line class="st13" x1="76" y1="108.6" x2="48.7" y2="102.6"/>
		<line class="st13" x1="54.5" y1="187.3" x2="77.2" y2="176.6"/>
		<line class="st13" x1="239.4" y1="187" x2="216.4" y2="176.9"/>
		<line class="st13" x1="218" y1="108.6" x2="246.3" y2="102.6"/>
		<line class="st13" x1="107.1" y1="242.9" x2="119.9" y2="214.5"/>
		<line class="st13" x1="190.5" y1="241.9" x2="177.7" y2="214.5"/>
		<circle class="st2" cx="199.4" cy="68.4" r="3.5"/>
		<circle class="st2" cx="210" cy="76.9" r="3.5"/>
	</g>
</g>
<g id="Layer_9">
	<g>
		<g>
			<polyline class="st34" points="163.7,161.3 175.2,161.3 213.8,161.3    "/>
			<polyline class="st34" points="89.5,137.7 122.3,137.7 140.1,137.7    "/>
			<polyline class="st34" points="47.4,198.6 92.4,243.5 134.1,243.5    "/>
			<polyline class="st34" points="172.1,51.4 211.8,51.4 255.6,95.2    "/>
			<g>
				<polyline class="st35" points="169.7,213.4 165.5,221.3 190,259.2 210.6,220.9 205.2,212.4 193.5,194.3 186.1,182.9       178.2,197.6     "/>
				<polyline class="st35" points="120.1,221.9 144.7,260 190,259.2 165.5,221.3 144.5,221.5 120.1,221.9 141.2,182.7 186.1,182.9           "/>
			</g>
			<g>
				<g>
					<line class="st35" x1="214.5" y1="259.2" x2="235.2" y2="220.8"/>
				</g>
				<g>
					<line class="st35" x1="238.3" y1="259.2" x2="258.9" y2="220.8"/>
				</g>
				<g>
					<line class="st35" x1="262" y1="259.2" x2="282.6" y2="220.8"/>
				</g>
			</g>
			<g>
				<polygon class="st35" points="30,187 37.3,198.4 58,160 33.5,122.1 12.9,160.4 18.3,168.8     "/>
				<polyline class="st35" points="103.3,159.4 78.8,121.3 33.5,122.1 58,160 79,159.8 103.3,159.4 82.3,198.6 37.3,198.4     "/>
			</g>
			<g>
				<polyline class="st35" points="93.5,63.5 89.5,71 94.9,79.4 106.6,97.5 114,108.9 134.6,70.6 110.1,32.6 99.7,52     "/>
				<polyline class="st35" points="179.9,70 155.4,31.9 110.1,32.6 134.6,70.6 155.6,70.4 179.9,70 158.9,109.2 114,108.9     "/>
			</g>
			<g>
				<polygon class="st35" points="271,106.8 263.7,95.4 243.1,133.8 267.5,171.7 288.1,133.4 282.7,124.9     "/>
				<polyline class="st35" points="197.7,134.4 222.2,172.5 267.5,171.7 243.1,133.8 222.1,134 197.7,134.4 218.8,95.2 263.7,95.4           "/>
			</g>
			<circle class="st8" cx="21.9" cy="71.3" r="4.7"/>
			<circle class="st8" cx="47.3" cy="71.3" r="4.7"/>
			<circle class="st8" cx="72.7" cy="71.3" r="4.7"/>
		</g>
		<path class="st8" d="M171.5,136.2c0-7.1-5.8-12.9-12.9-12.9v-6.5h-6.5v6.5h-3.2v-6.5h-6.5v6.5h-12.9v6.5h6.5v32.3h-6.5v6.5h12.9    v6.5h6.5v-6.5h3.2v6.5h6.5v-6.5c7.1,0,12.9-5.8,12.9-12.9c0-3.9-1.8-7.3-4.5-9.7C169.8,143.6,171.5,140.1,171.5,136.2z M165,155.6    c0,3.6-2.9,6.5-6.5,6.5h-16.1v-12.9h16.1C162.1,149.2,165,152.1,165,155.6z M142.4,142.7v-12.9h16.1c3.6,0,6.5,2.9,6.5,6.5    s-2.9,6.5-6.5,6.5H142.4z"/>
	</g>
</g>
<g id="Layer_10" class="st0">
	<g class="st1">
		<g>
			<path class="st36" d="M92.7,205.7v45.6c0,12.5,10.2,22.7,22.7,22.7h40.9h21.9"/>
			<path class="st36" d="M176.5,274h40.9c12.5,0,22.7-10.2,22.7-22.7v-83.9"/>
			<path class="st36" d="M92.7,70.9V40.6c0-12.5,10.2-22.7,22.7-22.7h102.1c12.5,0,22.7,10.2,22.7,22.7v175.1"/>
			<line class="st37" x1="92.7" y1="44.6" x2="240.1" y2="44.6"/>
			<line class="st37" x1="92.7" y1="241.7" x2="240.1" y2="241.7"/>
			<line class="st37" x1="159.1" y1="32.6" x2="178" y2="32.6"/>
			<line class="st37" x1="144.2" y1="32.6" x2="136.1" y2="32.6"/>
			<circle class="st38" cx="166.4" cy="257.1" r="6.9"/>
		</g>
		<g>
			<g>
				<g>
					<circle class="st8" cx="163.6" cy="110.2" r="5.7"/>
					<path class="st10" d="M189.9,81.1c-14.6-14.6-38.2-14.6-52.8,0"/>
					<path class="st10" d="M182.7,90.2c-10.6-10.6-27.8-10.6-38.4,0"/>
					<path class="st10" d="M175.8,99.2c-6.8-6.8-17.7-6.8-24.5,0"/>
				</g>
				<line class="st39" x1="33.9" y1="204.3" x2="223" y2="204.3"/>
				<g>
					<ellipse class="st38" cx="71.5" cy="187.8" rx="8.7" ry="8.6"/>
					<ellipse class="st13" cx="71.5" cy="187.8" rx="15.9" ry="15.9"/>
				</g>
				<g>
					<ellipse class="st38" cx="179.7" cy="187.8" rx="8.7" ry="8.6"/>
					<ellipse class="st13" cx="179.7" cy="187.8" rx="15.9" ry="15.9"/>
				</g>
				<g>
					<line class="st11" x1="97.2" y1="183.7" x2="152.5" y2="183.7"/>
					<polyline class="st11" points="40.2,167.9 40.2,147.6 80.3,147.6      "/>
					<polyline class="st11" points="50.7,167.9 32.9,167.9 40.2,185.6 46.1,185.6      "/>
					<line class="st11" x1="66.7" y1="157.7" x2="66.7" y2="147.6"/>
					<polyline class="st11" points="203.6,183.7 210.5,183.7 224,178 224,160.7      "/>
					<path class="st40" d="M107.2,124.4"/>
					<path class="st40" d="M159.5,144.9"/>
					<polyline class="st11" points="168.8,160.7 224,160.7 214.4,154.3 159.5,144.9 130.1,124.4 93.8,124.4      "/>
					<polyline class="st11" points="40.2,147.6 50.7,143.1 93.8,124.4      "/>
				</g>
				<path class="st11" d="M160.5,145.5l-44.8,0.1c-4.9,0-9.7-1.4-13.7-4.1l-6.3-4.2"/>
				<line class="st41" x1="100.1" y1="157.7" x2="116.6" y2="157.7"/>
			</g>
			<line class="st18" x1="75" y1="215.7" x2="79" y2="215.7"/>
			<line class="st18" x1="59.1" y1="215.7" x2="63.5" y2="215.7"/>
			<polyline class="st18" points="89.2,215.7 99,215.7 115.9,215.7    "/>
		</g>
	</g>
</g>
<g id="Layer_11" class="st0">
	<g class="st1">
		<g>
			<polyline class="st42" points="213.1,92.9 245.7,92.9 255.8,80.6    "/>
			<ellipse class="st42" cx="262.3" cy="73.5" rx="8.7" ry="9.3"/>
		</g>
		<g>
			<polyline class="st42" points="75.3,124.9 42.8,124.9 32.7,112.6    "/>
			<ellipse class="st42" cx="26.1" cy="105.4" rx="8.7" ry="9.3"/>
		</g>
		<g>
			<polyline class="st42" points="93.6,181.6 61,181.7 50.9,193.9    "/>
			<ellipse class="st42" cx="44.4" cy="201.1" rx="8.7" ry="9.3"/>
		</g>
		<g>
			<line class="st42" x1="120.5" y1="206.8" x2="108.9" y2="217.5"/>
			<ellipse class="st42" cx="102.2" cy="224.5" rx="8.7" ry="9.3"/>
		</g>
		<g>
			<line class="st42" x1="191.7" y1="185.7" x2="218.5" y2="211.7"/>
			<ellipse class="st42" cx="225.1" cy="218.8" rx="8.7" ry="9.3"/>
		</g>
		<g>
			<line class="st42" x1="88.5" y1="81.6" x2="61.7" y2="55.5"/>
			<ellipse class="st42" cx="55.1" cy="48.4" rx="8.7" ry="9.3"/>
		</g>
		<g>
			<line class="st42" x1="79.9" y1="110.1" x2="59.8" y2="91.1"/>
		</g>
		<g>
			<line class="st42" x1="219.5" y1="159.2" x2="268.8" y2="159.2"/>
			<ellipse class="st42" cx="278.3" cy="159.6" rx="8.7" ry="9.3"/>
		</g>
		<g>
			<line class="st42" x1="195.7" y1="61.3" x2="210.2" y2="44.6"/>
			<ellipse class="st42" cx="216.9" cy="37.6" rx="8.7" ry="9.3"/>
		</g>
		<path class="st43" d="M115.9,62.5c-11.8-2.1-26.4,10.1-26.4,22.2c0,7,3.1,13.2,8,17.2"/>
		<path class="st44" d="M109.4,107.3"/>
		<path class="st43" d="M94.4,146.2c-10.2-1.3-18.2-10.5-18.2-21.7c0-11.4,8.2-20.7,18.7-21.7c0.6-0.1,1.2-0.1,1.9-0.1    c4.7,0,9.1,1.7,12.6,4.6"/>
		<path class="st43" d="M94.4,146.2c-5.2,4-8.5,10.4-8.5,17.7c0,12.1,9.2,21.8,20.6,21.8c4,0,7.7-1.2,10.9-3.3"/>
		<path class="st43" d="M151.7,205.9c-3.8,4.8-9.5,8-15.9,8c-11.4,0-20.6-9.8-20.6-21.8c0-3.5,0.8-6.8,2.1-9.7l0,0"/>
		<path class="st43" d="M206,101.9c4.9-4,8-10.2,8-17.2c0-12.1-14.6-24.3-26.4-22.2"/>
		<path class="st44" d="M194.1,107.3"/>
		<path class="st43" d="M194.1,107.3c3.5-2.9,7.8-4.6,12.6-4.6c0.6,0,1.3,0,1.9,0.1c10.5,1,18.7,10.4,18.7,21.7    c0,11.2-7.9,20.4-18.2,21.7"/>
		<path class="st43" d="M186.1,182.4c3.2,2.1,6.9,3.3,10.9,3.3c11.4,0,20.6-9.8,20.6-21.8c0-7.3-3.4-13.7-8.5-17.7"/>
		<path class="st43" d="M186.1,182.3L186.1,182.3c1.4,2.9,2.1,6.2,2.1,9.7c0,12-9.2,21.8-20.6,21.8c-6.4,0-12.1-3.1-15.9-8"/>
		<path class="st45" d="M138.7,113.4c8.7-0.4,15.4-15.4,15.1-24.5"/>
		<g>
			<path class="st45" d="M140.3,193.6c5.8-0.6,12-7.4,11.4-13.5"/>
			<path class="st45" d="M163.2,193.6c-5.8-0.6-12-7.4-11.4-13.5"/>
		</g>
		<g>
			<path class="st45" d="M178.8,137.3c0.4,4.6,5.1,9.4,9.4,8.9"/>
			<path class="st45" d="M178.8,155.1c0.4-4.6,5.1-9.4,9.4-8.9"/>
		</g>
		<g>
			<path class="st45" d="M161.2,50.4c-4.3,0.5-8.8,5.4-8.4,10"/>
			<path class="st45" d="M144.3,50.4c4.3,0.5,8.8,5.4,8.4,10"/>
		</g>
		<path class="st45" d="M152.7,96.6c0.5,9.1,5.6,13.8,9.6,13.9"/>
		<path class="st45" d="M158.2,135.7c-5.4,5.9-5.3,15.3,0.2,21"/>
		<path class="st45" d="M120.6,156.1c5.4-5.9,5.3-15.3-0.2-21"/>
		<path class="st43" d="M137.4,78.9c-11.4,0-20.6-9.8-20.6-21.8s9.2-21.8,20.6-21.8l1.5,0.1c1.8,0.1,3.4,0.8,4.9,1.8    c4.7,3.4,11,3.4,15.7,0.1c1.6-1.2,3.5-1.9,5.4-1.9h0.5c11,0,20.5,8.8,21.2,20.4c0.8,12.7-8.7,23.3-20.5,23.3"/>
		<polyline class="st42" points="79.1,136.4 45.4,136.4 13.6,170.1   "/>
		<line class="st42" x1="173.4" y1="212.9" x2="173.4" y2="245.4"/>
		<polyline class="st42" points="213.1,146.7 245.5,146.7 263.3,127.9   "/>
		<polyline class="st42" points="162.3,213.8 162.3,255.8 174.5,268.7   "/>
	</g>
</g>
</svg>