<svg xmlns="http://www.w3.org/2000/svg" xmlns:xlink="http://www.w3.org/1999/xlink" version="1.1" id="Слой_1" x="0px" y="0px" viewBox="0 0 148.6 130" style="enable-background:new 0 0 148.6 130;" xml:space="preserve" width="148.6"  height="130" >
<style type="text/css">
	.st0{fill:none;stroke:#8264FF;stroke-width:3;stroke-linecap:round;stroke-linejoin:round;stroke-miterlimit:10;}
	.st1{fill:none;stroke:#C1B1FF;stroke-width:3;stroke-linecap:round;stroke-linejoin:round;stroke-miterlimit:10;}
</style>
<g>
	<path class="st0" d="M89,40.3L61.5,12.9c-11.2-11.1-29.5-11.1-40.6,0l0,0C9.7,24,9.7,42.3,20.9,53.4l27.5,27.4"/>
	<path class="st0" d="M60.6,93l25.3,25.2c11.2,11.1,29.5,11.1,40.6,0l0,0c11.2-11.1,11.2-29.4,0-40.5l-25.3-25.2"/>
	<path class="st1" d="M49.5,49.2L22.1,76.6c-11.2,11.1-11.2,29.4,0,40.5l0,0c11.2,11.1,29.5,11.1,40.6,0l25.5-25.4"/>
	<path class="st1" d="M100.2,79.7l27.4-27.3c11.2-11.1,11.2-29.4,0-40.5l0,0C116.5,0.7,98.2,0.7,87,11.8L59.3,39.5"/>
	<path class="st0" d="M34.6,46c-1.4-0.8-2.8-1.7-4-2.9"/>
	<path class="st0" d="M114.4,83.4c1.1,0.6,2.1,1.4,3,2.3"/>
	<line class="st1" x1="56.6" y1="61.2" x2="70.3" y2="47.6"/>
	<line class="st1" x1="77.1" y1="81.6" x2="90.1" y2="68.7"/>
	<line class="st1" x1="90.7" y1="103.9" x2="103.7" y2="91"/>
	<line class="st1" x1="44.3" y1="41" x2="57.3" y2="28"/>
	<line class="st1" x1="59.3" y1="71.2" x2="80.4" y2="50.2"/>
	<line class="st1" x1="67.9" y1="78.3" x2="88.2" y2="58.1"/>
	<path class="st0" d="M93.7,108.7c-0.1-0.1-0.2-0.2-0.2-0.2c-8.7-9-4-27.7-4-27.7s10.5-2.2,19.4,0.4"/>
	<path class="st0" d="M57.8,48.1c0,0,18.9-4,27.6,5.1s4,27.7,4,27.7s-18.9,4-27.6-5.1S57.8,48.1,57.8,48.1z"/>
	<path class="st0" d="M53.7,20.1c0.1,0.1,0.1,0.2,0.2,0.2c8.7,9,4,27.7,4,27.7s-8.7,1.8-17.1,0.2"/>
</g>
</svg>