<svg xmlns="http://www.w3.org/2000/svg" xmlns:xlink="http://www.w3.org/1999/xlink" version="1.1" id="Слой_1" x="0px" y="0px" viewBox="0 0 148.6 130" style="enable-background:new 0 0 148.6 130;" xml:space="preserve" width="148.6"  height="130" >
<style type="text/css">
	.st0{fill:none;stroke:#8264FF;stroke-width:2.7116;stroke-linecap:round;stroke-linejoin:round;stroke-miterlimit:10;}
	.st1{fill:none;stroke:#8264FF;stroke-width:3;stroke-linecap:round;stroke-linejoin:round;stroke-miterlimit:10;}
	.st2{fill:none;stroke:#C1B1FF;stroke-width:3;stroke-linecap:round;stroke-linejoin:round;stroke-miterlimit:10;}
	.st3{fill:none;stroke:#8264FF;stroke-width:2;stroke-linecap:round;stroke-linejoin:round;stroke-miterlimit:10;}
</style>
<g>
	<polyline class="st0" points="32.5,28.5 32.5,26.2 35.7,26.2  "/>
	<polyline class="st0" points="108.1,26.2 110.2,26.2 110.2,28.5  "/>
	<polyline class="st0" points="32.5,101 32.5,103.7 35.8,103.7  "/>
	<polyline class="st0" points="110.2,101 110.2,103.7 108,103.7  "/>
	<path class="st0" d="M30.5,23.9c0.6,1.6,1.3,3.1,2,4.6c5.1,9.9,13.8,17.6,24.4,21.3v0c4.5,1.6,9.4,2.5,14.5,2.5   c5.6,0,10.9-1,15.8-2.9c10-3.9,18.3-11.3,23.1-20.8c0.7-1.3,1.3-2.7,1.8-4.1"/>
	<path class="st0" d="M112.2,105.6c-0.6-1.6-1.2-3.1-2-4.5c-4.9-9.5-13.2-17-23.3-20.9c-4.8-1.9-10.1-2.9-15.6-2.9   c-5,0-9.8,0.8-14.3,2.4C46.4,83.4,37.6,91.1,32.5,101c-0.8,1.6-1.5,3.3-2.2,5"/>
	<path class="st0" d="M112.1,24.4c-1.4,0.5-2.7,1.1-4,1.8C98.5,31,91,39.3,87.1,49.3h0c-1.9,4.8-2.9,10.1-2.9,15.6   c0,5.3,1,10.5,2.7,15.2c3.8,10.2,11.4,18.7,21.1,23.6c1.4,0.7,2.7,1.3,4.2,1.9"/>
	<path class="st0" d="M30.3,106c1.9-0.6,3.7-1.4,5.4-2.3c9.8-5,17.5-13.6,21.3-24c1.7-4.6,2.6-9.6,2.6-14.7c0-5.3-1-10.4-2.7-15.1   c-3.8-10.3-11.4-18.7-21.1-23.7c-1.7-0.9-3.5-1.6-5.3-2.3"/>
	<path class="st1" d="M18.6,8.1c3.9-3,8.7-4.7,13.9-4.7c12.6,0,22.9,10.2,22.9,22.8S45.1,49,32.5,49S9.6,38.8,9.6,26.2   c0-4.8,1.5-9.2,4-12.9"/>
	<path class="st1" d="M130.7,15.9c1.6,3.1,2.4,6.6,2.4,10.2c0,12.6-10.2,22.8-22.9,22.8S87.3,38.8,87.3,26.2S97.6,3.4,110.2,3.4   c6.3,0,12,2.6,16.2,6.7"/>
	<path class="st1" d="M124.7,121.3c-3.9,3.2-9,5.2-14.5,5.2c-12.6,0-22.9-10.2-22.9-22.8s10.2-22.8,22.9-22.8s22.9,10.2,22.9,22.8   c0,4.8-1.5,9.3-4.1,13"/>
	<path class="st1" d="M14,117.2c-2.8-3.8-4.4-8.4-4.4-13.5c0-12.6,10.2-22.8,22.9-22.8s22.9,10.2,22.9,22.8s-10.2,22.8-22.9,22.8   c-5,0-9.6-1.6-13.4-4.3"/>
	<g>
		<line class="st2" x1="27.6" y1="31" x2="22.3" y2="36.3"/>
		<line class="st2" x1="42.6" y1="16" x2="37.7" y2="21"/>
	</g>
	<g>
		<line class="st2" x1="37.4" y1="108.6" x2="42.6" y2="113.8"/>
		<line class="st2" x1="22.3" y1="93.6" x2="27.3" y2="98.5"/>
	</g>
	<g>
		<line class="st2" x1="115.1" y1="98.8" x2="120.4" y2="93.6"/>
		<line class="st2" x1="100.1" y1="113.8" x2="105" y2="108.9"/>
	</g>
	<g>
		<line class="st2" x1="115.1" y1="31" x2="120.4" y2="36.3"/>
		<line class="st2" x1="100.1" y1="16" x2="105" y2="21"/>
	</g>
	<path class="st2" d="M75,56.8"/>
	<rect x="65.3" y="61.7" class="st3" width="13.3" height="6.4"/>
</g>
</svg>