<svg xmlns="http://www.w3.org/2000/svg" xmlns:xlink="http://www.w3.org/1999/xlink" version="1.1" id="Слой_1" x="0px" y="0px" viewBox="0 0 148.6 130" style="enable-background:new 0 0 148.6 130;" xml:space="preserve" width="148.6"  height="130" >
<style type="text/css">
	.st0{fill:none;stroke:#8264FF;stroke-width:3;stroke-linecap:round;stroke-linejoin:round;stroke-miterlimit:10;}
	.st1{fill:none;stroke:#C1B1FF;stroke-width:2;stroke-linecap:round;stroke-linejoin:round;stroke-miterlimit:10;}
	.st2{fill:none;stroke:#8264FF;stroke-width:2;stroke-linecap:round;stroke-linejoin:round;stroke-miterlimit:10;}
	.st3{fill:none;stroke:#8264FF;stroke-linecap:round;stroke-linejoin:round;stroke-miterlimit:10;}
</style>
<g>
	<path class="st0" d="M21.6,64.3V9l10.7-2.1c28.3-5.6,57.4-5.6,85.7,0L128.8,9v55.3l-15.9-2.8c-24.9-4.3-50.3-4.3-75.3,0L21.6,64.3"/>
	<path class="st0" d="M103.8,70.3c-19-2.5-38.2-2.5-57.2,0"/>
	<polyline class="st1" points="28.2,27.9 28.2,13.6 38.9,11.5  "/>
	<polyline class="st1" points="28.2,43 28.2,57.2 38.9,55.4  "/>
	<polyline class="st1" points="121.9,43 121.9,57.2 111.2,55.4  "/>
	<polyline class="st1" points="121.9,27.9 121.9,13.6 111.2,11.5  "/>
	<line class="st2" x1="62.3" y1="67.5" x2="62.3" y2="58.6"/>
	<line class="st2" x1="89.2" y1="58.7" x2="89.2" y2="67.5"/>
	<line class="st2" x1="75.4" y1="68.4" x2="75.4" y2="85.2"/>
	<path class="st2" d="M64.4,85.4l-0.1,9c0,2.2,2,4.1,4.6,4.1h12.7c2.5,0,4.6-1.8,4.6-4.1l-0.1-9"/>
	<line class="st0" x1="67.6" y1="112.9" x2="83" y2="112.9"/>
	<path class="st0" d="M91.3,112.6c0.9,1.8,2.7,5.6,4.3,8.4c3.6,6.3,4.9,7.3,6.3,7.7c2,0.6,4.2-0.1,5.6-1c4.1-2.8,4.2-10.3,3.1-17.1   c-0.5-3.3-1.3-6.4-2-8.8c-0.2-0.7-0.4-1.4-0.6-2.1c-1.3-4.3-2.8-7.6-4.1-10.2c-1-1.8-2.3-3.3-4-4.5c-2.5-1.8-5.8-2-8.6-0.6   c-0.7,0.4-1.4,0.7-1.8,0.8c-0.6,0.2-2.1,0.1-2.9,0c-0.4,0-0.8,0-1.2,0H65.1c-0.4,0-0.9,0-1.3,0c-0.8,0.1-2.3,0.1-2.8,0   c-0.4-0.1-1.1-0.4-1.8-0.8c-2.8-1.4-6.1-1.2-8.6,0.6c-1.6,1.2-3,2.7-4,4.5c-1.4,2.6-2.8,5.9-4.1,10.2c-0.2,0.7-0.8,3.2-1,4.3   c-0.5,2.1-1,5.3-1.5,8.6c-1.1,6.8-1.1,12.4,3.1,15.2c1.4,1,3.7,1.6,5.6,1c1.4-0.4,2.7-1.4,6.3-7.7c1.6-2.8,3.4-6.6,4.3-8.4"/>
	<g>
		<ellipse class="st3" cx="96.1" cy="92.9" rx="1.8" ry="1.8"/>
		<ellipse class="st3" cx="96.1" cy="101.3" rx="1.8" ry="1.8"/>
		<ellipse class="st3" cx="91.6" cy="97.1" rx="1.8" ry="1.8"/>
		<ellipse class="st3" cx="100.6" cy="97.1" rx="1.8" ry="1.8"/>
	</g>
	<g>
		<path class="st3" d="M51,95.6l1.5,1.5l-1.6,1.6h-2.8v-3.1H51z"/>
		<path class="st3" d="M57.1,98.7l-1.5-1.5l1.6-1.6H60v3.1H57.1z"/>
		<path class="st3" d="M55.6,94.5L54.1,96l-1.6-1.6v-2.7h3.1V94.5z"/>
		<path class="st3" d="M52.5,99.7l1.5-1.5l1.6,1.6v2.7h-3.1V99.7z"/>
	</g>
	<line class="st2" x1="72.1" y1="102.3" x2="78.6" y2="102.3"/>
	<g>
		<ellipse class="st0" cx="74.1" cy="30.7" rx="15.8" ry="15.8"/>
		<path class="st2" d="M94.3,16.8c2.9,2.9,4.6,6.8,4.6,11.1c0,0.9-0.1,1.7-0.2,2.5"/>
		<path class="st2" d="M95.4,43.9c-1.8,3.1-4.6,5.5-8,6.8"/>
		<polygon class="st2" points="70.5,37 70.5,24 79.3,30.5   "/>
	</g>
</g>
</svg>