<svg xmlns="http://www.w3.org/2000/svg" xmlns:xlink="http://www.w3.org/1999/xlink" version="1.1" id="Слой_1" x="0px" y="0px" viewBox="0 0 148.6 130" style="enable-background:new 0 0 148.6 130;" xml:space="preserve" width="148.6"  height="130" >
<style type="text/css">
	.st0{fill:#8264FF;}
	.st1{fill:#C1B1FF;}
	.st2{fill:none;stroke:#8264FF;stroke-width:3;stroke-linecap:round;stroke-linejoin:round;stroke-miterlimit:10;}
	.st3{fill:none;stroke:#8264FF;stroke-width:2;stroke-linecap:round;stroke-linejoin:round;stroke-miterlimit:10;}
</style>
<g>
	<path class="st0" d="M60.8,64.3c-0.8,0-1.5-0.7-1.5-1.5c0-0.8,0.7-1.5,1.5-1.5l12.8,0.1c0.8,0,1.5,0.7,1.5,1.5   c0,0.8-0.7,1.5-1.5,1.5L60.8,64.3z"/>
	<path class="st0" d="M59,80.8c0.2-0.5,0.6-0.9,1-0.9C59.7,80.2,59.3,80.5,59,80.8z"/>
	<path class="st0" d="M62.7,77c0.8-1,1.6-1.9,2.4-2.8l-1.4,0c-1,0-1.9-0.9-1.9-2.1c0-1.1,0.9-2.1,1.9-2l4.9,0h0   c0.7-0.8,1.4-1.6,2.1-2.4c-0.6-0.4-1.3-0.6-2.1-0.6l-4.9,0c-2.6,0-4.7,2.2-4.7,5C59.1,74.4,60.6,76.4,62.7,77z"/>
	<path class="st0" d="M63.6,58.6l4.9,0c1.6,0,3-0.9,3.9-2.2c-0.6-0.8-1.3-1.6-2-2.4c-0.2,0.9-1,1.6-1.9,1.6l-4.9,0   c-1.1,0-1.9-0.9-1.9-2.1c0-1.1,0.9-2,1.9-2l4.5,0c-0.1-0.1-0.1-0.1-0.2-0.2c-0.8-0.9-1.6-1.8-2.4-2.8l-1.9,0   c-2.6,0-4.7,2.2-4.7,4.9C59,56.3,61.1,58.5,63.6,58.6z"/>
	<path class="st0" d="M63.1,45.7c-0.7-0.8-1.4-1.7-2.2-2.5c0,0,0,0,0,0c-0.6-0.6-1.2-1.1-1.8-1.7C59.4,43.7,61.1,45.5,63.1,45.7z"/>
	<path class="st1" d="M41.9,60.5c-0.8,0-1.4-0.7-1.4-1.5c0-0.8,0.6-1.5,1.4-1.5l11.5,0.1c0.8,0,1.4,0.7,1.4,1.5   c0,0.8-0.6,1.5-1.4,1.5L41.9,60.5z"/>
	<path class="st1" d="M40.7,37.3c0,0.8,0.6,1.5,1.4,1.5l11.5,0.1c0.8,0,1.4-0.6,1.4-1.5c0-0.8-0.6-1.5-1.4-1.5l-11.5-0.1   C41.4,35.8,40.7,36.5,40.7,37.3z"/>
	<path class="st1" d="M41.9,67.8c-0.8,0-1.4-0.7-1.4-1.5c0-0.8,0.6-1.5,1.4-1.5L53.4,65c0.8,0,1.4,0.7,1.4,1.5s-0.6,1.5-1.4,1.5   L41.9,67.8z"/>
	<g>
		<path class="st1" d="M45.1,82.2l4.9,0c2.6,0,4.7-2.2,4.7-5c0-2.7-2.1-5-4.6-5l-4.9,0c-2.6,0-4.7,2.2-4.7,5    C40.4,80,42.5,82.2,45.1,82.2z M45.1,75.2l4.9,0c1,0,1.9,0.9,1.9,2.1c0,1.1-0.9,2-1.9,2l-4.9,0c-1,0-1.9-0.9-1.9-2.1    C43.2,76.1,44.1,75.2,45.1,75.2z"/>
	</g>
	<g>
		<path class="st0" d="M23.4,72c-0.8,0-1.4-0.7-1.4-1.5c0-0.8,0.6-1.5,1.4-1.5l11.5,0.1c0.8,0,1.4,0.7,1.4,1.5s-0.6,1.5-1.4,1.5    L23.4,72z"/>
		<path class="st0" d="M22.2,48.8c0,0.8,0.6,1.5,1.4,1.5l11.5,0.1c0.8,0,1.4-0.6,1.4-1.5c0-0.8-0.6-1.5-1.4-1.5l-11.5-0.1    C22.8,47.3,22.2,48,22.2,48.8z"/>
		<path class="st0" d="M23.4,79.3c-0.8,0-1.4-0.7-1.4-1.5s0.6-1.5,1.4-1.5l11.5,0.1c0.8,0,1.4,0.7,1.4,1.5c0,0.8-0.6,1.5-1.4,1.5    L23.4,79.3z"/>
		<g>
			<path class="st0" d="M26.6,93.7l4.9,0c2.6,0,4.7-2.2,4.7-4.9c0-2.8-2.1-5-4.6-5l-4.9,0c-2.6,0-4.7,2.2-4.7,4.9     C21.9,91.5,24,93.7,26.6,93.7z M26.6,86.7l4.9,0c1.1,0,1.9,0.9,1.9,2.1c0,1.1-0.9,2.1-1.9,2l-4.9,0c-1,0-1.9-0.9-1.9-2.1     C24.7,87.6,25.6,86.7,26.6,86.7z"/>
		</g>
		<g>
			<path class="st0" d="M26.8,64.7l4.9,0c2.6,0,4.7-2.2,4.7-5c0-2.8-2.1-5-4.6-5l-4.9,0c-2.6,0-4.7,2.2-4.7,5     C22.1,62.4,24.2,64.7,26.8,64.7z M26.8,57.6l4.9,0c1.1,0,1.9,0.9,1.9,2.1c0,1.1-0.9,2-1.9,2l-4.9,0c-1,0-1.9-0.9-1.9-2.1     C24.9,58.5,25.8,57.6,26.8,57.6z"/>
		</g>
		<g>
			<path class="st0" d="M26.6,43.8l4.9,0c2.6,0,4.7-2.2,4.7-5c0-2.7-2.1-5-4.6-5l-4.9,0c-2.6,0-4.7,2.2-4.7,5     C21.9,41.5,24,43.7,26.6,43.8z M26.6,36.7l4.9,0c1,0,1.9,0.9,1.9,2.1c0,1.1-0.9,2-1.9,2l-4.9,0c-1,0-1.9-0.9-1.9-2.1     C24.7,37.6,25.6,36.7,26.6,36.7z"/>
		</g>
	</g>
	<g>
		<path class="st1" d="M45.3,53.2l4.9,0c2.6,0,4.7-2.2,4.7-4.9c0-2.8-2.1-5-4.6-5l-4.9,0c-2.6,0-4.7,2.2-4.7,5    C40.6,50.9,42.7,53.1,45.3,53.2z M45.3,46.1l4.9,0c1,0,1.9,1,1.9,2.1c0,1.1-0.9,2-1.9,2l-4.9,0c-1,0-1.9-0.9-1.9-2.1    C43.4,47,44.3,46.1,45.3,46.1z"/>
	</g>
	<g>
		<g>
			<path class="st0" d="M17.5,93.1c12.3,4.1,24.3,1.1,35.1-5.7C62.4,81,69.9,71.1,77.2,62c0.5-0.6,0.5-1.3,0-1.9     c-7.3-9.1-14.8-19-24.8-25.4c-10.7-6.9-22.7-9.8-35-5.7c-1.6,0.5-0.9,3.1,0.7,2.5c25-8.4,43.2,13,57.2,30.4c0-0.6,0-1.2,0-1.9     c-14,17.3-32.1,38.7-57.2,30.4C16.6,90,15.9,92.6,17.5,93.1L17.5,93.1z"/>
		</g>
	</g>
	<line class="st2" x1="62.1" y1="29.5" x2="54.4" y2="37.7"/>
	<g>
		<ellipse class="st3" cx="50.2" cy="10.9" rx="3.9" ry="4.2"/>
		<ellipse class="st3" cx="71.9" cy="6.7" rx="3.5" ry="3.8"/>
		<ellipse class="st3" cx="85.4" cy="24.4" rx="3.9" ry="4.2"/>
		<ellipse class="st2" cx="66.4" cy="24.4" rx="6.1" ry="6.5"/>
		<line class="st2" x1="61.1" y1="20.2" x2="53.6" y2="14"/>
		<line class="st2" x1="72.6" y1="25.6" x2="81" y2="25"/>
		<line class="st2" x1="68.9" y1="17.9" x2="70.9" y2="11.1"/>
	</g>
	<g>
		<path class="st1" d="M120.1,39.4l4.9,0c2.6,0,4.7-2.2,4.7-5c0-2.7-2.1-5-4.6-5l-4.9,0c-2.6,0-4.7,2.2-4.7,5    C115.5,37.1,117.6,39.3,120.1,39.4z M120.2,32.3l4.9,0c1,0,1.9,0.9,1.9,2.1c0,1.1-0.9,2-1.9,2l-4.9,0c-1,0-1.9-0.9-1.9-2.1    C118.3,33.2,119.1,32.3,120.2,32.3z"/>
	</g>
	<path class="st1" d="M79,59.8c0.6-0.8,1.2-1.5,1.9-2.3l10.8,0.1c0.8,0,1.4,0.7,1.4,1.5c0,0.8-0.6,1.5-1.4,1.4l-11.5-0.1   C79.6,60.5,79.2,60.2,79,59.8z"/>
	<path class="st1" d="M81,64.9L91.5,65c0.8,0,1.4,0.7,1.4,1.5c0,0.8-0.6,1.5-1.4,1.5l-8-0.1C82.7,66.9,81.8,65.9,81,64.9z"/>
	<path class="st0" d="M92.7,78.4c0.1-0.3,0.1-0.7,0.1-1.1c0-2.8-2.1-5-4.6-5h-0.8C89.1,74.2,90.9,76.3,92.7,78.4z"/>
	<path class="st1" d="M88.3,53.2c2.6,0,4.7-2.2,4.7-5c0-1.3-0.5-2.5-1.2-3.4c-0.6,0.7-1.3,1.5-1.9,2.2c0.2,0.3,0.4,0.8,0.4,1.2   c0,1.1-0.9,2-1.9,2h-1.2c-0.3,0.4-0.7,0.7-1,1.1c-0.5,0.6-1.1,1.2-1.6,1.8L88.3,53.2z"/>
	<path class="st1" d="M116.9,70.2c-0.8,0-1.4-0.7-1.4-1.5s0.6-1.5,1.4-1.5l11.5,0.1c0.8,0,1.4,0.7,1.4,1.5c0,0.8-0.6,1.5-1.4,1.5   L116.9,70.2z"/>
	<path class="st1" d="M116.9,89.1c-0.8,0-1.4-0.7-1.4-1.5c0-0.8,0.6-1.5,1.4-1.5l11.5,0.1c0.8,0,1.4,0.7,1.4,1.5   c0,0.8-0.6,1.5-1.4,1.5L116.9,89.1z"/>
	<path class="st1" d="M116.9,51.2c-0.8,0-1.4-0.7-1.4-1.5s0.6-1.5,1.4-1.5l11.5,0.1c0.8,0,1.4,0.7,1.4,1.5c0,0.8-0.6,1.5-1.4,1.5   L116.9,51.2z"/>
	<path class="st1" d="M116.9,45.3c-0.8,0-1.4-0.7-1.4-1.5s0.6-1.5,1.4-1.5l11.5,0.1c0.8,0,1.4,0.7,1.4,1.5c0,0.8-0.6,1.5-1.4,1.5   L116.9,45.3z"/>
	<g>
		<path class="st1" d="M120.4,83.2l4.9,0c2.6,0,4.7-2.2,4.7-5c0-2.8-2.1-5-4.6-5l-4.9,0c-2.6,0-4.7,2.2-4.7,5    C115.7,80.9,117.8,83.1,120.4,83.2z M120.4,76.1l4.9,0c1.1,0,1.9,0.9,1.9,2.1c0,1.1-0.9,2-1.9,2l-4.9,0c-1,0-1.9-0.9-1.9-2.1    C118.5,77,119.3,76.1,120.4,76.1z"/>
	</g>
	<g>
		<path class="st1" d="M120.3,64.2l4.9,0c2.6,0,4.7-2.2,4.7-5c0-2.7-2.1-5-4.6-5l-4.9,0c-2.6,0-4.7,2.2-4.7,5    C115.6,62,117.7,64.2,120.3,64.2z M120.3,57.2l4.9,0c1,0,1.9,0.9,1.9,2.1c0,1.1-0.9,2-1.9,2l-4.9,0c-1,0-1.9-0.9-1.9-2.1    C118.4,58.1,119.3,57.2,120.3,57.2z"/>
	</g>
	<g>
		<path class="st0" d="M98.6,60.5c-0.8,0-1.4-0.7-1.4-1.5c0-0.8,0.6-1.5,1.4-1.5l11.5,0.1c0.8,0,1.4,0.7,1.4,1.5    c0,0.8-0.6,1.5-1.4,1.5L98.6,60.5z"/>
		<path class="st0" d="M101,38.8l9.2,0.1c0.8,0,1.4-0.6,1.4-1.5c0-0.8-0.6-1.5-1.4-1.5l-8.2-0.1"/>
		<path class="st0" d="M98.5,67.8c-0.8,0-1.4-0.7-1.4-1.5c0-0.8,0.6-1.5,1.4-1.5l11.5,0.1c0.8,0,1.4,0.7,1.4,1.5s-0.6,1.5-1.4,1.5    L98.5,67.8z"/>
		<g>
			<path class="st0" d="M101.7,82.2l4.9,0c2.6,0,4.7-2.2,4.7-5c0-2.7-2.1-5-4.6-5l-4.9,0c-2.6,0-4.7,2.2-4.7,5     C97.1,80,99.2,82.2,101.7,82.2z M101.8,75.2l4.9,0c1,0,1.9,0.9,1.9,2.1c0,1.1-0.9,2-1.9,2l-4.9,0c-1,0-1.9-0.9-1.9-2.1     C99.9,76.1,100.7,75.2,101.8,75.2z"/>
		</g>
		<g>
			<path class="st0" d="M101.9,53.2l4.9,0c2.6,0,4.7-2.2,4.7-4.9c0-2.8-2.1-5-4.6-5l-4.9,0c-2.6,0-4.7,2.2-4.7,5     C97.3,50.9,99.4,53.1,101.9,53.2z M102,46.1l4.9,0c1,0,1.9,1,1.9,2.1c0,1.1-0.9,2-1.9,2l-4.9,0c-1,0-1.9-0.9-1.9-2.1     C100.1,47,100.9,46.1,102,46.1z"/>
		</g>
	</g>
	<g>
		<g>
			<path class="st0" d="M132.3,91.7c-23.6,5.1-40.4-15.2-53.4-31.5c0,0.6,0,1.2,0,1.9c13.2-16.3,29.8-36.7,53.5-31.5     c1.7,0.4,2.4-2.2,0.7-2.5c-24.7-5.4-42.2,15-56,32.2c-0.5,0.6-0.5,1.3,0,1.9c13.8,17.2,31.4,37.6,56,32.2     C134.6,93.9,133.9,91.3,132.3,91.7L132.3,91.7z"/>
		</g>
	</g>
	<line class="st2" x1="89" y1="96.7" x2="99.2" y2="84.8"/>
	<g>
		<ellipse class="st3" cx="103.2" cy="116.3" rx="3.7" ry="4"/>
		<ellipse class="st3" cx="81.4" cy="123.3" rx="3.3" ry="3.6"/>
		<ellipse class="st3" cx="64" cy="107.2" rx="3.7" ry="4"/>
		<ellipse class="st2" cx="84.9" cy="102.2" rx="6.6" ry="7.1"/>
		<line class="st2" x1="90" y1="106.7" x2="99.5" y2="113.5"/>
		<line class="st2" x1="78.1" y1="103.6" x2="68.6" y2="106"/>
		<line class="st2" x1="83.7" y1="109.2" x2="82.1" y2="119.1"/>
	</g>
</g>
</svg>