<svg xmlns="http://www.w3.org/2000/svg" xmlns:xlink="http://www.w3.org/1999/xlink" version="1.1" id="Слой_1" x="0px" y="0px" viewBox="0 0 148.6 130" style="enable-background:new 0 0 148.6 130;" xml:space="preserve" width="148.6"  height="130" >
<style type="text/css">
	
		.st0{fill-rule:evenodd;clip-rule:evenodd;fill:none;stroke:#8264FF;stroke-width:2;stroke-linecap:round;stroke-linejoin:round;stroke-miterlimit:10;}
	
		.st1{fill-rule:evenodd;clip-rule:evenodd;fill:none;stroke:#C1B1FF;stroke-width:2;stroke-linecap:round;stroke-linejoin:round;stroke-miterlimit:10;}
	.st2{fill-rule:evenodd;clip-rule:evenodd;fill:none;stroke:#8264FF;stroke-width:2;stroke-linejoin:round;stroke-miterlimit:10;}
	.st3{fill:none;stroke:#8264FF;stroke-width:2;stroke-linecap:round;stroke-miterlimit:10;}
	.st4{fill:none;stroke:#8264FF;stroke-width:2;stroke-miterlimit:10;}
	.st5{fill:none;stroke:#C1B1FF;stroke-width:2;stroke-linecap:round;stroke-miterlimit:10;}
	.st6{fill:#8264FF;}
	.st7{fill:none;stroke:#8264FF;stroke-width:3;stroke-linecap:round;stroke-miterlimit:10;}
	.st8{fill:none;stroke:#C1B1FF;stroke-width:2;stroke-miterlimit:10;}
	.st9{fill:none;stroke:#C1B1FF;stroke-width:2;stroke-linejoin:round;stroke-miterlimit:10;}
	.st10{fill:none;stroke:#C1B1FF;stroke-width:2;stroke-linecap:round;stroke-linejoin:round;stroke-miterlimit:10;}
	.st11{fill:none;stroke:#8264FF;stroke-width:2;stroke-linecap:round;stroke-linejoin:round;stroke-miterlimit:10;}
	
		.st12{fill-rule:evenodd;clip-rule:evenodd;fill:none;stroke:#8264FF;stroke-width:3;stroke-linecap:round;stroke-linejoin:round;stroke-miterlimit:10;}
</style>
<g>
	<path class="st0" d="M124.4,58.9c-2.5,1.7-5.6,3.1-8.8,3.1c-3.5,0-7.2-2.1-9.2-3.5c-2-1.5-5-4.4-6.1-7.8"/>
	<path class="st0" d="M99.5,45c0.3-7.7,5.7-14,12.8-15.5c0.9-0.2,0.8-12.6,1.6-17.1c0-0.1,0-0.2,0.1-0.2c0.4-1.2,2.2-1.2,2.6,0   c0,0.1,0.1,0.2,0.1,0.3c0.8,4.5,0.9,16.8,1.6,17c2.5,0.4,4.8,1.5,6.7,2.9"/>
	<path class="st0" d="M122.5,48.1h-15.3c-1.4,0-2.5-1.1-2.5-2.5v0c0-1.4,1.1-2.5,2.5-2.5h15.3c1.4,0,2.5,1.1,2.5,2.5v0   C125,46.9,123.9,48.1,122.5,48.1z"/>
	<ellipse class="st1" cx="79.5" cy="55.8" rx="5.6" ry="5.1"/>
	<path class="st0" d="M87.1,51c0.4,0.6,0.8,1.2,1.1,1.9c0.4,0.9,0.5,1.9,0.5,2.9c0,4.6-4.1,8.4-9.1,8.4s-9.1-3.7-9.1-8.4   c0-1.4,0.2-2.4,0.9-3.6"/>
	<line class="st0" x1="75.9" y1="44.6" x2="99.5" y2="45.1"/>
	<path class="st0" d="M69.1,45.1L38,45.5c-0.7,0-1.3,0.6-1.3,1.4v0c0,0.7,0.5,1.3,1.2,1.3l12.5,2c1.8,0.3,3.5,0.5,5.3,0.6l15.6,1.3"/>
	<line class="st0" x1="88.5" y1="54" x2="102" y2="54.5"/>
	<line class="st0" x1="86.7" y1="36.7" x2="102" y2="36.7"/>
	<line class="st2" x1="87.1" y1="33.3" x2="105.8" y2="32.5"/>
	<path class="st0" d="M86.6,36.7c-1.5,0-2.6-0.8-2.6-1.8s1.6-1.6,3.1-1.6"/>
	<path class="st3" d="M20.9,99h12.5c1.7,0,3.1,1.4,3.1,3.1v0c0,1.7-1.4,3.1-3.1,3.1H17.2"/>
	<path class="st4" d="M67.6,105.2H46.4c-1.7,0-3.1-1.4-3.1-3.1v0c0-1.7,1.4-3.1,3.1-3.1H61"/>
	<path class="st4" d="M17.2,110.7"/>
	<path class="st5" d="M57.3,116.8v1.4c0,1.3-1,2.3-2.3,2.3h0c-1.3,0-2.3-1-2.3-2.3v-1.4"/>
	<path class="st5" d="M27.5,116.8v1.4c0,1.3-1,2.3-2.3,2.3h0c-1.3,0-2.3-1-2.3-2.3v-1.2"/>
	<line class="st3" x1="17.2" y1="121" x2="35.2" y2="121"/>
	<line class="st3" x1="43.1" y1="121" x2="69.4" y2="121"/>
	<ellipse class="st6" cx="17.5" cy="99" rx="1" ry="1"/>
	<ellipse class="st6" cx="39.2" cy="120.6" rx="1" ry="1"/>
	<path class="st7" d="M17.2,91.1h26.3c0,0,2.5,0,3.4,0c0.8,0,2.3,0.2,3.1,0.3c0.8,0.1,2.2,0.6,2.9,0.9c1.1,0.6,3.3,1.9,4.2,2.7   c2.9,2.4,9.5,9.4,10.6,10.5c1.1,1.1,1.8,2.6,1.8,4.3v0c0,3.3-2.7,6-6.1,6H17.2"/>
	<g>
		<path class="st8" d="M107.6,80.3h-6.7c-0.3,0-0.5-0.3-0.5-0.7l0.6-8.6c0-0.3,0.2-0.6,0.5-0.6h5.5c0.3,0,0.5,0.2,0.5,0.6l0.6,8.6    C108.1,80,107.9,80.3,107.6,80.3z"/>
		<line class="st8" x1="100.7" y1="74.7" x2="107.8" y2="74.7"/>
		<path class="st9" d="M123,101.6c-2.1-1.6-7.3-5.3-9.2-6.5c-2.3-1.5-9.4-5.5-9.4-5.5"/>
		<path class="st10" d="M85.8,101.6c1.8-1.3,7-5.2,9.1-6.5c2.3-1.5,9.4-5.5,9.4-5.5"/>
		<path class="st11" d="M104.3,84.7h-0.3c0,0-7,3.6-9.4,5.1c-2.5,1.6-10.3,8.3-10.3,8.3l0.8,3.2"/>
		<path class="st11" d="M85.1,101.4l2.3,6.9c0.7,2,1.5,4,2.4,5.9l3.1,6.3"/>
		<path class="st11" d="M104.3,108V84.7h0.2c0,0,7.2,3.6,9.4,5.1c2.7,1.8,10.3,8.3,10.3,8.3l-0.8,3.3c-0.1,0.2-0.1,0.4-0.2,0.6    l-2,6.3c-0.7,2-1.5,4-2.4,5.9l-2.9,6.3"/>
		<ellipse class="st6" cx="104.3" cy="111.7" rx="1" ry="1"/>
		<ellipse class="st6" cx="93.4" cy="101.7" rx="1" ry="1"/>
		<line class="st11" x1="87" y1="106.7" x2="91" y2="103.4"/>
		<line class="st11" x1="116.1" y1="102" x2="121.5" y2="105.5"/>
		<path class="st10" d="M104.1,117.4c0,2-2,3.7-4.6,3.7c-2.5,0-4.6-1.7-4.6-3.7"/>
		<path class="st10" d="M113.2,117.4c0,2-2,3.7-4.6,3.7c-2.5,0-4.6-1.7-4.6-3.7"/>
		<path class="st10" d="M122.4,117.4c0,2-2,3.7-4.6,3.7c-2.5,0-4.6-1.7-4.6-3.7"/>
		<path class="st10" d="M95,117.4c0,2-2,3.7-4.6,3.7c-2.5,0-4.6-1.7-4.6-3.7"/>
		<path class="st10" d="M85.8,117.4c0,2-2,3.7-4.6,3.7"/>
		<path class="st10" d="M126.9,121.1c-2.5,0-4.6-1.7-4.6-3.7"/>
		<path class="st3" d="M93.3,90.7l0.8-9c0.1-0.8,0.8-1.4,1.6-1.4h17.2c0.8,0,1.5,0.6,1.6,1.4l0.7,9"/>
	</g>
	<polyline class="st12" points="124.7,9.4 129,9.4 129,69.8 129,78.1 129,87.5  "/>
	<polyline class="st12" points="17.5,83.3 17.5,9.4 19.1,9.4 27.5,9.4 78.8,9.4  "/>
</g>
</svg>