<svg xmlns="http://www.w3.org/2000/svg" xmlns:xlink="http://www.w3.org/1999/xlink" version="1.1" id="Layer_1" x="0px" y="0px" viewBox="0 0 161.2 129" style="enable-background:new 0 0 161.2 129;" xml:space="preserve" width="161.2"  height="129" >
<style type="text/css">
	.st0{fill:#8264FF;}
	.st1{fill:none;stroke:#C1B1FF;stroke-width:3;stroke-linecap:round;stroke-miterlimit:10;}
	.st2{fill:none;stroke:#8264FF;stroke-width:3;stroke-linecap:round;stroke-linejoin:round;}
	.st3{fill:none;stroke:#C1B1FF;stroke-width:2;stroke-miterlimit:10;}
	.st4{fill:none;stroke:#8264FF;stroke-width:3;stroke-miterlimit:10;}
	.st5{fill:none;stroke:#8264FF;stroke-width:3.08;stroke-linecap:round;stroke-linejoin:round;}
	.st6{fill:none;stroke:#C1B1FF;stroke-width:3;stroke-linecap:round;stroke-linejoin:round;}
</style>
<g id="Layer_2_1_">
	<g id="Слой_1">
		<circle class="st0" cx="81.9" cy="37.2" r="4.4"/>
		<path class="st1" d="M102.2,14.9C91,3.7,72.9,3.7,61.7,14.9c0,0,0,0,0,0"/>
		<path class="st1" d="M96.6,21.9c-8.1-8.1-21.3-8.1-29.4,0"/>
		<path class="st1" d="M91.3,28.7c-5.2-5.2-13.6-5.2-18.8,0"/>
		<line class="st2" x1="9.5" y1="114" x2="154.4" y2="114"/>
		<ellipse class="st3" cx="38.3" cy="101.4" rx="6.6" ry="6.6"/>
		<ellipse class="st4" cx="38.3" cy="101.4" rx="12.2" ry="12.2"/>
		<ellipse class="st3" cx="121.2" cy="101.4" rx="6.6" ry="6.6"/>
		<ellipse class="st4" cx="121.2" cy="101.4" rx="12.2" ry="12.2"/>
		<line class="st2" x1="58" y1="98.2" x2="100.3" y2="98.2"/>
		<polyline class="st2" points="14.4,86.1 14.4,70.6 45,70.6   "/>
		<polyline class="st2" points="22.4,86.1 8.8,86.1 14.4,99.6 18.9,99.6   "/>
		<line class="st2" x1="34.7" y1="78.3" x2="34.7" y2="70.6"/>
		<polyline class="st2" points="139.5,98.2 144.8,98.2 155.1,93.9 155.1,80.6   "/>
		<polyline class="st2" points="112.8,80.6 155.1,80.6 147.8,75.7 105.7,68.5 83.2,52.8 55.4,52.8   "/>
		<polyline class="st2" points="14.4,70.6 22.4,67.1 55.4,52.8   "/>
		<path class="st2" d="M106.5,69l-34.3,0.1c-3.7,0-7.4-1.1-10.5-3.1l-4.8-3.2"/>
		<line class="st5" x1="60.2" y1="78.3" x2="72.9" y2="78.3"/>
		<line class="st6" x1="41" y1="122.7" x2="44.1" y2="122.7"/>
		<line class="st6" x1="28.8" y1="122.7" x2="32.2" y2="122.7"/>
		<polyline class="st6" points="51.9,122.7 59.4,122.7 72.3,122.7   "/>
	</g>
</g>
</svg>