<svg xmlns="http://www.w3.org/2000/svg" xmlns:xlink="http://www.w3.org/1999/xlink" version="1.1" id="Слой_1" x="0px" y="0px" viewBox="0 0 148.6 138.6" style="enable-background:new 0 0 148.6 138.6;" xml:space="preserve" width="148.6"  height="138.6" >
<style type="text/css">
	
		.st0{fill-rule:evenodd;clip-rule:evenodd;fill:none;stroke:#8264FF;stroke-width:3;stroke-linecap:round;stroke-linejoin:round;stroke-miterlimit:10;}
	
		.st1{fill-rule:evenodd;clip-rule:evenodd;fill:none;stroke:#8264FF;stroke-width:2;stroke-linecap:round;stroke-linejoin:round;stroke-miterlimit:10;}
	.st2{fill:none;stroke:#C1B1FF;stroke-width:2;stroke-miterlimit:10;}
	.st3{fill:#EAEBEF;stroke:#8264FF;stroke-width:3;stroke-linecap:round;stroke-linejoin:round;stroke-miterlimit:10;}
	.st4{fill:none;stroke:#8264FF;stroke-width:3;stroke-linecap:round;stroke-linejoin:round;stroke-miterlimit:10;}
	.st5{fill:#8264FF;}
	.st6{fill:none;stroke:#C1B1FF;stroke-width:3;stroke-linecap:round;stroke-miterlimit:10;}
	.st7{fill:none;stroke:#8264FF;stroke-width:3;stroke-miterlimit:10;}
	.st8{fill:none;stroke:#8264FF;stroke-width:3.1977;stroke-linecap:round;stroke-linejoin:round;stroke-miterlimit:10;}
	.st9{fill:none;stroke:#8264FF;stroke-width:3.0804;stroke-linecap:round;stroke-linejoin:round;stroke-miterlimit:10;}
	.st10{fill:none;stroke:#C1B1FF;stroke-width:3;stroke-linecap:round;stroke-linejoin:round;stroke-miterlimit:10;}
</style>
<g>
	<g>
		<path class="st0" d="M45.1,92.2v28c0,6.1,4.9,11,11,11h19.8h10.6"/>
		<path class="st0" d="M85.7,131.1h19.8c6.1,0,11-4.9,11-11V79.6"/>
		<path class="st0" d="M45.1,33V18.4c0-6.1,4.9-11,11-11h49.4c6.1,0,11,4.9,11,11V103"/>
		<line class="st1" x1="45.1" y1="20.3" x2="116.5" y2="20.3"/>
		<line class="st1" x1="45.1" y1="115.6" x2="116.5" y2="115.6"/>
		<line class="st1" x1="77.2" y1="14.5" x2="86.4" y2="14.5"/>
		<line class="st1" x1="70" y1="14.5" x2="66.1" y2="14.5"/>
		<ellipse class="st2" cx="80.8" cy="123" rx="3.4" ry="3.3"/>
	</g>
</g>
<g>
	<g>
		<path class="st3" d="M22.2,68.8"/>
		<g>
			<path class="st4" d="M21.7,52.3"/>
		</g>
	</g>
</g>
<g>
	<g>
		<g>
			<ellipse class="st5" cx="79.8" cy="50.8" rx="2.8" ry="2.8"/>
			<path class="st6" d="M92.6,36.7c-7.1-7.1-18.5-7.1-25.6,0"/>
			<path class="st6" d="M89.1,41.2c-5.1-5.1-13.5-5.1-18.6,0"/>
			<path class="st6" d="M85.7,45.5c-3.3-3.3-8.6-3.3-11.9,0"/>
		</g>
		<line class="st3" x1="14.8" y1="92.4" x2="106.6" y2="92.4"/>
		<g>
			<ellipse class="st2" cx="33.1" cy="84.4" rx="4.2" ry="4.2"/>
			<ellipse class="st7" cx="33.1" cy="84.4" rx="7.7" ry="7.7"/>
		</g>
		<g>
			<ellipse class="st2" cx="85.6" cy="84.4" rx="4.2" ry="4.2"/>
			<ellipse class="st7" cx="85.6" cy="84.4" rx="7.7" ry="7.7"/>
		</g>
		<g>
			<line class="st4" x1="45.5" y1="82.5" x2="72.4" y2="82.5"/>
			<polyline class="st4" points="17.9,74.8 17.9,65 37.3,65    "/>
			<polyline class="st4" points="23,74.8 14.3,74.8 17.9,83.4 20.7,83.4    "/>
			<line class="st4" x1="30.7" y1="69.9" x2="30.7" y2="65"/>
			<polyline class="st4" points="97.2,82.5 100.5,82.5 107.1,79.7 107.1,71.3    "/>
			<path class="st8" d="M50.4,53.8"/>
			<path class="st8" d="M75.8,63.7"/>
			<polyline class="st4" points="80.3,71.3 107.1,71.3 102.4,68.2 75.8,63.7 61.5,53.8 43.9,53.8    "/>
			<polyline class="st4" points="17.9,65 23,62.8 43.9,53.8    "/>
		</g>
		<path class="st4" d="M76.2,64L54.5,64c-2.4,0-4.7-0.7-6.7-2l-3.1-2"/>
		<line class="st9" x1="46.9" y1="69.9" x2="55" y2="69.9"/>
	</g>
	<line class="st10" x1="34.7" y1="97.9" x2="36.7" y2="97.9"/>
	<line class="st10" x1="27" y1="97.9" x2="29.2" y2="97.9"/>
	<polyline class="st10" points="41.6,97.9 46.4,97.9 54.6,97.9  "/>
</g>
</svg>