<svg xmlns="http://www.w3.org/2000/svg" xmlns:xlink="http://www.w3.org/1999/xlink" version="1.1" id="Layer_1" x="0px" y="0px" viewBox="0 0 105.1 129.7" style="enable-background:new 0 0 105.1 129.7;" xml:space="preserve" width="105.1"  height="129.7" >
<style type="text/css">
	.st0{fill:none;stroke:#8264FF;stroke-width:3;stroke-linecap:round;stroke-linejoin:round;stroke-miterlimit:10;}
	.st1{fill:none;stroke:#C1B1FF;stroke-width:3;stroke-linecap:round;stroke-linejoin:round;stroke-miterlimit:10;}
	.st2{fill:none;stroke:#8264FF;stroke-width:2;stroke-linecap:round;stroke-linejoin:round;stroke-miterlimit:10;}
	
		.st3{fill:none;stroke:#8264FF;stroke-width:2;stroke-linecap:round;stroke-linejoin:round;stroke-miterlimit:10;stroke-dasharray:1,6;}
	.st4{fill:none;stroke:#C1B1FF;stroke-width:2;stroke-linecap:round;stroke-linejoin:round;stroke-miterlimit:10;}
</style>
<g>
	<polyline class="st0" points="9.3,34.4 9.3,14.2 85.5,14.2 85.5,34.2  "/>
	<path class="st0" d="M93.7,112.5H82.2H21.1c-6.5,0-11.8-5.3-11.8-11.8V61.5"/>
	<line class="st0" x1="85.5" y1="41.4" x2="85.5" y2="29.5"/>
	<path class="st0" d="M93.7,19.8L93.7,19.8c4.6,0,8.4,4.4,8.4,9.8v73.2c0,5.4-3.8,9.8-8.4,9.8h0c-4.6,0-8.4-4.4-8.4-9.8V60.5"/>
	<line class="st1" x1="93.7" y1="103.4" x2="93.7" y2="28.8"/>
	<g>
		<g>
			<path class="st2" d="M72.7,67.7c0,0.1,0,0.2,0,0.3c0,8.1-6.5,14.6-14.6,14.6c-8.1,0-14.6-6.5-14.6-14.6c0-8.1,6.5-14.6,14.6-14.6     "/>
			<line class="st2" x1="58.1" y1="67.7" x2="58.1" y2="53.4"/>
			<line class="st2" x1="58.1" y1="67.7" x2="72.8" y2="67.7"/>
		</g>
		<g>
			<path class="st2" d="M62.6,48.7L62.6,48.7c8,0,14.4,6.4,14.6,14.3"/>
			<line class="st2" x1="62.6" y1="62.9" x2="62.6" y2="48.7"/>
			<line class="st2" x1="62.6" y1="62.9" x2="77.3" y2="62.9"/>
		</g>
		<polyline class="st2" points="64,75.1 70.3,81.4 78.9,81.4   "/>
		<polyline class="st2" points="71.1,56.5 76.4,49.3 84.7,49.3   "/>
	</g>
	<g>
		<line class="st3" x1="16.2" y1="71.7" x2="43.7" y2="71.7"/>
		<line class="st3" x1="24.5" y1="78.2" x2="41.8" y2="78.2"/>
	</g>
	<g>
		<line class="st4" x1="2" y1="55.1" x2="40.7" y2="55.1"/>
		<rect x="6.6" y="43.3" class="st4" width="6.3" height="11.8"/>
		<rect x="18.1" y="36.4" class="st4" width="6.1" height="18.8"/>
		<rect x="29.3" y="31.5" class="st4" width="6.3" height="23.6"/>
	</g>
	<g>
		<line class="st0" x1="53.3" y1="23.3" x2="74.7" y2="23.3"/>
		<line class="st0" x1="48.7" y1="23.3" x2="48.7" y2="23.3"/>
		<line class="st0" x1="70.5" y1="31.2" x2="74.7" y2="31.2"/>
		<line class="st0" x1="48.7" y1="31.2" x2="61.4" y2="31.2"/>
		<line class="st0" x1="48.7" y1="39.3" x2="74.7" y2="39.3"/>
		<line class="st0" x1="66" y1="31.2" x2="66" y2="31.2"/>
	</g>
	<g>
		<line class="st2" x1="25.2" y1="93.7" x2="33.3" y2="93.7"/>
		<line class="st2" x1="39.4" y1="93.7" x2="47.5" y2="93.7"/>
		<line class="st2" x1="53.5" y1="93.7" x2="61.7" y2="93.7"/>
		<line class="st2" x1="67.7" y1="93.7" x2="75.9" y2="93.7"/>
	</g>
	<g>
		<line class="st4" x1="25.2" y1="97.8" x2="33.3" y2="97.8"/>
		<line class="st4" x1="39.4" y1="97.8" x2="47.5" y2="97.8"/>
		<line class="st4" x1="53.5" y1="97.8" x2="61.7" y2="97.8"/>
		<line class="st4" x1="67.7" y1="97.8" x2="75.9" y2="97.8"/>
	</g>
	<g>
		<line class="st2" x1="25.2" y1="101.9" x2="33.3" y2="101.9"/>
		<line class="st2" x1="39.4" y1="101.9" x2="47.5" y2="101.9"/>
		<line class="st2" x1="53.5" y1="101.9" x2="61.7" y2="101.9"/>
		<line class="st2" x1="67.7" y1="101.9" x2="75.9" y2="101.9"/>
	</g>
</g>
</svg>