<svg xmlns="http://www.w3.org/2000/svg" xmlns:xlink="http://www.w3.org/1999/xlink" version="1.1" id="Слой_1" x="0px" y="0px" viewBox="0 0 148.6 130" style="enable-background:new 0 0 148.6 130;" xml:space="preserve" width="148.6"  height="130" >
<style type="text/css">
	
		.st0{fill-rule:evenodd;clip-rule:evenodd;fill:none;stroke:#C1B1FF;stroke-width:2;stroke-linecap:round;stroke-linejoin:round;stroke-miterlimit:10;}
	
		.st1{fill-rule:evenodd;clip-rule:evenodd;fill:none;stroke:#8264FF;stroke-width:3;stroke-linecap:round;stroke-linejoin:round;stroke-miterlimit:10;}
	
		.st2{fill-rule:evenodd;clip-rule:evenodd;fill:none;stroke:#8264FF;stroke-width:2;stroke-linecap:round;stroke-linejoin:round;stroke-miterlimit:10;}
	.st3{fill:none;stroke:#C1B1FF;stroke-width:2;stroke-miterlimit:10;}
	.st4{fill:#8264FF;}
	.st5{fill:none;stroke:#8264FF;stroke-width:3.096;stroke-miterlimit:10;}
</style>
<g>
	<polyline class="st0" points="94.2,22.5 60.3,22.5 31.6,22.5 31.6,105.1 47.3,105.1  "/>
	<g>
		<line class="st0" x1="115.4" y1="67.8" x2="132.8" y2="67.8"/>
		<ellipse class="st0" cx="137.2" cy="68" rx="4.4" ry="4.4"/>
		<g>
			<polyline class="st0" points="115.4,75.4 125.9,75.4 132.8,81.1    "/>
			<ellipse class="st0" cx="135.2" cy="82.8" rx="2.9" ry="2.9"/>
		</g>
		<g>
			<polyline class="st0" points="115.7,60.6 125.9,60.6 132.8,55    "/>
			<ellipse class="st0" cx="135.2" cy="53.2" rx="2.9" ry="2.9"/>
		</g>
	</g>
	<g>
		<path class="st1" d="M64.2,126.8H84c6.1,0,11-4.9,11-11v-14.8v-5.4"/>
		<path class="st1" d="M95,43.2V14.1c0-6.1-4.9-11-11-11H34.6c-6.1,0-11,4.9-11,11v14.6v56.1v31c0,6.1,4.9,11,11,11h19.8H65"/>
		<path class="st1" d="M95,98.7"/>
		<line class="st2" x1="23.6" y1="16" x2="95" y2="16"/>
		<line class="st2" x1="23.6" y1="111.3" x2="95" y2="111.3"/>
		<line class="st2" x1="55.7" y1="10.2" x2="64.9" y2="10.2"/>
		<line class="st2" x1="48.5" y1="10.2" x2="44.6" y2="10.2"/>
		<ellipse class="st3" cx="59.3" cy="118.7" rx="3.4" ry="3.3"/>
	</g>
	<path class="st2" d="M44.5,38.1V84c0,6,4.9,10.9,10.9,10.9h49.1c6,0,10.9-4.9,10.9-10.9V55.3c0-6-4.9-10.9-10.9-10.9l-53.4,0l0,0   C47.6,44.4,44.5,41.6,44.5,38.1L44.5,38.1c0-3.4,2.8-6.2,6.3-6.2H95"/>
	<line class="st2" x1="52.3" y1="38.1" x2="87.8" y2="38.1"/>
	<g>
		<g>
			<path class="st4" d="M82.9,69.3c-0.8-0.5-1.7-0.8-2.6-1.2c-0.5-0.2-1-0.5-1.4-0.8c-0.8-0.7-0.7-1.8,0.3-2.2     c0.3-0.1,0.6-0.2,0.9-0.2c1.1-0.1,2.2,0.1,3.3,0.6c0.5,0.2,0.7,0.2,0.9-0.4c0.2-0.6,0.3-1.1,0.5-1.7c0.1-0.4,0-0.6-0.4-0.8     c-0.7-0.3-1.3-0.5-2.1-0.6c-0.9-0.1-0.9-0.1-0.9-1.1c0-1.3,0-1.3-1.3-1.3c-0.2,0-0.4,0-0.6,0c-0.6,0-0.7,0.1-0.7,0.7     c0,0.3,0,0.6,0,0.8c0,0.8,0,0.8-0.8,1.1c-1.9,0.7-3.1,2-3.2,4.1c-0.1,1.9,0.9,3.1,2.4,4c0.9,0.6,2,0.9,3,1.3     c0.4,0.2,0.8,0.4,1.1,0.6c1,0.8,0.8,2.1-0.4,2.6c-0.6,0.3-1.2,0.3-1.9,0.2c-1-0.1-2-0.4-2.9-0.9c-0.5-0.3-0.7-0.2-0.9,0.4     c-0.2,0.5-0.3,1-0.4,1.5c-0.2,0.7-0.1,0.8,0.5,1.2c0.8,0.4,1.7,0.6,2.6,0.7c0.7,0.1,0.7,0.1,0.7,0.9c0,0.3,0,0.7,0,1     c0,0.4,0.2,0.7,0.6,0.7c0.5,0,1,0,1.5,0c0.4,0,0.6-0.2,0.6-0.6c0-0.5,0-0.9,0-1.4c0-0.5,0.2-0.7,0.6-0.8c1-0.3,1.9-0.8,2.6-1.6     C86.2,74,85.5,70.7,82.9,69.3z"/>
		</g>
		<ellipse class="st5" cx="79.9" cy="70.2" rx="15.3" ry="15.3"/>
	</g>
</g>
</svg>