<svg xmlns="http://www.w3.org/2000/svg" xmlns:xlink="http://www.w3.org/1999/xlink" version="1.1" id="Слой_1" x="0px" y="0px" viewBox="0 0 148.6 130" style="enable-background:new 0 0 148.6 130;" xml:space="preserve" width="148.6"  height="130" >
<style type="text/css">
	
		.st0{fill-rule:evenodd;clip-rule:evenodd;fill:none;stroke:#8264FF;stroke-width:3;stroke-linecap:round;stroke-linejoin:round;stroke-miterlimit:10;}
	
		.st1{fill-rule:evenodd;clip-rule:evenodd;fill:none;stroke:#8264FF;stroke-width:2;stroke-linecap:round;stroke-linejoin:round;stroke-miterlimit:10;}
	
		.st2{fill-rule:evenodd;clip-rule:evenodd;fill:none;stroke:#C1B1FF;stroke-width:3;stroke-linecap:round;stroke-linejoin:round;stroke-miterlimit:10;}
	.st3{fill-rule:evenodd;clip-rule:evenodd;fill:none;stroke:#8264FF;stroke-width:2;stroke-linejoin:round;stroke-miterlimit:10;}
	.st4{fill:#8264FF;}
	.st5{fill:none;stroke:#8264FF;stroke-width:2;stroke-miterlimit:10;}
	
		.st6{fill-rule:evenodd;clip-rule:evenodd;fill:none;stroke:#C1B1FF;stroke-width:2;stroke-linecap:round;stroke-linejoin:round;stroke-miterlimit:10;}
</style>
<g>
	<path class="st0" d="M64.5,104.8H48.3c-5,0-9-4-9-9V62.4"/>
	<path class="st0" d="M39.2,24.1v-12c0-5,4-9,9-9h40.6c5,0,9,4,9,9v71.7"/>
	<polyline class="st0" points="82.9,21.9 89.5,21.9 89.5,29.1  "/>
	<polyline class="st0" points="82.9,68.5 89.5,68.5 89.5,61.8  "/>
	<line class="st1" x1="39.2" y1="13.7" x2="97.9" y2="13.7"/>
	<line class="st1" x1="39.2" y1="91.9" x2="64.8" y2="91.9"/>
	<line class="st1" x1="65.7" y1="8.9" x2="73.2" y2="8.9"/>
	<line class="st2" x1="14" y1="34" x2="73.4" y2="34"/>
	<line class="st2" x1="14" y1="41.2" x2="73.4" y2="41.2"/>
	<line class="st1" x1="29.9" y1="52.2" x2="40.7" y2="52.2"/>
	<g>
		<ellipse class="st1" cx="54.1" cy="52.2" rx="3.5" ry="2.8"/>
		<ellipse class="st1" cx="61.1" cy="52.2" rx="3.5" ry="2.8"/>
	</g>
	<path class="st2" d="M18.4,77.9V112c0,7.6,4,9,9,9H48"/>
	<polyline class="st2" points="43,126.9 49,121 43,115.1  "/>
	<polyline class="st2" points="113.1,35.7 107.1,41.6 113.1,47.6  "/>
	<path class="st2" d="M137.7,73.7V50.6c0-7.6-4-9-9-9h-20.7"/>
	<line class="st1" x1="20.7" y1="52.2" x2="23.7" y2="52.2"/>
	<path class="st3" d="M117.9,124.6c0-8.2,6.7-14.8,14.9-14.8c1.9,0,3.7,0.3,5.3,1"/>
	<path class="st3" d="M117.9,82.8c0,8.2,6.7,14.8,14.9,14.8c1.9,0,3.7-0.3,5.3-1"/>
	<path class="st3" d="M64.5,96.7c1.6,0.6,3.4,1,5.3,1c8.2,0,14.9-6.6,14.9-14.8"/>
	<path class="st3" d="M64.5,110.7c1.6-0.6,3.4-1,5.3-1c8.2,0,14.9,6.6,14.9,14.8"/>
	<g>
		<g>
			<path class="st4" d="M103.8,102.9c-0.7-0.4-1.4-0.7-2.1-1c-0.4-0.2-0.8-0.4-1.2-0.7c-0.7-0.6-0.6-1.5,0.3-1.8     c0.2-0.1,0.5-0.1,0.7-0.1c0.9-0.1,1.8,0.1,2.7,0.5c0.4,0.2,0.6,0.1,0.7-0.3c0.2-0.5,0.3-0.9,0.4-1.4c0.1-0.3,0-0.5-0.3-0.7     c-0.5-0.2-1.1-0.4-1.7-0.5c-0.8-0.1-0.8-0.1-0.8-0.9c0-1.1,0-1.1-1.1-1.1c-0.2,0-0.3,0-0.5,0c-0.5,0-0.6,0.1-0.6,0.6     c0,0.2,0,0.5,0,0.7c0,0.7,0,0.7-0.7,0.9c-1.6,0.6-2.6,1.7-2.7,3.4c-0.1,1.5,0.7,2.6,2,3.3c0.8,0.5,1.6,0.7,2.5,1.1     c0.3,0.1,0.6,0.3,0.9,0.5c0.8,0.7,0.6,1.7-0.3,2.1c-0.5,0.2-1,0.3-1.6,0.2c-0.8-0.1-1.6-0.3-2.4-0.7c-0.4-0.2-0.6-0.2-0.7,0.3     c-0.1,0.4-0.2,0.8-0.4,1.3c-0.2,0.6-0.1,0.7,0.4,1c0.7,0.3,1.4,0.5,2.2,0.6c0.6,0.1,0.6,0.1,0.6,0.7c0,0.3,0,0.6,0,0.8     c0,0.3,0.2,0.5,0.5,0.6c0.4,0,0.8,0,1.2,0c0.3,0,0.5-0.2,0.5-0.5c0-0.4,0-0.8,0-1.1c0-0.4,0.1-0.6,0.5-0.7     c0.8-0.2,1.6-0.7,2.1-1.4C106.5,106.9,105.9,104.1,103.8,102.9z"/>
		</g>
		<ellipse class="st5" cx="101.3" cy="103.7" rx="12.3" ry="12.2"/>
	</g>
	<line class="st6" x1="59.7" y1="8.9" x2="56.5" y2="8.9"/>
	<path class="st0" d="M130,83.8h5.2c1.6,0,2.9,1.3,2.9,2.9v34.1c0,1.6-1.3,2.9-2.9,2.9H112h-0.5H80"/>
	<path class="st0" d="M72.7,123.6h-5.3c-1.6,0-2.9-1.3-2.9-2.9V86.7c0-1.6,1.3-2.9,2.9-2.9h54.4"/>
	<path class="st0" d="M71,61.3H16.5c-1.4,0-2.5-1.1-2.5-2.5V27.6c0-1.4,1.1-2.5,2.5-2.5H71c1.4,0,2.5,1.1,2.5,2.5v31.2   C73.4,60.2,72.3,61.3,71,61.3z"/>
</g>
</svg>