<svg xmlns="http://www.w3.org/2000/svg" xmlns:xlink="http://www.w3.org/1999/xlink" version="1.1" id="Layer_1" x="0px" y="0px" viewBox="0 0 105.1 129.7" style="enable-background:new 0 0 105.1 129.7;" xml:space="preserve" width="105.1"  height="129.7" >
<style type="text/css">
	.st0{fill:none;stroke:#8264FF;stroke-width:3;stroke-linecap:round;stroke-linejoin:round;stroke-miterlimit:10;}
	.st1{fill:none;stroke:#8264FF;stroke-width:3.3274;stroke-linecap:round;stroke-linejoin:round;stroke-miterlimit:10;}
	.st2{fill:none;stroke:#C1B1FF;stroke-width:2;stroke-linecap:round;stroke-linejoin:round;stroke-miterlimit:10;}
	.st3{fill:none;stroke:#8264FF;stroke-width:2;stroke-linecap:round;stroke-linejoin:round;stroke-miterlimit:10;}
</style>
<g>
	<line class="st0" x1="17.7" y1="30.6" x2="75.8" y2="30.6"/>
	<line class="st0" x1="17.7" y1="64.2" x2="75.8" y2="64.2"/>
	<line class="st0" x1="52" y1="53" x2="75.5" y2="53"/>
	<line class="st0" x1="17.4" y1="53" x2="41.1" y2="53"/>
	<line class="st0" x1="52" y1="41.8" x2="75.5" y2="41.8"/>
	<line class="st0" x1="17.4" y1="41.8" x2="41.1" y2="41.8"/>
	<path class="st1" d="M4.4,31.9"/>
	<polyline class="st2" points="5.3,94.9 11.2,94.9 21,85.1  "/>
	<line class="st2" x1="28.3" y1="85.1" x2="42.1" y2="98.9"/>
	<line class="st2" x1="49.7" y1="99.8" x2="59.4" y2="90.1"/>
	<polyline class="st2" points="67.5,89.5 83.3,105.4 88.2,105.4  "/>
	<circle class="st2" cx="25" cy="81.2" r="5"/>
	<circle class="st2" cx="45.9" cy="103.5" r="5"/>
	<circle class="st2" cx="63.3" cy="86.2" r="5"/>
	<line class="st3" x1="17.7" y1="105.4" x2="33" y2="105.4"/>
	<line class="st3" x1="61.1" y1="105.4" x2="75" y2="105.4"/>
	<line class="st1" x1="49.7" y1="89.5" x2="49.7" y2="89.5"/>
	<line class="st1" x1="12.1" y1="85.1" x2="12.1" y2="85.1"/>
	<line class="st1" x1="80.2" y1="93.8" x2="80.2" y2="93.8"/>
	<polyline class="st0" points="94.2,12 100.6,12 100.6,116 94.2,116  "/>
	<polygon class="st0" points="23.4,12 88.8,12 88.8,116 4.4,116 4.4,31.9  "/>
</g>
</svg>