<svg xmlns="http://www.w3.org/2000/svg" xmlns:xlink="http://www.w3.org/1999/xlink" version="1.1" id="Слой_1" x="0px" y="0px" viewBox="0 0 130 130" style="enable-background:new 0 0 130 130;" xml:space="preserve" width="130"  height="130" >
<style type="text/css">
	.st0{fill:#8264FF;}
	.st1{fill:#C1B1FF;}
	.st2{fill:none;stroke:#8264FF;stroke-width:2.7946;stroke-miterlimit:10;}
	.st3{fill:none;stroke:#8264FF;stroke-width:2.7946;stroke-linecap:round;stroke-linejoin:round;stroke-miterlimit:10;}
	.st4{fill:none;stroke:#C1B1FF;stroke-width:1.863;stroke-miterlimit:10;}
	.st5{fill:none;stroke:#8264FF;stroke-width:3.7261;stroke-linecap:round;stroke-linejoin:round;stroke-miterlimit:10;}
	.st6{fill:#EAEBEF;stroke:#8264FF;stroke-width:2.7946;stroke-linecap:round;stroke-linejoin:round;stroke-miterlimit:10;}
</style>
<g>
	<ellipse class="st0" cx="25.1" cy="23.3" rx="6.5" ry="6.5"/>
	<ellipse class="st1" cx="31.9" cy="43" rx="2.1" ry="2.1"/>
	<ellipse class="st1" cx="34.6" cy="50.7" rx="2.1" ry="2.1"/>
	<ellipse class="st1" cx="37.2" cy="58.3" rx="2.1" ry="2.1"/>
	<path class="st2" d="M72.9,122.2H15.5c-2.3,0-4.1-1.9-4.1-4.1v-9.2c0-2.3,1.9-4.1,4.1-4.1h57.4c2.3,0,4.1,1.9,4.1,4.1v9.2   C77.1,120.3,75.2,122.2,72.9,122.2z"/>
	<path class="st2" d="M88.3,30.9H42.5c-2.1,0-3.7-1.7-3.7-3.7V17.1c0-2.1,1.7-3.7,3.7-3.7h5.4h4.4h36c2.1,0,3.7,1.7,3.7,3.7v10.1   C92,29.2,90.4,30.9,88.3,30.9z"/>
	<line class="st3" x1="104.6" y1="96.9" x2="104.6" y2="101.7"/>
	<line class="st3" x1="104.6" y1="75.7" x2="104.6" y2="89"/>
	<line class="st3" x1="114.2" y1="70.8" x2="114.2" y2="93.4"/>
	<ellipse class="st4" cx="114.2" cy="22.3" rx="4.9" ry="4.9"/>
	<g>
		<path class="st0" d="M102.2,26.4H82.6c-0.8,0-1.4-0.6-1.4-1.4v-5.7c0-0.8,0.6-1.4,1.4-1.4h19.6c0.8,0,1.4,0.6,1.4,1.4V25    C103.6,25.8,103,26.4,102.2,26.4z"/>
	</g>
	<ellipse class="st2" cx="114.2" cy="22.3" rx="10.8" ry="10.8"/>
	<g>
		<polyline class="st5" points="107.4,31.4 107.4,45.2 100.7,51.9 108.4,59.6   "/>
		<polyline class="st5" points="121,31.3 121,45.2 127.6,51.9 120,59.6   "/>
		<line class="st3" x1="107.4" y1="40.1" x2="121" y2="40.1"/>
	</g>
	<line class="st3" x1="54.6" y1="7.4" x2="54.6" y2="20.8"/>
	<line class="st3" x1="62.5" y1="7.4" x2="62.5" y2="20.8"/>
	<line class="st6" x1="2.4" y1="122.6" x2="126.6" y2="122.6"/>
	<path class="st3" d="M19.7,104.7h38.4l-1.8-18.3c0.8-1.8,1.2-3.6,1.2-5.7c0-3.1-0.8-5.6-2.5-8l-17.8-41l-2,0.6   c2.1-2.4,3.2-5.6,3.2-9c0-7.5-5.9-13.6-13.5-13.6c-7.5,0-13.7,6.1-13.7,13.6c0,6.4,4.5,11.8,10.5,13.2l-1.2,0.4l10.2,37.6   c-0.8,1.8-1.4,4-1.4,6.1c0,1.1,0.2,2.7,0.6,4.1c0.4,1.3,1,2.4,1,2.4L19.7,104.7z"/>
	<ellipse class="st2" cx="43.5" cy="80.6" rx="14" ry="14"/>
	<ellipse class="st2" cx="43.5" cy="80.6" rx="7.1" ry="7.1"/>
</g>
</svg>