<svg xmlns="http://www.w3.org/2000/svg" xmlns:xlink="http://www.w3.org/1999/xlink" version="1.1" id="Слой_1" x="0px" y="0px" viewBox="0 0 148.6 138.6" style="enable-background:new 0 0 148.6 138.6;" xml:space="preserve" width="148.6"  height="138.6" >
<style type="text/css">
	.st0{fill:none;stroke:#8264FF;stroke-width:3;stroke-linecap:round;stroke-linejoin:round;stroke-miterlimit:10;}
	.st1{fill:none;stroke:#C1B1FF;stroke-width:2;stroke-linecap:round;stroke-linejoin:round;stroke-miterlimit:10;}
	.st2{fill:none;stroke:#C1B1FF;stroke-width:2;stroke-linecap:round;stroke-miterlimit:10;}
	.st3{fill:none;stroke:#8264FF;stroke-width:2;stroke-linecap:round;stroke-miterlimit:10;}
	.st4{fill:none;stroke:#8264FF;stroke-width:2;stroke-linecap:round;stroke-linejoin:round;stroke-miterlimit:10;}
	.st5{fill:none;stroke:#C1B1FF;stroke-width:3;stroke-linecap:round;stroke-miterlimit:10;}
	.st6{fill:#8264FF;}
	.st7{fill:none;stroke:#C1B1FF;stroke-width:3;stroke-miterlimit:10;}
</style>
<path class="st0" d="M90.3,106.1c17.4,4.4,32.2,15,42.2,29.4"/>
<path class="st0" d="M12.7,134.4c10-13.9,24.7-24.2,41.7-28.4"/>
<line class="st1" x1="65.1" y1="24.1" x2="71.7" y2="24.1"/>
<g>
	<line class="st2" x1="65.5" y1="40.3" x2="80.4" y2="40.3"/>
	<line class="st1" x1="65.1" y1="34.1" x2="80.7" y2="34.1"/>
	<path class="st0" d="M65.1,23.4l5.3-17.8c1.1-1.7,3.8-1.7,4.9,0l5.3,17.8v88.5H65.1V23.4z"/>
	<line class="st3" x1="72.9" y1="74.5" x2="72.9" y2="118.6"/>
	<polyline class="st4" points="64.2,81 56.2,90 56.2,112.4 65.1,112.4  "/>
	<polyline class="st4" points="81.1,81 89,90 89,112.4 79.4,112.4  "/>
	<path class="st5" d="M65.6,118.1c0.2,0.8,2.2,7.4-2.4,13.1c-3.5,4.3-8.5,5.3-9.7,5.5"/>
	<path class="st5" d="M80.4,118.1c-0.2,0.8-2.2,7.4,2.4,13.1c3.5,4.3,8.5,5.3,9.7,5.5"/>
	<ellipse class="st6" cx="72.9" cy="67.2" rx="1.1" ry="1.1"/>
	<ellipse class="st6" cx="51.5" cy="42.1" rx="4.8" ry="4.8"/>
	<ellipse class="st7" cx="109.3" cy="32.9" rx="9.7" ry="9.7"/>
</g>
</svg>