<svg xmlns="http://www.w3.org/2000/svg" xmlns:xlink="http://www.w3.org/1999/xlink" version="1.1" id="Слой_1" x="0px" y="0px" viewBox="0 0 148.6 130" style="enable-background:new 0 0 148.6 130;" xml:space="preserve" width="148.6"  height="130" >
<style type="text/css">
	.st0{fill:#C1B1FF;}
	.st1{fill:#8264FF;}
	.st2{fill:none;stroke:#8264FF;stroke-width:3;stroke-linecap:round;stroke-linejoin:round;stroke-miterlimit:10;}
	.st3{fill:none;stroke:#8264FF;stroke-width:3;stroke-miterlimit:10;}
	.st4{fill:none;stroke:#C1B1FF;stroke-width:2.1704;stroke-miterlimit:10;}
	.st5{fill:none;stroke:#8264FF;stroke-width:2;stroke-linecap:round;stroke-linejoin:round;stroke-miterlimit:10;}
</style>
<g>
	<g>
		<ellipse class="st0" cx="52.6" cy="26.1" rx="2.2" ry="2.2"/>
		<ellipse class="st1" cx="17" cy="61.2" rx="2.2" ry="2.2"/>
		<g>
			<polyline class="st2" points="9.9,57.1 3.3,53.5 3.3,20.7 33.1,37.1 33.1,69.9 24.2,65    "/>
			<polyline class="st2" points="47,29.5 33.1,37.1 3.3,20.7 33.1,4 63.1,20.5    "/>
			<polyline class="st2" points="33.1,69.9 63.1,54.1 63.1,20.5    "/>
		</g>
	</g>
	<line class="st2" x1="27.6" y1="127.4" x2="126.7" y2="127.4"/>
	<g>
		<line class="st3" x1="65.8" y1="92.9" x2="65.8" y2="117"/>
		<line class="st3" x1="88.4" y1="92.9" x2="88.4" y2="117"/>
	</g>
	<path class="st2" d="M99.5,127.4H54.8c-2.8,0-5.2-2.3-5.2-5.2v0c0-2.8,2.3-5.2,5.2-5.2h44.6c2.8,0,5.2,2.3,5.2,5.2v0   C104.6,125,102.3,127.4,99.5,127.4z"/>
	<ellipse class="st4" cx="77.1" cy="83.6" rx="3.6" ry="3.6"/>
	<line class="st5" x1="99.3" y1="83.6" x2="126" y2="83.6"/>
	<g>
		<polyline class="st5" points="91.7,56.7 87.4,56.7 83.6,56.7 80.3,56.7   "/>
		<polyline class="st5" points="114.9,56.7 110.9,56.7 101.8,56.7 106.9,56.7 98.1,56.7   "/>
		<line class="st5" x1="128.4" y1="56.7" x2="122.9" y2="56.7"/>
	</g>
	<g>
		<polyline class="st5" points="101.8,63.3 106,63.3 80.7,63.3   "/>
		<line class="st5" x1="128.4" y1="63.3" x2="112.6" y2="63.3"/>
	</g>
	<polyline class="st5" points="128.4,69.9 101.8,69.9 107.3,69.9 80.7,69.9  "/>
	<line class="st5" x1="28.3" y1="83.6" x2="55" y2="83.6"/>
	<path class="st2" d="M59.4,4h76.2c4.3,0,7.9,3.6,7.9,8v72.9c0,4.4-3.5,8-7.9,8H18.7c-4.3,0-7.9-3.6-7.9-8L9.9,57.1"/>
	<path id="settings_7_" class="st5" d="M128.4,31.1v-2.6c0-0.7-0.6-1.3-1.3-1.3l-1.9,0c-0.6,0-1.1-0.4-1.3-0.9   c-0.2-0.6-0.5-1.3-0.8-1.9c-0.3-0.5-0.2-1.1,0.2-1.6l2.3-2.3c0.5-0.5,0.5-1.4,0-1.9l-1.8-1.8c-0.5-0.5-1.4-0.5-1.9,0l-2.3,2.3   c-0.4,0.4-1,0.5-1.6,0.2c-0.6-0.3-1.2-0.6-1.9-0.8c-0.6-0.2-0.9-0.7-0.9-1.3l0-1.9c0-0.7-0.6-1.3-1.3-1.3h-2.6   c-0.7,0-1.3,0.6-1.3,1.3l0,1.9c0,0.6-0.4,1.1-0.9,1.3c-0.7,0.2-1.3,0.5-1.9,0.8c-0.5,0.3-1.2,0.2-1.6-0.2l-2.3-2.3   c-0.5-0.5-1.4-0.5-1.9,0l-1.8,1.8c-0.5,0.5-0.5,1.4,0,1.9l2.3,2.3c0.4,0.4,0.5,1,0.2,1.6c-0.3,0.6-0.6,1.2-0.8,1.9   c-0.2,0.6-0.7,0.9-1.3,0.9l-1.9,0c-0.7,0-1.3,0.6-1.3,1.3v2.6c0,0.7,0.6,1.3,1.3,1.3l1.9,0c0.6,0,1.1,0.4,1.3,0.9   c0.2,0.6,0.5,1.3,0.8,1.9c0.3,0.5,0.2,1.1-0.2,1.6L99.7,39c-0.5,0.5-0.5,1.4,0,1.9l1.8,1.8c0.5,0.5,1.4,0.5,1.9,0l2.3-2.3   c0.4-0.4,1-0.5,1.6-0.2c0.6,0.3,1.2,0.6,1.9,0.8c0.6,0.2,0.9,0.7,0.9,1.3l0,1.9c0,0.7,0.6,1.3,1.3,1.3h2.6c0.7,0,1.3-0.6,1.3-1.3   l0-1.9c0-0.6,0.4-1.1,0.9-1.3c0.7-0.2,1.3-0.5,1.9-0.8c0.5-0.3,1.2-0.2,1.6,0.2l2.3,2.3c0.5,0.5,1.4,0.5,1.9,0l1.8-1.8   c0.5-0.5,0.5-1.4,0-1.9l-2.3-2.3c-0.4-0.4-0.5-1-0.2-1.6c0.3-0.6,0.6-1.2,0.8-1.9c0.2-0.6,0.7-0.9,1.3-0.9l1.9,0   C127.8,32.4,128.4,31.8,128.4,31.1z M116.3,33.8c-5.5,3.9-11.6-2.1-7.6-7.6c0.1-0.1,0.2-0.2,0.3-0.3c5.5-3.9,11.6,2.1,7.6,7.6   C116.6,33.6,116.5,33.7,116.3,33.8z"/>
</g>
</svg>