<svg xmlns="http://www.w3.org/2000/svg" xmlns:xlink="http://www.w3.org/1999/xlink" version="1.1" id="Слой_1" x="0px" y="0px" viewBox="0 0 148.6 130" style="enable-background:new 0 0 148.6 130;" xml:space="preserve" width="148.6"  height="130" >
<style type="text/css">
	.st0{fill:none;stroke:#8264FF;stroke-width:2;stroke-linecap:round;stroke-miterlimit:10;}
	
		.st1{fill-rule:evenodd;clip-rule:evenodd;fill:none;stroke:#8264FF;stroke-width:2;stroke-linecap:round;stroke-linejoin:round;stroke-miterlimit:10;}
	.st2{fill:none;stroke:#C1B1FF;stroke-width:2;stroke-linecap:round;stroke-miterlimit:10;}
	.st3{fill:none;stroke:#C1B1FF;stroke-width:3;stroke-miterlimit:10;}
	.st4{fill:none;stroke:#8264FF;stroke-width:3;stroke-linecap:round;stroke-miterlimit:10;}
	.st5{fill:none;stroke:#C1B1FF;stroke-width:2.456;stroke-linecap:round;stroke-miterlimit:10;}
	
		.st6{fill-rule:evenodd;clip-rule:evenodd;fill:none;stroke:#8264FF;stroke-width:3;stroke-linecap:round;stroke-linejoin:round;stroke-miterlimit:10;}
	.st7{fill:none;stroke:#8264FF;stroke-width:2;stroke-miterlimit:10;}
	.st8{fill:#C1B1FF;}
</style>
<g>
	<line class="st0" x1="101.7" y1="36.5" x2="104.9" y2="33.4"/>
	<path class="st1" d="M46.3,98.7l-3,2.9c-0.8,0.8-2.1,0.8-2.8,0l-3.8-3.9c-0.8-0.8-0.8-2,0-2.8l2.9-2.9"/>
	<path class="st2" d="M134.6,36.8c0-18.1-14.7-32.8-32.9-32.8"/>
	<path class="st2" d="M121.4,32.6c0-8.4-6.8-15.2-15.3-15.2"/>
	<line class="st3" x1="57.8" y1="62.3" x2="53" y2="57.5"/>
	<line class="st3" x1="80.5" y1="85" x2="76" y2="80.5"/>
	<path class="st0" d="M43.6,36.5l11.7,11.7c2,2,2,5.1,0,7.1l-4.6,4.6c-2,2-5.1,2-7.1,0L12.1,28.4c-2-2-2-5.1,0-7.1l4.6-4.6   c2-2,5.1-2,7.1,0l7.4,7.4"/>
	<line class="st3" x1="81.6" y1="56.9" x2="88.2" y2="50.5"/>
	<path class="st0" d="M84.2,100.3L78.9,95c-2-2-2-5.1,0-7.1l4.6-4.6c2-2,5.1-2,7.1,0l31.5,31.4c2,2,2,5.1,0,7.1l-4.6,4.6   c-2,2-5.1,2-7.1,0l-17.2-17.2"/>
	<path class="st4" d="M38.5,82.6l30.3-30.2c2.3-2.3,6-2.3,8.3,0l9,9c2.3,2.3,2.3,6,0,8.3L55.8,99.9c-2.3,2.3-6,2.3-8.3,0l-9-9   C36.2,88.6,36.2,84.9,38.5,82.6z"/>
	<path class="st5" d="M14.9,19.5"/>
	<g>
		<g>
			<line class="st0" x1="43.1" y1="47.6" x2="38.8" y2="43.4"/>
			<line class="st0" x1="26.9" y1="31.5" x2="22.7" y2="27.3"/>
		</g>
	</g>
	<g>
		<g>
			<line class="st0" x1="110.7" y1="115" x2="106.4" y2="110.8"/>
			<line class="st0" x1="94.5" y1="98.9" x2="90.2" y2="94.7"/>
		</g>
	</g>
	<path class="st6" d="M99,55.9c-4-0.6-7.8-2.4-10.8-5.5c-7.6-7.6-7.6-19.8,0-27.4l27.5,27.4c-2.1,2.1-4.6,3.6-7.3,4.6"/>
	<line class="st1" x1="65.9" y1="55.3" x2="79.7" y2="69"/>
	<line class="st1" x1="59.9" y1="95.8" x2="52.2" y2="88.2"/>
	<ellipse class="st7" cx="107.2" cy="31.1" rx="2.9" ry="2.9"/>
	<ellipse class="st8" cx="62.3" cy="76.1" rx="4.4" ry="4.3"/>
</g>
</svg>