<svg xmlns="http://www.w3.org/2000/svg" xmlns:xlink="http://www.w3.org/1999/xlink" version="1.1" id="Слой_1" x="0px" y="0px" viewBox="0 0 130 130" style="enable-background:new 0 0 130 130;" xml:space="preserve" width="130"  height="130" >
<style type="text/css">
	.st0{fill:none;stroke:#38D996;stroke-width:3;stroke-linecap:round;stroke-linejoin:round;stroke-miterlimit:10;}
	.st1{fill:none;stroke:#38D996;stroke-width:3;stroke-miterlimit:10;}
	.st2{fill:none;stroke:#38D996;stroke-width:2;stroke-linecap:round;stroke-linejoin:round;stroke-miterlimit:10;}
	.st3{fill:none;stroke:#70E5B0;stroke-width:3;stroke-linecap:round;stroke-linejoin:round;stroke-miterlimit:10;}
</style>
<g>
	<g>
		<line class="st0" x1="18.7" y1="126.7" x2="111.3" y2="126.7"/>
		<g>
			<line class="st1" x1="54.4" y1="103.8" x2="54.4" y2="126.7"/>
			<line class="st1" x1="75.6" y1="103.8" x2="75.6" y2="126.7"/>
		</g>
		<path class="st0" d="M87.8,19h5.3h27.7h0.8c4.1,0,6.8,3.4,6.8,7.6v0.9v14.4v29.4v24.8c0,4.2-3.4,7.6-7.5,7.6H9.1    c-4.1,0-7.5-3.4-7.5-7.6v-28V25.9C1.6,21.7,5,19,9.1,19h18.2h19H58"/>
	</g>
	<line class="st2" x1="74.3" y1="55.2" x2="74.3" y2="66.2"/>
	<line class="st2" x1="74.3" y1="2.8" x2="74.3" y2="10.5"/>
	<line class="st2" x1="22.4" y1="35.1" x2="22.4" y2="39.8"/>
	<line class="st2" x1="22.4" y1="73.2" x2="22.4" y2="81.1"/>
	<path class="st3" d="M17.6,48.7v-5.3c0-2,1.3-3.7,2.8-3.7h3.9c1.6,0,2.8,1.7,2.8,3.7v26c0,2-1.3,3.7-2.8,3.7h-3.9   c-1.6,0-2.8-1.7-2.8-3.7v-13"/>
	<path class="st0" d="M44.3,43.9v-9.8c0-1.9,1.1-3.4,2.4-3.4H50c1.3,0,2.4,1.5,2.4,3.4v23.7c0,1.9-1.1,3.4-2.4,3.4h-3.3   c-1.3,0-2.4-1.5-2.4-3.4V52V43.9z"/>
	<path class="st0" d="M95.5,52.8V36.2c0-1.9,1-3.5,2.2-3.5h3.1c1.2,0,2.2,1.6,2.2,3.5v24.7c0,1.9-1,3.5-2.2,3.5h-3.1   c-1.2,0-2.2-1.6-2.2-3.5v-6.1V52.8z"/>
	<path class="st3" d="M79.2,36.9V15.4c0-2.7-1.3-5-2.9-5h-4c-1.6,0-2.9,2.2-2.9,5v34.8c0,2.7,1.3,5,2.9,5h4c1.6,0,2.9-2.2,2.9-5v-5"/>
	<line class="st2" x1="48.3" y1="60.7" x2="48.3" y2="73.2"/>
	<line class="st2" x1="48.3" y1="23.9" x2="48.3" y2="29.7"/>
	<line class="st2" x1="99.3" y1="64.6" x2="99.3" y2="79.5"/>
	<line class="st2" x1="99.3" y1="8.1" x2="99.3" y2="32.6"/>
	<line class="st3" x1="111" y1="57.5" x2="120.7" y2="52.4"/>
	<g>
		<polyline class="st3" points="10.1,97.2 42.1,82.9 45.5,92.4 87.8,69.9   "/>
		<polyline class="st3" points="118.9,58.8 120.7,52.4 115,50.4   "/>
	</g>
	<g>
		<line class="st2" x1="108" y1="95" x2="120.7" y2="95"/>
		<line class="st2" x1="76.6" y1="95" x2="99.3" y2="95"/>
	</g>
</g>
</svg>