<svg xmlns="http://www.w3.org/2000/svg" xmlns:xlink="http://www.w3.org/1999/xlink" width="34" height="43" viewBox="0 0 34 43" fill="none" version="1.1">
<path d="M30.2248 35.8582H9.79289C9.6529 35.8582 9.52368 35.7827 9.45417 35.6624C9.38368 35.541 9.38368 35.3911 9.45417 35.2708L10.3538 33.7182C10.3538 33.7172 10.3538 33.7172 10.3538 33.7172C10.4224 33.5977 10.4566 33.4675 10.4576 33.3295C10.4566 33.0495 10.3088 32.789 10.0709 32.6501L6.63379 30.6658C6.51435 30.5972 6.38513 30.5619 6.2471 30.5619C5.96711 30.5619 5.70671 30.7117 5.56868 30.9515L5.02144 31.9021C4.93431 32.0529 4.74929 32.1302 4.58091 32.0852C4.40959 32.0391 4.29016 31.8845 4.29016 31.7073L4.27645 24.788C4.27645 24.6832 4.31659 24.5853 4.39099 24.5109C4.46441 24.4365 4.56329 24.3954 4.66706 24.3954C4.88341 24.3954 5.05962 24.5707 5.05962 24.7859L5.07039 30.3093C5.36799 29.9716 5.7958 29.7786 6.24612 29.7786H6.2471C6.52121 29.7786 6.79042 29.8511 7.02635 29.9882L10.4635 31.9736C10.9432 32.2534 11.2408 32.7734 11.2398 33.3294C11.2408 33.6006 11.1693 33.8688 11.0342 34.1048L11.0332 34.1077L10.4723 35.0749H29.8332V29.3049C29.8332 29.0886 30.0094 28.9123 30.2248 28.9123C30.4411 28.9123 30.6163 29.0886 30.6163 29.3049V35.4665C30.6163 35.5712 30.5752 35.6701 30.5018 35.7435C30.4274 35.818 30.3295 35.8582 30.2248 35.8582ZM30.2248 27.7386C30.0094 27.7386 29.8332 27.5624 29.8332 27.347C29.8332 27.1306 30.0094 26.9554 30.2248 26.9554C30.4411 26.9554 30.6163 27.1306 30.6163 27.347C30.6163 27.5625 30.4411 27.7386 30.2248 27.7386ZM30.2248 25.7807C30.0094 25.7807 29.8332 25.6044 29.8332 25.3891V2.6401H9.47375L5.02536 7.09143L5.05277 20.8703C5.05277 21.0866 4.87753 21.2629 4.66118 21.2629C4.44483 21.2629 4.2696 21.0876 4.26862 20.8722L4.24219 6.9299C4.24219 6.82515 4.28232 6.72628 4.35673 6.65286L9.03419 1.97245C9.1086 1.89805 9.20649 1.85693 9.31124 1.85693H30.2248C30.3275 1.85693 30.4294 1.89903 30.5018 1.97245C30.5742 2.04489 30.6163 2.14573 30.6163 2.24852V25.3892C30.6163 25.6045 30.4411 25.7807 30.2248 25.7807ZM4.6651 23.2208H4.66412C4.44875 23.2208 4.27351 23.0455 4.27254 22.8302C4.27254 22.7254 4.31365 22.6275 4.38707 22.5531C4.4605 22.4787 4.55937 22.4376 4.66412 22.4376C4.88047 22.4376 5.0557 22.6128 5.0557 22.8281C5.05668 23.0446 4.88145 23.2208 4.6651 23.2208Z" fill="#826AFB"/>
<path d="M32.9479 33.9934H30.2244C30.1216 33.9934 30.0208 33.9512 29.9474 33.8778C29.8749 33.8054 29.8328 33.7045 29.8328 33.6018V2.64025H26.4016C26.1852 2.64025 26.01 2.46502 26.01 2.24867C26.01 2.0333 26.1852 1.85709 26.4016 1.85709H30.2244C30.3272 1.85709 30.4281 1.89918 30.5015 1.9726C30.5739 2.04505 30.616 2.14588 30.616 2.24867V33.2102H32.5563V27.4471C32.5563 27.2307 32.7315 27.0555 32.9479 27.0555C33.1633 27.0555 33.3395 27.2307 33.3395 27.4471V33.6018C33.3395 33.7065 33.2984 33.8044 33.2249 33.8778C33.1504 33.9523 33.0517 33.9934 32.9479 33.9934ZM32.9479 25.8808C32.7315 25.8808 32.5563 25.7045 32.5563 25.4892C32.5563 25.2728 32.7315 25.0976 32.9479 25.0976C33.1633 25.0976 33.3395 25.2728 33.3395 25.4892C33.3395 25.7045 33.1633 25.8808 32.9479 25.8808ZM32.9479 23.9228C32.7315 23.9228 32.5563 23.7466 32.5563 23.5313V0.783168H12.1959L11.1191 1.85709H22.4858C22.7011 1.85709 22.8773 2.0333 22.8773 2.24867C22.8773 2.46502 22.7011 2.64025 22.4858 2.64025H10.1724C10.0138 2.64025 9.87186 2.5453 9.81116 2.39845C9.75047 2.25161 9.78375 2.08421 9.89633 1.97162L11.7573 0.114538C11.8308 0.0411161 11.9316 0 12.0344 0H32.9479C33.0507 0 33.1515 0.0411161 33.2249 0.114538C33.2973 0.186981 33.3395 0.287814 33.3395 0.391584V23.5313C33.3395 23.7466 33.1633 23.9228 32.9479 23.9228ZM24.4437 2.64025C24.2273 2.64025 24.0521 2.46502 24.0521 2.24867C24.0521 2.0333 24.2273 1.85709 24.4437 1.85709C24.659 1.85709 24.8353 2.0333 24.8353 2.24867C24.8353 2.46502 24.659 2.64025 24.4437 2.64025Z" fill="#826AFB"/>
<path d="M14.6406 29.9037H14.6376C13.8525 29.9037 13.0703 29.8029 12.3126 29.6022C11.5314 29.3956 10.7776 29.0853 10.0718 28.678C8.6552 27.8567 7.48338 26.6732 6.68357 25.2556C5.90628 23.8783 5.49512 22.3159 5.4961 20.7367C5.4961 19.9516 5.59693 19.1694 5.79762 18.4117C6.0032 17.6305 6.3145 16.8767 6.72175 16.1709C7.20634 15.3329 7.81329 14.583 8.52598 13.9427C8.59744 13.8781 8.69044 13.8429 8.78736 13.8429C8.89798 13.8429 9.00469 13.8899 9.07811 13.9721C9.223 14.1327 9.21027 14.3813 9.04972 14.5252C8.39773 15.1116 7.84266 15.7969 7.40017 16.5624C6.66693 17.8341 6.27926 19.2771 6.27926 20.7367C6.27926 23.7206 7.8828 26.5038 10.4633 27.9996C11.735 28.7329 13.179 29.1205 14.6386 29.1205C17.6254 29.1205 20.4065 27.517 21.8986 24.9365C22.6318 23.6628 23.0195 22.2189 23.0195 20.7592C23.0185 17.7715 21.415 14.9893 18.8344 13.4983C17.5628 12.7651 16.1198 12.3774 14.6601 12.3774C13.8593 12.3774 13.0615 12.4919 12.2901 12.719C12.2539 12.7298 12.2167 12.7347 12.1795 12.7347C12.0062 12.7347 11.8525 12.6192 11.8035 12.4537C11.7928 12.4165 11.7869 12.3793 11.7879 12.3421C11.7879 12.1699 11.9034 12.0162 12.0688 11.9672C13.6685 11.4973 15.3836 11.4728 16.9861 11.8957C17.7664 12.1023 18.5202 12.4126 19.226 12.8199C20.6426 13.6383 21.8143 14.8209 22.6142 16.2384C23.3914 17.6158 23.8026 19.1792 23.8026 20.7592C23.8026 21.5444 23.7008 22.3266 23.5011 23.0853C23.2946 23.8665 22.9842 24.6212 22.577 25.328C21.7577 26.7436 20.5761 27.9155 19.1585 28.7162C17.782 29.4934 16.2196 29.9037 14.6406 29.9037ZM10.3782 13.4905C10.2352 13.4905 10.1041 13.4131 10.0355 13.2888C9.98463 13.1978 9.9719 13.092 10.0003 12.9912C10.0297 12.8913 10.0952 12.8081 10.1863 12.7572C10.1863 12.7572 10.1863 12.7562 10.1873 12.7562C10.245 12.7239 10.3106 12.7063 10.3772 12.7063C10.5191 12.7063 10.6503 12.7837 10.7198 12.908C10.8246 13.0969 10.757 13.3358 10.5681 13.4405C10.5103 13.4728 10.4438 13.4905 10.3782 13.4905Z" fill="#826AFB"/>
<path d="M10.1349 32.6287C10.0664 32.6287 9.99886 32.6111 9.93915 32.5759L6.76438 30.7413C6.5774 30.6336 6.51279 30.3938 6.62047 30.2068L8.43742 27.0595C8.49616 26.9568 8.59797 26.8872 8.71447 26.8686C8.82999 26.85 8.9504 26.8853 9.03753 26.9636C9.48002 27.3591 9.94698 27.6978 10.4639 27.9993C10.9954 28.2999 11.5368 28.5387 12.0733 28.7091C12.1868 28.7453 12.2759 28.8295 12.319 28.9401C12.3621 29.0517 12.3533 29.175 12.2935 29.2779L10.4746 32.433C10.4218 32.524 10.3376 32.5886 10.2368 32.615C10.2035 32.6248 10.1692 32.6287 10.1349 32.6287ZM7.49468 30.2587L9.99201 31.7017L11.3792 29.2954C10.9436 29.1299 10.505 28.9223 10.0752 28.6796L10.0713 28.6767C9.65329 28.434 9.2529 28.1578 8.88089 27.8573L7.49468 30.2587Z" fill="#826AFB"/>
<path d="M4.98976 43L4.9878 42.995V43C4.71761 43 4.45133 42.9294 4.21638 42.7974L4.21344 42.7954L0.780231 40.811H0.779252C0.297604 40.5311 0 40.0112 0 39.4562C0 39.184 0.0724428 38.9148 0.208518 38.6769L4.89186 30.5594C5.17184 30.0787 5.69069 29.7791 6.24772 29.7791H6.25066C6.52281 29.7791 6.79202 29.8515 7.02795 29.9886L10.4651 31.974C10.9448 32.2539 11.2424 32.7727 11.2424 33.3298C11.2424 33.601 11.1709 33.8692 11.0358 34.1052L11.0348 34.1072L6.3466 42.2248C6.06661 42.7034 5.54679 43 4.98976 43ZM1.17377 40.1336L4.60307 42.116C4.72152 42.1826 4.85172 42.2168 4.98878 42.2168C5.27072 42.2168 5.53112 42.0689 5.66818 41.832L10.3564 33.7155C10.3574 33.7155 10.3574 33.7155 10.3574 33.7155C10.4249 33.596 10.4592 33.4658 10.4592 33.3298C10.4582 33.0499 10.3104 32.7894 10.0725 32.6504L6.63539 30.6671C6.51596 30.5976 6.38673 30.5623 6.2487 30.5623C5.96872 30.5623 5.70831 30.7121 5.57028 30.9519L0.886937 39.0675C0.81841 39.1878 0.783168 39.3181 0.783168 39.4562C0.784147 39.7391 0.930012 39.9925 1.17279 40.1336H1.17377Z" fill="#826AFB"/>
<path d="M4.05552 40.6408H4.05259C3.78435 40.6408 3.52003 40.5695 3.28606 40.4352C2.81127 40.1611 2.51758 39.6491 2.51758 39.0999C2.51758 38.8327 2.58806 38.5664 2.7212 38.3334L2.72316 38.3305C2.99531 37.8595 3.50437 37.5669 4.04965 37.5669H4.05161C4.32278 37.5669 4.58906 37.6383 4.82303 37.7734C5.29978 38.0476 5.59445 38.5555 5.59347 39.1018C5.59347 39.3691 5.52201 39.6353 5.38691 39.8713C5.11182 40.3462 4.60178 40.6408 4.05552 40.6408ZM3.4006 38.7239C3.33403 38.8404 3.30075 38.9667 3.30075 39.0999C3.30172 39.3759 3.44269 39.6207 3.67765 39.7568C3.79414 39.8234 3.92043 39.8576 4.05357 39.8576C4.32376 39.8576 4.57437 39.7128 4.70849 39.4807C4.77604 39.3622 4.8103 39.2349 4.8103 39.1018C4.80932 38.8306 4.66835 38.5888 4.4334 38.4528C4.43242 38.4528 4.43242 38.4528 4.43144 38.4518C4.31495 38.3842 4.1867 38.35 4.05161 38.35C3.77848 38.3509 3.5357 38.49 3.4006 38.7229V38.7239Z" fill="#826AFB"/>
<path d="M30.2252 6.28903H11.2217C11.0053 6.28903 10.8301 6.11379 10.8301 5.89744C10.8301 5.68207 11.0053 5.50586 11.2217 5.50586H30.2252C30.4416 5.50586 30.6168 5.68207 30.6168 5.89744C30.6168 6.11379 30.4416 6.28903 30.2252 6.28903Z" fill="#826AFB"/>
<path d="M14.8489 26.8207C14.0804 26.8207 13.3354 26.67 12.6335 26.3734C11.9561 26.0865 11.3481 25.6764 10.8254 25.1526C10.3036 24.6298 9.8934 24.0209 9.60656 23.3436C9.30994 22.6416 9.16016 21.8967 9.16016 21.1282C9.16016 21.0254 9.20127 20.9246 9.2747 20.8511C9.34714 20.7787 9.44895 20.7366 9.55174 20.7366H14.4573V15.8359C14.4573 15.7331 14.4994 15.6313 14.5718 15.5589C14.6453 15.4864 14.7461 15.4443 14.8489 15.4443C15.6164 15.4443 16.3604 15.5941 17.0613 15.8907C17.7388 16.1766 18.3467 16.5858 18.8695 17.1076C19.3913 17.6294 19.8015 18.2373 20.0883 18.9138C20.3849 19.6147 20.5357 20.3597 20.5357 21.1282C20.5357 21.8967 20.3849 22.6416 20.0883 23.3436C19.8015 24.021 19.3922 24.6299 18.8695 25.1526C18.3477 25.6764 17.7388 26.0865 17.0623 26.3734C16.3614 26.67 15.6164 26.8207 14.8489 26.8207ZM9.95899 21.5197C10.05 22.6788 10.5542 23.7732 11.3795 24.5995C12.3065 25.5265 13.5381 26.0375 14.8489 26.0375C16.1578 26.0375 17.3883 25.5264 18.3154 24.5995C19.2415 23.6714 19.7526 22.4379 19.7526 21.1281C19.7515 19.8182 19.2415 18.5867 18.3154 17.6616C17.4911 16.8383 16.3986 16.3341 15.2405 16.2431V21.1281C15.2405 21.2309 15.1984 21.3317 15.1259 21.4051C15.0535 21.4776 14.9527 21.5197 14.8489 21.5197H9.95899Z" fill="#826AFB"/>
<path d="M9.16308 20.1051C9.06518 20.1051 8.97022 20.0679 8.89778 20.0003C8.81946 19.9289 8.77443 19.83 8.77149 19.7243C8.76954 19.6547 8.76758 19.5764 8.76758 19.4942C8.76758 19.458 8.76856 19.4247 8.76954 19.3934C8.76954 19.3924 8.76954 19.3924 8.76954 19.3924C8.79401 18.1276 9.30405 16.944 10.2057 16.0581C11.1083 15.1721 12.3006 14.6846 13.5635 14.6846C13.5919 14.6846 13.6222 14.6846 13.6545 14.6855C13.8699 14.6895 14.0422 14.8676 14.0383 15.084L13.961 19.4913C13.958 19.6959 13.7945 19.8652 13.5899 19.876L9.18364 20.1041C9.17678 20.1051 9.16993 20.1051 9.16308 20.1051ZM13.2483 15.4795C11.2336 15.6371 9.64766 17.2778 9.55564 19.3004L13.1846 19.1124L13.2483 15.4795Z" fill="#826AFB"/>
<path d="M16.8728 33.824H14.9736C14.8708 33.824 14.77 33.7819 14.6966 33.7094C14.6231 33.636 14.582 33.5352 14.582 33.4324V31.5303C14.582 31.4264 14.6231 31.3257 14.6966 31.2532C14.77 31.1798 14.8708 31.1387 14.9736 31.1387H16.8728C16.9756 31.1387 17.0764 31.1798 17.1488 31.2532C17.2222 31.3257 17.2633 31.4265 17.2633 31.5303V33.4324C17.2633 33.5371 17.2233 33.635 17.1488 33.7094C17.0753 33.7837 16.9766 33.824 16.8728 33.824ZM15.3652 33.0408H16.4812V31.9209H15.3652V33.0408Z" fill="#826AFB"/>
<path d="M26.7126 33.3669H18.4306C18.2153 33.3669 18.0391 33.1917 18.0391 32.9753C18.0391 32.759 18.2153 32.5837 18.4306 32.5837H26.7126C26.928 32.5837 27.1033 32.759 27.1033 32.9753C27.1033 33.1917 26.928 33.3669 26.7126 33.3669Z" fill="#826AFB"/>
<path d="M27.6382 11.7221H22.623C22.4067 11.7221 22.2305 11.5469 22.2305 11.3305C22.2305 11.1152 22.4067 10.939 22.623 10.939H27.6382C27.8536 10.939 28.0298 11.1152 28.0298 11.3305C28.0298 11.5469 27.8536 11.7221 27.6382 11.7221Z" fill="#826AFB"/>
<path d="M27.6382 13.1313H22.623C22.4067 13.1313 22.2305 12.9551 22.2305 12.7397C22.2305 12.5234 22.4067 12.3472 22.623 12.3472H27.6382C27.8536 12.3472 28.0298 12.5234 28.0298 12.7397C28.0298 12.9551 27.8536 13.1313 27.6382 13.1313Z" fill="#826AFB"/>
<path d="M27.6376 14.539H21.6885C21.4721 14.539 21.2969 14.3638 21.2969 14.1474C21.2969 13.9311 21.4721 13.7559 21.6885 13.7559H27.6377C27.8531 13.7559 28.0293 13.9311 28.0293 14.1474C28.0293 14.3638 27.853 14.539 27.6376 14.539Z" fill="#826AFB"/>
<path d="M27.6376 15.9467H21.6885C21.4721 15.9467 21.2969 15.7715 21.2969 15.5552C21.2969 15.3398 21.4721 15.1636 21.6885 15.1636H27.6377C27.8531 15.1636 28.0293 15.3398 28.0293 15.5552C28.0292 15.7715 27.853 15.9467 27.6376 15.9467Z" fill="#826AFB"/>
<path d="M27.6382 17.3471H22.623C22.4067 17.3471 22.2305 17.1709 22.2305 16.9555C22.2305 16.7392 22.4067 16.564 22.623 16.564H27.6382C27.8536 16.564 28.0298 16.7392 28.0298 16.9555C28.0298 17.1709 27.8536 17.3471 27.6382 17.3471Z" fill="#826AFB"/>
</svg>