<svg xmlns="http://www.w3.org/2000/svg" xmlns:xlink="http://www.w3.org/1999/xlink" version="1.1" id="Слой_1" x="0px" y="0px" viewBox="0 0 148.6 130" style="enable-background:new 0 0 148.6 130;" xml:space="preserve" width="148.6"  height="130" >
<style type="text/css">
	.st0{fill:none;stroke:#8264FF;stroke-width:2;stroke-linecap:round;stroke-linejoin:round;stroke-miterlimit:10;}
	.st1{fill:none;stroke:#8264FF;stroke-width:3;stroke-linecap:round;stroke-linejoin:round;stroke-miterlimit:10;}
	.st2{fill:none;stroke:#8264FF;stroke-width:3;stroke-linecap:round;stroke-miterlimit:10;}
	.st3{fill:none;stroke:#C1B1FF;stroke-width:2;stroke-linecap:round;stroke-linejoin:round;stroke-miterlimit:10;}
	.st4{fill:none;stroke:#8264FF;stroke-width:3;stroke-miterlimit:10;}
</style>
<g>
	<g>
		<path class="st0" d="M81,114.8c5.5,1.1,13.7,1.3,23.3-11"/>
		<path class="st1" d="M108.4,103.9l-20.2-0.3l-9.2,8l7.4,11.9c6-1,19.5-4,22.2-12.7c0.5-1.6,0.5-2.9,0.4-5.1c0-0.4-0.1-0.9-0.1-1.3    c-0.6-6.2-2.2-11.9-3-17.2c-1.2-7.5-1.9-13.6-2.2-16.2c-0.1-0.8,0.1-1.6,0.6-2.2c1.1-1.4,3.6-4.7,8.8-12    c15.7-22,21-28.5,22.4-30.5c0,0,8-10.7,9.2-18.1c0.3-2-0.2-3.1-0.5-3.5c-1.2-1.7-3.6-1.9-4.7-2c-6.8-0.5-20.1,10.3-21.6,11.5"/>
		<polygon class="st0" points="36.7,50.7 41.3,46.5 55.2,54.8 48.3,61.9   "/>
		<path class="st0" d="M54.9,63.9l4.6-4.1l8.9,5.2l-1.2,1.1c-2,1.8-4.2,3.2-6.7,4.2l-2,0.8L54.9,63.9z"/>
		<path class="st1" d="M66.3,90.2l-8.9,5.6c-1.1,0.6-3.9,0.9-4.8,0.1"/>
		<path class="st2" d="M97.9,25.7l11.4-10.2c2.8-2.5,7.1-2.3,9.7,0.5l1.5,1.6c2.5,2.8,2.3,7.1-0.5,9.6L85.6,63.7"/>
		<path class="st1" d="M39.3,78.1l6.8-5.9l-16.5-9.6c-0.7-0.4-1.3-0.7-2.3-0.5c-1.3,0.3-1.9,1.1-3.1,2.1c-2,1.6-5.1,1.7-6.6,1.1    c-0.9-0.4-2-1.6-3-2.6c-0.5-0.5-1.1-1.1-1.6-1.6l-1.3-1.6L4.1,51c-0.3-0.3-0.2-0.8,0.1-1l4.9-4.1c0.6-0.5,1.4-0.7,2.2-0.4l15,4.6"/>
		<path class="st2" d="M63,81.3c0.4,0.9,2.1,6.6,4.5,8.8c0.1,0.1,15.8,15.6,15.8,15.6"/>
		<path class="st2" d="M110.9,36.9c-0.3-0.5-0.7-1.1-1.3-1.8c-3.1-3.8-7.2-6.9-11.6-9.1c0,0-0.1,0-0.1-0.1c-1-0.5-4.6-1.6-7.6-1.2    c-4.5,0.7-6.9,3.7-7.8,4.5L54.3,56l-5.3,5.5c-1,1-2.2,1.9-3.5,2.5l-7.3,3.6"/>
		<line class="st3" x1="96.3" y1="38.7" x2="77.7" y2="57.7"/>
		<path class="st1" d="M76.5,98.4c0-1.7-0.1-13.3,9.3-21.6c5.7-5.1,12.2-6.6,17.3-6.8"/>
		<ellipse transform="matrix(0.7614 -0.6483 0.6483 0.7614 -45.3428 50.8066)" class="st4" cx="46.3" cy="87" rx="3.2" ry="11.5"/>
	</g>
	<g>
		<line class="st0" x1="32.7" y1="122.8" x2="49.5" y2="106.1"/>
		<line class="st3" x1="47.6" y1="120.1" x2="66" y2="101.7"/>
		<line class="st3" x1="40.2" y1="127.4" x2="44" y2="123.6"/>
	</g>
	<g>
		<line class="st0" x1="10.5" y1="106.7" x2="27.3" y2="90"/>
		<line class="st3" x1="13.2" y1="91.8" x2="30.3" y2="74.7"/>
		<line class="st3" x1="5.9" y1="99.3" x2="9.7" y2="95.5"/>
	</g>
</g>
</svg>