<svg xmlns="http://www.w3.org/2000/svg" xmlns:xlink="http://www.w3.org/1999/xlink" version="1.1" id="Слой_1" x="0px" y="0px" viewBox="0 0 130 130" style="enable-background:new 0 0 130 130;" xml:space="preserve" width="130"  height="130" >
<style type="text/css">
	.st0{fill:none;stroke:#8264FF;stroke-width:0.2388;stroke-linecap:round;stroke-linejoin:round;stroke-miterlimit:10;}
	.st1{fill:none;stroke:#8264FF;stroke-width:2;stroke-miterlimit:10;}
	.st2{fill:none;stroke:#8264FF;stroke-width:3;stroke-linecap:round;stroke-linejoin:round;stroke-miterlimit:10;}
	.st3{fill:#8264FF;}
	.st4{fill:none;stroke:#C1B1FF;stroke-width:2;stroke-linecap:round;stroke-linejoin:round;stroke-miterlimit:10;}
	.st5{fill:none;stroke:#8264FF;stroke-width:3;stroke-miterlimit:10;}
	.st6{fill:#C1B1FF;}
	.st7{fill:none;stroke:#8264FF;stroke-width:2;stroke-linecap:round;stroke-linejoin:round;stroke-miterlimit:10;}
</style>
<g>
	<path class="st0" d="M57.7,107.6"/>
	<path class="st1" d="M59.8,80.7H40.4c-0.9,0-1.7-0.8-1.7-1.7v-6c0-0.9,0.8-1.7,1.7-1.7h19.4c0.9,0,1.7,0.8,1.7,1.7v6   C61.5,79.9,60.7,80.7,59.8,80.7z"/>
	<path class="st2" d="M73.1,49.4c0.1-0.4,0.2-0.9,0.3-1.4c0.3-1.5,0.4-3,0.4-4.6c0-5.4-1.6-10.3-4.4-14.4c-0.5-0.7-1-1.3-1.5-2   c-0.6-0.7-1.2-1.3-1.8-1.9c-0.3-0.3-0.7-0.6-1-0.9c-0.7-0.6-1.5-1.2-2.2-1.7c-0.5-0.3-1-0.6-1.5-0.9c-0.7-0.4-1.5-0.8-2.3-1.1   c-0.5-0.2-1.1-0.4-1.6-0.6c-0.8-0.3-1.6-0.5-2.4-0.7c-0.6-0.1-1.2-0.2-1.7-0.3c-1-0.1-2.1-0.2-3.2-0.2c-13.1,0-23.8,11.1-23.8,24.7   c0,9.6,5.2,17.9,12.9,22l-0.2-0.1c0,0,3,1.3,3,3.5v1.9"/>
	
		<ellipse transform="matrix(0.9956 -9.382193e-02 9.382193e-02 0.9956 -4.7766 6.8711)" class="st3" cx="70.7" cy="54.2" rx="1" ry="1"/>
	
		<ellipse transform="matrix(0.9956 -9.382193e-02 9.382193e-02 0.9956 -5.1893 6.6372)" class="st3" cx="68" cy="58.5" rx="1" ry="1"/>
	
		<ellipse transform="matrix(0.9956 -9.382193e-02 9.382193e-02 0.9956 -5.5307 6.3507)" class="st3" cx="64.8" cy="62" rx="1" ry="1"/>
	
		<ellipse transform="matrix(0.9956 -9.382193e-02 9.382193e-02 0.9956 -5.8016 6.0287)" class="st3" cx="61.2" cy="64.7" rx="1" ry="1"/>
	<g>
		<line class="st4" x1="49.9" y1="8.7" x2="49.9" y2="2"/>
		<line class="st4" x1="57.6" y1="9.6" x2="59" y2="3.1"/>
		<line class="st4" x1="66.1" y1="13" x2="69.2" y2="7.2"/>
		<line class="st4" x1="73.5" y1="18.7" x2="77.9" y2="14"/>
		<line class="st4" x1="79" y1="26.3" x2="84.6" y2="23"/>
		<line class="st4" x1="82.4" y1="35.2" x2="88.6" y2="33.6"/>
		<line class="st4" x1="83.4" y1="44.7" x2="89.7" y2="44.9"/>
		<line class="st4" x1="81.8" y1="54.1" x2="87.8" y2="56.1"/>
		<line class="st4" x1="77.8" y1="62.7" x2="83.1" y2="66.3"/>
		<line class="st4" x1="71.7" y1="69.8" x2="75.9" y2="74.9"/>
		<line class="st4" x1="29.2" y1="70.7" x2="25.2" y2="75.9"/>
		<line class="st4" x1="22.8" y1="63.8" x2="17.7" y2="67.7"/>
		<line class="st4" x1="18.5" y1="55.3" x2="12.5" y2="57.7"/>
		<line class="st4" x1="16.6" y1="46" x2="10.2" y2="46.5"/>
		<line class="st4" x1="17.2" y1="36.5" x2="10.9" y2="35.2"/>
		<line class="st4" x1="20.2" y1="27.5" x2="14.5" y2="24.5"/>
		<line class="st4" x1="25.5" y1="19.7" x2="20.8" y2="15.2"/>
		<line class="st4" x1="32.6" y1="13.7" x2="29.3" y2="8"/>
		<line class="st4" x1="41.1" y1="9.9" x2="39.4" y2="3.5"/>
	</g>
	<path class="st5" d="M56.7,80.7c0,3.9-3,7.1-6.6,7.1s-6.6-3.2-6.6-7.1"/>
	<g>
		<path class="st2" d="M66.9,91.4c0,0.3,0.1,0.7,0.3,1.2c1.2,3.9,4.3,6.9,8.2,8.2c8.9,2.9,26.3,8.5,29.6,8.5c4.5,0,5-3.2,5-3.2V90.8    v-2.1c0,0,7.9-1.8,8.4-4c0.5-2.1-13.2-17.9-11.9-22.4c1.2-4.1,3.5-24-13.9-36.1"/>
		<path class="st2" d="M80.1,102.6c-1.5,2.2-3.5,5.7-4.6,10.4c-1.3,5.9-0.6,11,0.2,14.2"/>
		<path class="st2" d="M47.6,95.7c0.6,2.9,1.5,9.6-1.3,17.2c-2.6,7.3-7.2,11.9-10.1,14.2"/>
	</g>
	<circle class="st6" cx="50.1" cy="41.8" r="4.3"/>
	<line class="st7" x1="50.1" y1="71.2" x2="50.1" y2="53.2"/>
	<path class="st7" d="M40.6,52.4c-2.9-2.6-4.7-6.3-4.7-10.5c0-7.8,6.3-14.2,14.2-14.2S64.2,34,64.2,41.8c0,3.9-1.6,7.4-4.1,10   c-0.2,0.2-0.5,0.4-0.7,0.6"/>
</g>
</svg>