<svg xmlns="http://www.w3.org/2000/svg" xmlns:xlink="http://www.w3.org/1999/xlink" version="1.1" id="Слой_1" x="0px" y="0px" viewBox="0 0 130 130" style="enable-background:new 0 0 130 130;" xml:space="preserve" width="130"  height="130" >
<style type="text/css">
	.st0{fill:#C1B1FF;}
	.st1{fill:#8264FF;}
	.st2{fill:none;stroke:#8264FF;stroke-width:3;stroke-linecap:round;stroke-linejoin:round;stroke-miterlimit:10;}
	.st3{fill:none;stroke:#8264FF;stroke-width:2;stroke-linecap:round;stroke-linejoin:round;stroke-miterlimit:10;}
	.st4{fill:none;stroke:#8264FF;stroke-width:2.4482;stroke-linecap:round;stroke-linejoin:round;stroke-miterlimit:10;}
</style>
<g>
	<g>
		<g>
			<g>
				<g>
					<path class="st0" d="M70.2,65.6c-3.3,4.8-12.1,5.3-12.4,11.9c-0.3,7.7,10.3,7.7,11.7,14.7c1.2,5.8-10.8,7.6-11.8,13.9       c-1.1,7.6,7.4,10.4,11.7,15.2c0,0,0.9-3.2,0.1-4c-1.3-1.4-2.6-2.8-4.2-4c-1.5-1.2-4-2.2-5.1-3.7c-2.7-3.5,1.9-5.5,4.7-7.3       c3.9-2.6,6.4-5.1,6-10c-0.4-5.1-3.9-8.6-8-11.3c-0.8-0.5-3.6-1.5-3.7-2.6c-0.2-1.7,2.5-2.6,3.8-3.3c2.9-1.5,5.5-2.8,7.4-5.6       C71.1,68.7,70.1,65.7,70.2,65.6L70.2,65.6z"/>
				</g>
			</g>
			<path class="st0" d="M59.6,78.1c0-0.1,0-0.4,0-0.5c0.1-0.3,0.3-0.6,0.6-0.9c-0.1,0-0.2-0.1-0.4-0.1c-0.7,0-1.2,0.7-1.2,1.5     c0,0.8,0.5,1.5,1.2,1.5c0.2,0,0.5-0.1,0.6-0.2C60,79,59.7,78.5,59.6,78.1z"/>
		</g>
		<g>
			<g>
				<g>
					<path class="st1" d="M69.6,57.9c-3.3,4.8-12.1,5.3-12.4,11.9c-0.3,7.7,10.3,7.7,11.7,14.7c1.2,5.8-10.8,7.6-11.8,13.9       c-1.1,7.6,7.4,10.4,11.7,15.2c0,0,0.9-3.1,0.1-4c-1.2-1.4-2.6-2.7-4-3.9c-1.5-1.2-4.1-2.3-5.2-3.8c-2.7-3.5,1.9-5.5,4.7-7.3       c3.9-2.6,6.4-5.1,6-10c-0.4-5.1-3.9-8.6-8-11.3c-0.8-0.5-3.6-1.5-3.7-2.6c-0.2-1.7,2.5-2.6,3.8-3.3c2.9-1.5,5.5-2.8,7.4-5.6       C70.5,61,69.6,58,69.6,57.9L69.6,57.9z"/>
				</g>
			</g>
			<path class="st1" d="M59,70.4c0-0.1,0-0.4,0-0.5c0.1-0.3,0.3-0.6,0.6-0.9c-0.1,0-0.2-0.1-0.4-0.1c-0.7,0-1.2,0.7-1.2,1.5     c0,0.8,0.5,1.5,1.2,1.5c0.2,0,0.5-0.1,0.6-0.2C59.4,71.4,59.1,70.8,59,70.4z"/>
		</g>
	</g>
	<path class="st2" d="M51.5,36.5v11.1v66c0,7.2,5.9,13.1,13.1,13.1h0c7.2,0,13.1-5.9,13.1-13.1v-66V36.4"/>
	<ellipse class="st3" cx="64.6" cy="52.5" rx="11.7" ry="3.7"/>
	<g>
		<path class="st2" d="M80.9,33.3c0,2.5-7.3,4.6-16.3,4.6s-16.3-2-16.3-4.6"/>
		<ellipse class="st2" cx="64.6" cy="14.2" rx="16.3" ry="4.6"/>
		<line class="st2" x1="59.2" y1="19.1" x2="59.2" y2="37.4"/>
		<line class="st2" x1="64.6" y1="18.7" x2="64.6" y2="37.9"/>
		<line class="st2" x1="70.1" y1="19.1" x2="70.1" y2="37.4"/>
		<line class="st2" x1="75.5" y1="17.6" x2="75.5" y2="36.4"/>
		<line class="st2" x1="53.7" y1="18.2" x2="53.7" y2="36.5"/>
		<line class="st2" x1="48.3" y1="14.3" x2="48.3" y2="33.3"/>
		<line class="st2" x1="80.9" y1="14.3" x2="80.9" y2="33.4"/>
	</g>
	<g>
		<g>
			<g>
				<g>
					<g>
						<path class="st0" d="M108.6,56.4c-2.5,3.3-8.7,3.9-9,8.6c-0.3,5.9,9.9,6.1,8.7,12.1c-0.5,2.4-5.8,4-7.5,6        c-0.9,1.1-1.2,2.1-1.3,3.5c-0.3,5,5.6,7.1,8.6,10.3c0,0,0.6-2.3,0.1-2.9c-1-1.1-2.1-2.2-3.3-3.1c-0.8-0.6-3-1.7-3.6-2.6        c-1.8-3,2.9-4.6,4.7-5.9c2.2-1.7,3.4-3.4,3.3-6.2c-0.1-3.4-2.1-5.9-4.8-7.9c-2.7-2-5.4-2.2-1.3-4.8c2.2-1.4,4-2,5.7-4.2        C109.3,58.6,108.6,56.4,108.6,56.4L108.6,56.4z"/>
					</g>
				</g>
				<path class="st0" d="M100.9,65.4c0-0.1,0-0.3,0-0.3c0.1-0.2,0.2-0.4,0.4-0.6c-0.1,0-0.2-0.1-0.3-0.1c-0.5,0-0.9,0.5-0.9,1.1      c0,0.6,0.4,1.1,0.9,1.1c0.2,0,0.3,0,0.5-0.2C101.2,66.1,101,65.7,100.9,65.4z"/>
			</g>
			<g>
				<g>
					<g>
						<path class="st1" d="M108.2,50.8c-2.5,3.3-8.7,3.9-9,8.6c-0.3,5.9,9.9,6.1,8.7,12.1c-0.5,2.4-5.8,4-7.5,6        c-0.9,1.1-1.2,2.1-1.3,3.5c-0.3,5,5.6,7.1,8.5,10.3c0,0,0.6-2.3,0.1-2.9c-1.7-1.8-5.7-3.7-6.9-5.7c-1.8-3,2.9-4.6,4.7-5.9        c2.2-1.7,3.4-3.4,3.3-6.2c-0.1-3.4-2.1-5.9-4.8-7.9c-2.7-2-5.4-2.2-1.3-4.8c2.2-1.4,4-2,5.7-4.2        C108.9,53.1,108.2,50.9,108.2,50.8L108.2,50.8z"/>
					</g>
				</g>
				<path class="st1" d="M100.5,59.9c0-0.1,0-0.3,0-0.3c0.1-0.2,0.2-0.4,0.4-0.6c-0.1,0-0.2-0.1-0.3-0.1c-0.5,0-0.9,0.5-0.9,1.1      c0,0.6,0.4,1.1,0.9,1.1c0.2,0,0.3,0,0.5-0.2C100.8,60.6,100.6,60.2,100.5,59.9z"/>
			</g>
		</g>
		<path class="st4" d="M92.8,26v9.6v57.2c0,6.2,5.1,11.3,11.3,11.3h0c6.2,0,11.3-5.1,11.3-11.3V35.7V26"/>
		<ellipse class="st3" cx="104.2" cy="40.8" rx="10.1" ry="3.2"/>
		<g>
			<line class="st4" x1="90" y1="6.4" x2="90" y2="22.9"/>
			<line class="st4" x1="99.5" y1="11" x2="99.5" y2="26.9"/>
			<path class="st4" d="M118.3,23.3c0,2.2-6.3,4-14.1,4S90,25.5,90,23.3"/>
			<ellipse class="st4" cx="104.2" cy="6.7" rx="14.1" ry="4"/>
			<line class="st4" x1="104.2" y1="10.7" x2="104.2" y2="27.3"/>
			<line class="st4" x1="108.9" y1="11" x2="108.9" y2="26.9"/>
			<line class="st4" x1="113.6" y1="9.7" x2="113.6" y2="26"/>
			<line class="st4" x1="94.7" y1="10.3" x2="94.7" y2="26"/>
			<line class="st4" x1="118.3" y1="6.4" x2="118.3" y2="23"/>
		</g>
	</g>
	<g>
		<g>
			<g>
				<g>
					<g>
						<path class="st0" d="M29.5,56.4c-2.5,3.3-8.7,3.9-9,8.6c-0.3,5.9,9.9,6.1,8.7,12.1c-0.5,2.4-5.8,4-7.5,6        c-0.9,1.1-1.2,2.1-1.3,3.5c-0.3,5,5.6,7.1,8.6,10.3c0,0,0.6-2.3,0.1-2.9c-1-1.1-2.1-2.2-3.3-3.1c-0.8-0.6-3-1.7-3.6-2.6        c-1.8-3,2.9-4.6,4.7-5.9c2.2-1.7,3.4-3.4,3.3-6.2c-0.1-3.4-2.1-5.9-4.8-7.9c-2.7-2-5.4-2.2-1.3-4.8c2.2-1.4,4-2,5.7-4.2        C30.2,58.6,29.5,56.4,29.5,56.4L29.5,56.4z"/>
					</g>
				</g>
				<path class="st0" d="M21.8,65.4c0-0.1,0-0.3,0-0.3c0.1-0.2,0.2-0.4,0.4-0.6c-0.1,0-0.2-0.1-0.3-0.1c-0.5,0-0.9,0.5-0.9,1.1      c0,0.6,0.4,1.1,0.9,1.1c0.2,0,0.3,0,0.5-0.2C22.1,66.1,21.8,65.7,21.8,65.4z"/>
			</g>
			<g>
				<g>
					<g>
						<path class="st1" d="M29.1,50.8c-2.5,3.3-8.7,3.9-9,8.6c-0.3,5.9,9.9,6.1,8.7,12.1c-0.5,2.4-5.8,4-7.5,6        c-0.9,1.1-1.2,2.1-1.3,3.5c-0.3,5,5.6,7.1,8.5,10.3c0,0,0.6-2.3,0.1-2.9c-1.7-1.8-5.7-3.7-6.9-5.7c-1.8-3,2.9-4.6,4.7-5.9        c2.2-1.7,3.4-3.4,3.3-6.2c-0.1-3.4-2.1-5.9-4.8-7.9c-2.7-2-5.4-2.2-1.3-4.8c2.2-1.4,4-2,5.7-4.2        C29.8,53.1,29.1,50.9,29.1,50.8L29.1,50.8z"/>
					</g>
				</g>
				<path class="st1" d="M21.4,59.9c0-0.1,0-0.3,0-0.3c0.1-0.2,0.2-0.4,0.4-0.6c-0.1,0-0.2-0.1-0.3-0.1c-0.5,0-0.9,0.5-0.9,1.1      c0,0.6,0.4,1.1,0.9,1.1c0.2,0,0.3,0,0.5-0.2C21.7,60.6,21.4,60.2,21.4,59.9z"/>
			</g>
		</g>
		<path class="st4" d="M13.7,26v9.6v57.2c0,6.2,5.1,11.3,11.3,11.3h0c6.2,0,11.3-5.1,11.3-11.3V35.7V26"/>
		<ellipse class="st3" cx="25.1" cy="40.8" rx="10.1" ry="3.2"/>
		<g>
			<line class="st4" x1="34.5" y1="9.7" x2="34.5" y2="26"/>
			<path class="st4" d="M39.2,23.3c0,2.2-6.3,4-14.1,4s-14.1-1.8-14.1-4"/>
			<ellipse class="st4" cx="25" cy="6.7" rx="14.1" ry="4"/>
			<line class="st4" x1="20.3" y1="11" x2="20.3" y2="26.9"/>
			<line class="st4" x1="25" y1="10.7" x2="25" y2="27.3"/>
			<line class="st4" x1="29.8" y1="11" x2="29.8" y2="26.9"/>
			<line class="st4" x1="15.6" y1="10.3" x2="15.6" y2="26"/>
			<line class="st4" x1="10.9" y1="6.9" x2="10.9" y2="23.3"/>
			<line class="st4" x1="39.2" y1="6.8" x2="39.2" y2="23.4"/>
		</g>
	</g>
</g>
</svg>